<?xml version="1.0" encoding="utf-8"?>
<!-- Generator: Adobe Illustrator 15.0.0, SVG Export Plug-In . SVG Version: 6.00 Build 0)  -->
<!DOCTYPE svg PUBLIC "-//W3C//DTD SVG 1.1//EN" "http://www.w3.org/Graphics/SVG/1.1/DTD/svg11.dtd">
<svg version="1.1" id="Calque_1" xmlns="http://www.w3.org/2000/svg" xmlns:xlink="http://www.w3.org/1999/xlink" x="0px" y="0px" viewBox="0 0 620 620" enable-background="new 0 0 620 620" xml:space="preserve">
<g>
	<g>
		<path fill="#C91437" d="M309.937,13.298c5.333,0,10.661,0.837,14.708,2.514l182.568,75.622c8.13,3.368,17.532,12.777,20.894,20.91
			l75.63,182.984c3.361,8.132,3.356,21.439-0.012,29.569l-75.622,182.567c-3.368,8.13-12.773,17.54-20.902,20.911l-182.815,75.807
			c-4.067,1.687-9.43,2.53-14.791,2.53c-5.354,0-10.708-0.842-14.771-2.524l-182.567-75.623
			c-8.13-3.368-17.522-12.781-20.871-20.919L16.24,325.036c-3.349-8.138-3.333-21.448,0.034-29.578L91.896,112.89
			c3.368-8.13,12.768-17.556,20.889-20.945l182.313-76.093C299.175,14.15,304.559,13.299,309.937,13.298 M310,5.298v8V5h-0.063
			c-6.657,0-13.021,1.275-17.92,3.32L109.703,84.488c-10.154,4.238-20.987,15.137-25.198,25.304L8.883,292.378
			c-4.211,10.167-4.229,25.517-0.041,35.693l75.145,182.613c4.192,10.188,15.029,21.053,25.207,25.269l182.568,75.624
			c4.877,2.021,11.21,3.134,17.833,3.134c6.631,0,12.973-1.114,17.855-3.14l182.815-75.807
			c10.169-4.217,21.015-15.067,25.229-25.239l75.622-182.567c4.214-10.17,4.22-25.512,0.015-35.686l-75.63-182.984
			c-4.206-10.177-15.051-21.03-25.226-25.245L327.738,8.421C322.877,6.408,317,5.298,310,5.298L310,5.298z"/>
	</g>
</g>
<g>
	<path fill="#7D0018" d="M112.256,528.564c-8.13-3.368-17.522-12.781-20.871-20.919L16.24,325.036
		c-3.349-8.138-3.333-21.448,0.034-29.578L91.896,112.89c3.368-8.13,12.768-17.556,20.889-20.945l182.313-76.093
		c8.121-3.389,21.418-3.407,29.548-0.04l182.568,75.622c8.13,3.368,17.532,12.777,20.894,20.91l75.63,182.984
		c3.361,8.132,3.356,21.439-0.012,29.569l-75.622,182.567c-3.368,8.13-12.773,17.54-20.902,20.911l-182.815,75.807
		c-8.129,3.371-21.432,3.374-29.562,0.006L112.256,528.564z"/>
	<g opacity="0.85">
		<path fill="#FFFFFF" d="M309.937,13.298c5.333,0,10.661,0.837,14.709,2.514l182.568,75.622c8.13,3.368,17.532,12.777,20.894,20.91
			l75.63,182.984c3.361,8.132,3.356,21.439-0.012,29.569l-75.622,182.567c-3.368,8.13-12.773,17.54-20.902,20.911l-182.815,75.807
			c-4.067,1.687-9.43,2.53-14.791,2.53c-5.355,0-10.708-0.842-14.771-2.524l-182.567-75.623
			c-8.13-3.368-17.522-12.781-20.871-20.919L16.24,325.036c-3.349-8.138-3.333-21.448,0.034-29.578L91.896,112.89
			c3.368-8.13,12.768-17.556,20.889-20.945l182.313-76.093C299.175,14.15,304.559,13.299,309.937,13.298 M310,5.298v8V5h-0.063
			c-6.657,0-13.021,1.275-17.92,3.32L109.703,84.488c-10.154,4.238-20.987,15.137-25.198,25.304L8.883,292.378
			c-4.211,10.167-4.229,25.518-0.041,35.693l75.145,182.613c4.192,10.188,15.029,21.053,25.207,25.269l182.568,75.624
			c4.877,2.021,11.21,3.134,17.833,3.134c6.631,0,12.973-1.114,17.855-3.14l182.815-75.807
			c10.169-4.217,21.015-15.067,25.229-25.239l75.622-182.567c4.214-10.17,4.22-25.512,0.015-35.687l-75.63-182.983
			c-4.206-10.177-15.051-21.03-25.226-25.245L327.738,8.421C322.877,6.408,317,5.298,310,5.298L310,5.298z"/>
	</g>
</g>
<g>
	<path fill="#C91437" d="M223.185,560c-8.8,0-21.081-5.102-27.29-11.338L71.29,423.533C65.081,417.297,60,404.995,60,396.195
		V221.224c0-8.8,5.125-21.057,11.389-27.238L195.795,71.238C202.06,65.057,214.385,60,223.185,60h174.972
		c8.8,0,21.102,5.08,27.338,11.29l123.168,122.645c6.236,6.209,11.338,18.49,11.338,27.29v174.971c0,8.8-5.057,21.125-11.238,27.389
		L425.395,548.611C419.213,554.875,406.956,560,398.156,560H223.185z"/>
</g>
<g opacity="0.85">
	<g>
		<path d="M111.498,347.701c-5.314,0-10.102-1.078-14.363-3.234c-4.262-2.156-7.89-5.168-10.886-9.039
			c-2.996-3.869-5.296-8.48-6.9-13.836c-1.605-5.354-2.407-11.228-2.407-17.626c0-3.445,0.249-6.979,0.749-10.605
			c0.499-3.624,1.257-7.241,2.273-10.847c1.016-3.607,2.282-7.141,3.798-10.605c1.515-3.462,3.28-6.738,5.296-9.824
			c2.015-3.087,4.27-5.93,6.767-8.532c2.496-2.603,5.251-4.846,8.265-6.729c3.014-1.885,6.259-3.354,9.736-4.414
			c3.477-1.059,7.212-1.588,11.207-1.588c5.35,0,10.138,0.969,14.363,2.904c4.226,1.936,7.792,4.643,10.699,8.121
			c2.906,3.478,5.135,7.629,6.687,12.45c1.551,4.823,2.327,10.139,2.327,15.947c0,4.764-0.473,9.732-1.418,14.904
			c-0.945,5.174-2.327,10.257-4.146,15.252s-4.084,9.749-6.793,14.265c-2.711,4.516-5.832,8.48-9.362,11.893
			s-7.462,6.123-11.795,8.133C121.26,346.697,116.561,347.701,111.498,347.701z M112.781,335.291c2.853,0,5.51-0.557,7.971-1.672
			c2.461-1.113,4.716-2.641,6.767-4.582s3.923-4.215,5.617-6.82c1.693-2.605,3.2-5.4,4.521-8.384
			c1.319-2.984,2.469-6.074,3.451-9.274c0.98-3.198,1.792-6.362,2.434-9.489s1.114-6.137,1.417-9.032
			c0.303-2.893,0.455-5.526,0.455-7.897c0-3.45-0.375-6.694-1.124-9.732c-0.749-3.037-1.881-5.679-3.396-7.925
			c-1.517-2.247-3.423-4.018-5.724-5.311c-2.301-1.294-4.984-1.941-8.051-1.941c-3.282,0-6.456,0.801-9.522,2.4
			c-3.068,1.6-5.957,3.756-8.667,6.469c-2.71,2.715-5.188,5.859-7.436,9.437c-2.247,3.576-4.172,7.343-5.777,11.295
			c-1.605,3.953-2.854,7.979-3.745,12.078c-0.892,4.098-1.337,8.015-1.337,11.752c0,4.063,0.508,7.846,1.524,11.349
			c1.017,3.506,2.479,6.533,4.387,9.086c1.907,2.551,4.226,4.555,6.955,6.012C106.228,334.562,109.322,335.291,112.781,335.291z"/>
		<path d="M181.76,337.432c-3.303,0-6.202-0.607-8.697-1.82c-2.495-1.211-4.586-2.836-6.273-4.867
			c-1.687-2.033-2.962-4.387-3.823-7.061c-0.862-2.676-1.292-5.457-1.292-8.346c0-2.067,0.357-4.548,1.075-7.436
			c0.717-2.889,1.497-5.411,2.34-7.569c0.842-2.158,1.881-4.218,3.118-6.18c1.237-1.96,2.67-3.682,4.302-5.161
			c1.631-1.479,3.451-2.657,5.459-3.53c2.007-0.874,4.212-1.312,6.614-1.312c2.163,0,4.164,0.312,6.005,0.937
			c1.84,0.625,3.416,1.489,4.724,2.594c1.309,1.106,2.333,2.417,3.074,3.932c0.739,1.517,1.109,3.148,1.109,4.896
			c0,1.213-0.173,2.407-0.521,3.584c-0.348,1.177-1.023,2.56-2.026,4.146c-1.003,1.588-1.978,2.667-2.923,3.236
			c-0.946,0.57-2.016,0.856-3.212,0.856c-1.804,0-2.969-0.445-3.495-1.338c-0.864-1.391-1.137-2.621-0.817-3.691
			c0.105-0.569,0.425-1.89,0.958-3.958c0.071-0.285,0.088-0.927,0.053-1.927c0-0.855-0.089-1.568-0.267-2.14
			c-0.177-0.569-0.567-0.855-1.171-0.855c-1.456,0-2.699,0.348-3.729,1.044c-1.029,0.694-1.909,1.604-2.636,2.728
			c-0.728,1.124-1.447,2.711-2.157,4.762s-1.216,3.771-1.518,5.161s-0.489,2.721-0.56,3.986c-0.071,1.267-0.106,2.327-0.106,3.182
			c0,1.285,0.115,2.621,0.346,4.012c0.231,1.391,0.692,2.668,1.384,3.826c0.692,1.16,1.589,2.121,2.69,2.889
			s2.521,1.148,4.261,1.148c1.712,0,3.602-0.525,5.67-1.576c2.068-1.053,4.146-2.381,6.232-3.986
			c2.087-1.604,4.074-3.369,5.964-5.295c1.891-1.926,8.831-10.025,10.187-11.737v10.956c-2.675,3.816-7.19,8.752-10.293,11.748
			c-1.319,1.283-2.754,2.531-4.306,3.744c-1.552,1.213-3.175,2.291-4.868,3.236c-1.694,0.945-3.459,1.711-5.296,2.301
			C185.503,337.137,183.644,337.432,181.76,337.432z"/>
		<path d="M249.887,325.447c-3.429,1.998-6.482,3.744-9.16,5.244c-2.679,1.496-5.063,2.746-7.151,3.744
			c-2.09,0.998-3.946,1.746-5.571,2.246s-3.098,0.75-4.419,0.75c-2.696,0-5.073-0.822-7.13-2.461
			c-2.058-1.641-3.778-4.004-5.161-7.088c-1.383-3.086-2.421-6.822-3.112-11.209c-0.692-4.385-1.037-9.324-1.037-14.816
			c0-2.141,0.087-4.422,0.265-6.847c0.176-2.426,0.424-4.833,0.742-7.223c-1.077-0.159-1.913-0.308-2.504-0.446
			c-0.592-0.139-1.221-0.278-1.885-0.417s-1.508-0.287-2.531-0.447c-1.023-0.158-2.504-0.355-4.442-0.596
			c-0.861-0.118-1.525-0.345-1.993-0.683c-0.466-0.338-0.807-0.734-1.023-1.191c-0.214-0.456-0.34-0.933-0.377-1.43
			c-0.035-0.496-0.053-0.923-0.053-1.28c0-0.562,0.35-0.992,1.048-1.287c0.7-0.296,1.596-0.519,2.689-0.667
			c1.093-0.147,2.294-0.229,3.603-0.248c1.309-0.018,2.563-0.009,3.765,0.025c1.2,0.037,2.276,0.063,3.226,0.081
			c0.95,0.019,1.604-0.009,1.963-0.078c0.961-4.802,2.18-9.452,3.658-13.951c1.478-4.497,3.132-8.498,4.966-12.002
			c1.833-3.502,3.836-6.311,6.008-8.428c2.171-2.116,4.45-3.174,6.835-3.174c1.535,0,2.935,0.428,4.202,1.282
			c1.268,0.855,2.346,1.996,3.239,3.421c0.892,1.425,1.579,3.091,2.061,4.996c0.481,1.907,0.723,3.894,0.723,5.958
			c0,1.712-0.25,3.517-0.75,5.417c-0.5,1.902-1.178,3.839-2.034,5.809c-0.856,1.972-1.864,3.97-3.023,5.992
			c-1.159,2.023-2.381,4.029-3.665,6.019c0.321-0.118,0.857-0.141,1.607-0.069c0.749,0.073,1.614,0.123,2.596,0.152
			c0.98,0.027,2.041,0.056,3.183,0.085c1.141,0.028,2.247,0.061,3.316,0.096c1.07,0.036,2.068,0.071,2.996,0.107
			c0.927,0.035,1.693,0.072,2.301,0.106c0.713,0.041,1.23,0.438,1.551,1.191c0.321,0.754,0.481,1.707,0.481,2.858
			c0,1.332-0.358,2.417-1.072,3.254c-0.714,0.838-1.5,1.256-2.356,1.256h-20.564c-1.039,1.427-2.087,2.827-3.144,4.199
			c-1.057,1.374-2.033,2.612-2.928,3.717c-0.143,2.212-0.268,4.388-0.375,6.527c-0.036,0.928-0.072,1.882-0.107,2.862
			c-0.036,0.98-0.072,1.952-0.106,2.915c-0.037,0.963-0.063,1.891-0.081,2.782c-0.019,0.891-0.027,1.711-0.027,2.46
			c0,1.926,0.179,3.549,0.537,4.867c0.358,1.32,0.877,2.398,1.558,3.238c0.68,0.838,1.512,1.443,2.497,1.816
			c0.985,0.375,2.085,0.562,3.303,0.562c0.749,0,1.686-0.178,2.811-0.535c1.125-0.355,2.355-0.846,3.695-1.471
			c1.339-0.623,2.749-1.365,4.23-2.221c1.481-0.855,2.944-1.791,4.39-2.809c1.447-1.016,2.83-2.084,4.15-3.209
			c1.321-1.123,2.517-2.272,3.588-3.449V325.447z M232.769,257.706c0-0.39-0.027-0.824-0.081-1.304
			c-0.053-0.479-0.169-0.932-0.348-1.359c-0.179-0.425-0.457-0.78-0.833-1.064c-0.376-0.285-0.904-0.427-1.584-0.427
			c-0.931,0-1.872,0.814-2.82,2.443c-0.949,1.628-1.861,3.708-2.739,6.239c-0.878,2.532-1.701,5.32-2.47,8.365
			c-0.77,3.045-1.477,6.001-2.121,8.868c0.536,0.054,1.074,0.101,1.61,0.141c0.537,0.039,1.092,0.085,1.666,0.138
			c1.074-1.797,2.193-3.743,3.356-5.84c1.164-2.096,2.21-4.158,3.141-6.184s1.701-3.921,2.31-5.683
			C232.464,260.279,232.769,258.835,232.769,257.706z"/>
		<path d="M278.613,296.187c1.034,2.068,1.81,4.253,2.327,6.554c0.517,2.3,0.776,4.894,0.776,7.782c0,2.105-0.233,4.227-0.696,6.366
			c-0.464,2.139-1.132,4.209-2.006,6.205c-0.874,1.998-1.944,3.869-3.209,5.617c-1.266,1.748-2.711,3.262-4.333,4.547
			c-1.623,1.283-3.396,2.301-5.322,3.049c-1.926,0.748-3.977,1.125-6.152,1.125c-3.139,0-5.823-0.688-8.051-2.061
			c-2.229-1.373-4.058-3.164-5.483-5.377c-1.427-2.211-2.47-4.707-3.129-7.488c-0.66-2.781-0.989-5.6-0.989-8.452
			c0-4.707,0.588-8.764,1.765-12.17c1.176-3.405,2.862-6.366,5.055-8.88c2.194-2.515,4.876-4.493,8.051-5.938
			c3.173-1.444,6.74-2.166,10.699-2.166c3.388,0,6.562,0.526,9.522,1.578c2.96,1.053,5.732,2.46,8.318,4.226
			c2.585,1.766,4.993,3.985,7.222,6.66c2.229,2.675,4.307,5.225,6.232,7.65l-1.017,7.542c-0.963-1.283-2.265-2.675-3.905-4.173
			c-1.641-1.497-3.379-3.155-5.216-4.975c-1.837-1.818-3.646-3.36-5.429-4.627c-1.784-1.266-3.317-2.327-4.601-3.183
			L278.613,296.187z M262.083,327.158c1.212,0,2.389-0.613,3.531-1.844c1.141-1.23,2.14-2.781,2.996-4.654
			c0.856-1.873,1.542-4.137,2.06-6.794c0.517-2.656,0.776-5.02,0.776-7.088c0-1.64-0.125-3.164-0.375-4.573
			c-0.25-1.408-0.625-2.63-1.124-3.664c-0.5-1.035-1.142-1.854-1.925-2.462c-0.785-0.605-1.731-0.909-2.835-0.909
			c-1.463,0-2.854,0.625-4.173,1.873c-1.32,1.248-2.479,2.845-3.477,4.787c-1,1.944-1.784,4.093-2.354,6.446
			c-0.571,2.354-0.856,5.011-0.856,7.97c0,1.498,0.142,2.908,0.428,4.227c0.285,1.32,0.73,2.471,1.337,3.451
			c0.606,0.98,1.409,1.764,2.407,2.354C259.498,326.865,260.693,327.158,262.083,327.158z"/>
		<path d="M289.847,266.222c-2.319,4.229-4.386,7.4-6.205,9.515c-1.819,2.115-3.298,3.172-4.44,3.172
			c-1.569,0-2.354-1.8-2.354-5.403c0-3.494,0.5-6.633,1.498-9.415c0.999-2.781,2.399-5.251,4.2-7.409
			c1.801-2.156,3.94-3.993,6.419-5.509c2.478-1.516,5.188-2.765,8.131-3.745c2.942-0.979,6.053-1.703,9.335-2.167
			c3.28-0.463,6.65-0.695,10.11-0.695c4.029,0,8.078,0.294,12.143,0.881c4.066,0.587,7.971,1.415,11.716,2.482
			c3.744,1.066,7.239,2.357,10.485,3.867c3.244,1.513,6.071,3.186,8.479,5.018s4.297,3.815,5.67,5.95s2.06,4.358,2.06,6.671
			c0,2.752-0.598,5.471-1.792,8.152c-1.195,2.682-3.067,5.104-5.617,7.267s-5.812,3.943-9.789,5.337
			c-3.977,1.395-8.746,2.145-14.31,2.253c3.53,0,6.614,0.574,9.255,1.722c2.639,1.148,4.85,2.696,6.633,4.647
			c1.783,1.95,3.12,4.282,4.012,6.997c0.891,2.715,1.338,5.476,1.338,8.282c0,2.21-0.304,4.456-0.91,6.737s-1.516,4.475-2.728,6.58
			c-1.213,2.104-2.729,4.078-4.548,5.92c-1.818,1.842-3.949,3.447-6.393,4.816c-2.443,1.367-5.197,2.447-8.264,3.238
			c-3.068,0.787-6.438,1.184-10.111,1.184c-2.318,0-4.761-0.141-7.328-0.42c-2.568-0.279-5.162-0.658-7.784-1.135
			c-2.621-0.48-5.198-1.047-7.73-1.705c-2.533-0.658-4.921-1.367-7.168-2.123c-0.999-0.23-1.882-0.576-2.648-1.037
			c-0.767-0.461-1.149-1.283-1.149-2.469c0-5.994,0.151-12.131,0.454-18.412c0.303-6.281,0.918-12.501,1.846-18.656
			c0.927-6.154,2.175-11.509,3.745-16.057c1.569-4.549,3.798-8.972,6.687-13.269c2.532-1.754,4.832-2.631,6.901-2.631
			c2.603,0,4.779,1.468,6.526,4.403c-1.641,2.242-3.041,4.735-4.199,7.483c-1.159,2.749-2.042,5.188-2.647,7.321
			c-0.607,2.133-1.15,4.772-1.632,7.916c-0.481,3.146-0.865,6.218-1.15,9.219c-0.179,1.698-0.33,3.588-0.454,5.667
			c-0.126,2.079-0.241,4.112-0.348,6.101c-0.107,1.989-0.187,3.969-0.241,5.938c-0.053,1.971-0.08,3.859-0.08,5.666
			c0,0.291,0,0.693,0,1.203c0,0.512,0.044,1.039,0.134,1.586c0.088,0.547,0.205,1.049,0.347,1.504s0.356,0.793,0.642,1.01
			c2.175,0.73,4.511,1.352,7.008,1.861c2.495,0.51,4.992,0.764,7.489,0.764c3.031,0,5.973-0.373,8.826-1.121
			c2.854-0.746,5.385-1.932,7.597-3.553c2.211-1.621,3.985-3.699,5.323-6.232c1.337-2.533,2.006-5.768,2.006-9.704
			c0-2.112-0.394-3.871-1.178-5.275c-0.785-1.402-1.811-2.577-3.076-3.524c-1.266-0.948-2.71-1.705-4.332-2.271
			c-1.623-0.564-3.281-1.074-4.975-1.529c-1.695-0.456-3.354-0.9-4.976-1.335c-1.624-0.435-3.067-0.987-4.333-1.656
			c-1.267-0.669-2.292-1.502-3.076-2.497c-0.785-0.996-1.177-2.289-1.177-3.883c0-0.749,0.044-1.399,0.134-1.952
			c0.088-0.553,0.303-1.008,0.642-1.365c0.339-0.355,0.837-0.623,1.498-0.801c0.659-0.18,1.56-0.269,2.702-0.269
			c1.532,0,2.933,0.063,4.199,0.188c1.265,0.125,2.629,0.188,4.092,0.188c3.424,0,6.518-0.421,9.281-1.262
			c2.764-0.84,5.117-1.978,7.061-3.409s3.441-3.105,4.494-5.021c1.051-1.914,1.578-3.964,1.578-6.148c0-1.432-0.41-2.747-1.23-3.945
			c-0.82-1.2-1.971-2.272-3.45-3.222c-1.48-0.948-3.219-1.781-5.216-2.497c-1.998-0.715-4.172-1.315-6.526-1.799
			c-2.354-0.483-4.833-0.842-7.436-1.073c-2.604-0.233-5.242-0.35-7.917-0.35c-4.316,0-7.668,0.144-10.057,0.431
			c-3.282,0.358-6.339,0.922-9.175,1.693c-2.835,0.771-5.349,1.765-7.543,2.982C292.656,263.301,290.988,264.681,289.847,266.222z"
			/>
		<path d="M387.742,338.338l1.176-6.465c-1.925,1.693-3.932,3.061-6.018,4.104c-2.086,1.041-4.111,1.561-6.071,1.561
			c-1.712,0-3.38-0.348-5.002-1.043c-1.623-0.695-3.059-1.693-4.307-2.994c-1.249-1.303-2.246-2.891-2.995-4.762
			c-0.749-1.873-1.123-3.986-1.123-6.34c0-3.104,0.213-5.945,0.641-8.53c0.427-2.586,0.955-5.777,1.582-9.575
			s1.367-6.796,2.223-8.988c0.855-2.193,1.836-4.413,2.941-6.66c0.818-1.605,1.996-2.826,3.529-3.665
			c1.533-0.838,3.029-1.258,4.492-1.258c1.246,0,2.316,0.313,3.207,0.937c0.892,0.625,1.338,1.598,1.338,2.918
			c0,0.393-0.045,0.821-0.132,1.285s-0.236,0.964-0.446,1.497c-0.63,1.643-1.162,3.594-1.595,5.854s-1.011,5.276-1.733,9.044
			c-0.721,3.77-1.294,6.758-1.718,8.966c-0.423,2.209-0.636,4.178-0.636,5.908c0,0.9,0.062,1.775,0.188,2.621
			c0.125,0.848,0.348,1.604,0.669,2.271s0.749,1.207,1.284,1.621s1.211,0.623,2.033,0.623c1.318,0,2.514-0.576,3.583-1.725
			c1.07-1.148,1.997-2.531,2.782-4.148c0.784-1.615,1.418-3.285,1.898-5.01c0.482-1.724,0.794-3.16,0.937-4.311l4.286-20.005
			c0.25-1.178,0.75-2.248,1.5-3.21c0.715-0.93,1.555-1.722,2.52-2.382c0.964-0.659,1.964-1.15,3-1.472
			c1.035-0.32,2.018-0.481,2.947-0.481c1.106,0,2.035,0.242,2.785,0.724c0.75,0.482,1.125,1.24,1.125,2.276
			c0,0.321-0.053,0.696-0.16,1.124c-0.167,0.95-0.39,2.224-0.669,3.824c-0.28,1.6-0.599,3.42-0.954,5.46
			c-0.356,2.039-0.855,4.899-1.494,8.579c-0.641,3.68-1.159,6.64-1.559,8.879c-0.904,5.295-1.824,10.982-2.764,17.064
			c1.083-0.605,2.252-1.354,3.505-2.244c1.253-0.893,2.646-2.086,4.18-3.582c1.533-1.496,3.245-3.375,5.136-5.639
			c1.891-2.262,9.531-13.041,11.885-16.427v16.435c-0.642,1.096-4.414,5.641-5.412,6.773c-1.07,1.205-2.211,2.375-3.424,3.508
			c-1.783,1.629-3.067,2.727-3.852,3.293c-0.25,0.178-1.551,1.201-3.904,3.072c-0.714,0.605-3.074,2.246-7.084,4.92
			c-0.976,0.641-1.644,1.811-2.005,3.502c-0.36,1.695-0.776,4.842-1.245,9.439c-0.205,1.312-0.334,2.322-0.385,3.031
			c-0.217,1.705-0.422,3.326-0.617,4.869s-0.542,3.305-1.04,5.285c-0.499,1.979-1.086,3.799-1.762,5.459
			c-0.677,1.658-1.567,3.309-2.67,4.949c-1.104,1.641-2.323,3.041-3.657,4.201c-1.335,1.16-2.945,2.094-4.832,2.809
			s-3.951,1.07-6.192,1.07c-1.815,0-3.497-0.205-5.046-0.615c-1.547-0.408-2.963-1.041-4.244-1.895
			c-1.281-0.855-2.33-2.023-3.148-3.502c-0.82-1.479-1.301-3.215-1.442-5.211c-0.286-3.775,0.749-7.766,3.103-11.969
			c1.318-2.352,2.246-3.98,2.782-4.889c0.534-0.91,1.372-2.219,2.514-3.928c1.142-1.676,2.335-3.189,3.585-4.543
			c2.495-2.814,4.555-5.076,6.178-6.785C383.561,342.133,385.494,340.299,387.742,338.338z M387.931,351.234
			c-2.502,1.783-4.968,4.637-7.396,8.559c-2.43,3.922-4.358,7.916-5.788,11.982c-1.18,3.422-0.592,5.135,1.762,5.135
			c0.855,0,1.623-0.107,2.301-0.322c0.676-0.213,1.301-0.598,1.872-1.15c0.569-0.553,1.069-1.158,1.497-1.818
			c0.429-0.66,0.883-1.586,1.365-2.781c0.48-1.195,0.909-2.373,1.283-3.531c0.375-1.158,0.847-2.701,1.418-4.627
			c0.32-1.035,0.559-2.188,0.715-3.455c0.155-1.271,0.34-2.797,0.557-4.576C387.731,352.865,387.871,351.729,387.931,351.234z"/>
		<path d="M463.169,325.447c-3.429,1.998-6.482,3.744-9.161,5.244c-2.678,1.496-5.062,2.746-7.15,3.744
			c-2.09,0.998-3.946,1.746-5.571,2.246s-3.099,0.75-4.419,0.75c-2.697,0-5.072-0.822-7.131-2.461
			c-2.057-1.641-3.777-4.004-5.16-7.088c-1.384-3.086-2.422-6.822-3.112-11.209c-0.691-4.385-1.038-9.324-1.038-14.816
			c0-2.141,0.089-4.422,0.266-6.847c0.176-2.426,0.424-4.833,0.742-7.223c-1.077-0.159-1.912-0.308-2.504-0.446
			c-0.593-0.139-1.221-0.278-1.885-0.417s-1.508-0.287-2.531-0.447c-1.023-0.158-2.504-0.355-4.442-0.596
			c-0.86-0.118-1.525-0.345-1.993-0.683c-0.465-0.338-0.807-0.734-1.023-1.191c-0.213-0.456-0.34-0.933-0.376-1.43
			c-0.035-0.496-0.054-0.923-0.054-1.28c0-0.562,0.351-0.992,1.049-1.287c0.699-0.296,1.595-0.519,2.688-0.667
			c1.093-0.147,2.294-0.229,3.603-0.248c1.309-0.018,2.563-0.009,3.765,0.025c1.2,0.037,2.275,0.063,3.226,0.081
			c0.95,0.019,1.605-0.009,1.963-0.078c0.961-4.802,2.181-9.452,3.658-13.951c1.478-4.497,3.133-8.498,4.967-12.002
			c1.833-3.502,3.836-6.311,6.007-8.428c2.172-2.116,4.45-3.174,6.836-3.174c1.534,0,2.935,0.428,4.201,1.282
			c1.268,0.855,2.347,1.996,3.239,3.421c0.892,1.425,1.579,3.091,2.061,4.996c0.48,1.907,0.723,3.894,0.723,5.958
			c0,1.712-0.25,3.517-0.75,5.417c-0.5,1.902-1.178,3.839-2.033,5.809c-0.856,1.972-1.863,3.97-3.023,5.992
			c-1.159,2.023-2.381,4.029-3.665,6.019c0.321-0.118,0.857-0.141,1.606-0.069c0.75,0.073,1.615,0.123,2.596,0.152
			c0.98,0.027,2.041,0.056,3.184,0.085c1.141,0.028,2.246,0.061,3.316,0.096c1.07,0.036,2.068,0.071,2.996,0.107
			c0.927,0.035,1.693,0.072,2.301,0.106c0.712,0.041,1.229,0.438,1.551,1.191c0.32,0.754,0.481,1.707,0.481,2.858
			c0,1.332-0.358,2.417-1.072,3.254c-0.714,0.838-1.499,1.256-2.356,1.256h-20.564c-1.039,1.427-2.087,2.827-3.143,4.199
			c-1.057,1.374-2.033,2.612-2.928,3.717c-0.144,2.212-0.268,4.388-0.375,6.527c-0.036,0.928-0.072,1.882-0.107,2.862
			s-0.072,1.952-0.107,2.915s-0.062,1.891-0.08,2.782c-0.018,0.891-0.025,1.711-0.025,2.46c0,1.926,0.178,3.549,0.536,4.867
			c0.356,1.32,0.877,2.398,1.558,3.238c0.681,0.838,1.512,1.443,2.496,1.816c0.984,0.375,2.086,0.562,3.304,0.562
			c0.749,0,1.687-0.178,2.812-0.535c1.123-0.355,2.355-0.846,3.694-1.471c1.339-0.623,2.749-1.365,4.229-2.221
			c1.482-0.855,2.945-1.791,4.392-2.809c1.445-1.016,2.829-2.084,4.149-3.209c1.32-1.123,2.517-2.272,3.589-3.449V325.447z
			 M446.051,257.706c0-0.39-0.027-0.824-0.082-1.304c-0.053-0.479-0.17-0.932-0.348-1.359c-0.18-0.425-0.457-0.78-0.832-1.064
			c-0.377-0.285-0.905-0.427-1.585-0.427c-0.931,0-1.872,0.814-2.819,2.443c-0.949,1.628-1.861,3.708-2.74,6.239
			c-0.877,2.532-1.7,5.32-2.469,8.365c-0.77,3.045-1.478,6.001-2.122,8.868c0.536,0.054,1.074,0.101,1.61,0.141
			c0.537,0.039,1.092,0.085,1.666,0.138c1.073-1.797,2.193-3.743,3.356-5.84c1.163-2.096,2.21-4.158,3.142-6.184
			c0.931-2.025,1.699-3.921,2.309-5.683C445.745,260.279,446.051,258.835,446.051,257.706z"/>
		<path d="M476.997,337.432c-3.331,0-6.244-0.617-8.741-1.852c-2.498-1.234-4.579-2.896-6.244-4.982
			c-1.665-2.088-2.914-4.502-3.746-7.242s-1.249-5.617-1.249-8.63c0-1.971,0.372-4.32,1.118-7.048
			c0.744-2.729,1.516-5.149,2.314-7.261c0.797-2.111,1.799-4.127,3.006-6.046c1.205-1.917,2.615-3.606,4.229-5.067
			s3.423-2.622,5.427-3.485c2.005-0.862,4.23-1.294,6.678-1.294c2,0,3.856,0.322,5.569,0.962c1.714,0.642,3.205,1.541,4.472,2.698
			c1.268,1.158,2.259,2.557,2.973,4.194c0.714,1.639,1.071,3.474,1.071,5.503c0,2.162-0.724,4.586-2.171,7.271
			s-3.137,4.987-5.066,6.904c-1.93,1.919-4.227,3.627-6.889,5.127s-5.548,2.668-8.657,3.504c0.536,0.941,1.064,1.727,1.583,2.354
			c0.52,0.629,1.047,1.117,1.584,1.465c0.537,0.35,1.102,0.594,1.691,0.732c0.591,0.141,1.227,0.209,1.906,0.209
			c2.141,0,4.396-0.416,6.768-1.256c2.371-0.836,4.681-1.883,6.928-3.137c2.246-1.256,4.368-2.625,6.365-4.107
			s3.691-2.884,5.082-4.21c0,0,0.428,13.308-3.102,15.878c-1.535,1.102-3.184,2.186-4.949,3.252
			c-1.766,1.064-3.62,2.012-5.563,2.838c-1.944,0.824-3.958,1.484-6.045,1.98C481.253,337.184,479.139,337.432,476.997,337.432z
			 M469.855,311.952c1.289,0,2.693-0.321,4.215-0.967c1.521-0.645,2.935-1.474,4.242-2.484c1.307-1.012,2.586-2.372,3.84-4.08
			c1.252-1.709,1.879-3.121,1.879-4.238c0-1.568-0.297-2.857-0.886-3.87c-0.591-1.011-1.315-1.517-2.175-1.517
			c-1.539,0-2.855,0.279-3.947,0.837c-1.092,0.559-2.004,1.282-2.738,2.171c-0.733,0.891-1.324,1.9-1.771,3.033
			c-0.448,1.134-0.967,2.537-1.558,4.211s-0.922,3.052-0.993,4.132C469.891,310.262,469.855,311.186,469.855,311.952z"/>
		<path d="M497.844,317.24c1.997-1.73,3.619-3.171,4.868-4.325c1.248-1.153,2.495-2.495,3.745-4.028
			c1.248-1.532,2.236-2.784,2.969-3.758c0.73-0.974,1.596-2.127,2.594-3.461s2.211-2.964,3.638-4.895
			c1.427-1.928,3.28-4.333,5.563-7.219c0.463-0.648,0.98-1.278,1.552-1.893c0.569-0.612,1.203-1.163,1.899-1.649
			c0.695-0.485,1.461-0.882,2.3-1.188c0.837-0.307,1.772-0.461,2.809-0.461c1.713,0,3.032,0.189,3.961,0.568
			c0.927,0.379,1.604,0.839,2.032,1.378c0.428,0.542,0.678,1.109,0.749,1.704s0.106,1.108,0.106,1.541
			c0,0.866-0.339,1.82-1.016,2.865c-0.678,1.046-1.428,2.056-2.246,3.028c-0.822,0.974-1.598,1.867-2.328,2.677
			c-0.731,0.812-1.15,1.415-1.259,1.812c0,1.118,0.08,2.136,0.244,3.055c0.164,0.92,0.382,1.821,0.655,2.704
			c0.273,0.884,0.556,1.82,0.846,2.812c0.291,0.992,0.57,2.137,0.838,3.434c0.268,1.298,0.303,3.082,0.107,5.354
			c-0.197,2.273-0.295,4.561-0.295,6.867c1.284-0.865,2.666-1.648,4.146-2.354c1.479-0.701,3.021-1.432,4.627-2.188
			c1.605-0.758,3.254-1.596,4.948-2.516c1.693-0.918,3.397-2.027,5.108-3.325l0.054,12.112c-2.212,1.65-4.771,3.199-7.677,4.643
			c-2.906,1.445-5.963,2.719-9.168,3.818c-3.207,1.1-6.441,1.969-9.705,2.604c-3.262,0.635-6.356,0.955-9.28,0.955
			c-2.104,0-4.065-0.188-5.885-0.562c-1.818-0.377-3.415-0.965-4.787-1.766c-1.374-0.803-2.487-1.852-3.344-3.146
			c-0.855-1.297-1.373-2.865-1.552-4.707c-0.5,0.109-0.989,0.18-1.471,0.217S497.236,328,496.773,328
			c-0.57,0-1.105-0.016-1.604-0.053c-0.499-0.035-0.927-0.172-1.284-0.404c-0.356-0.234-0.641-0.613-0.855-1.137
			s-0.32-1.27-0.32-2.244c0-0.865,0.213-1.668,0.641-2.406c0.429-0.738,0.928-1.396,1.498-1.975c0.57-0.576,1.141-1.08,1.712-1.514
			C497.13,317.836,497.558,317.492,497.844,317.24z M504.52,324.162c0.428,0,0.9,0.27,1.418,0.811
			c0.517,0.541,1.114,1.135,1.791,1.785c0.678,0.648,1.463,1.242,2.354,1.785c0.892,0.539,1.907,0.811,3.05,0.811
			c1.391,0,2.541-0.234,3.449-0.703c0.91-0.469,1.632-1.09,2.167-1.867c0.534-0.773,0.909-1.676,1.124-2.703
			c0.213-1.027,0.32-2.1,0.32-3.219c0-0.971-0.062-1.961-0.188-2.973c-0.125-1.008-0.107-2.262,0.054-3.757
			c0.161-1.496,0.124-2.65-0.106-3.461c-0.232-0.811-0.438-1.506-0.615-2.082L504.52,324.162z"/>
	</g>
	<g>
		<g>
			<path fill="#FFFFFF" d="M107.498,343.701c-5.314,0-10.102-1.078-14.363-3.234c-4.262-2.156-7.89-5.168-10.886-9.039
				c-2.996-3.869-5.296-8.48-6.9-13.836c-1.605-5.354-2.407-11.228-2.407-17.626c0-3.445,0.249-6.979,0.749-10.605
				c0.499-3.624,1.257-7.241,2.273-10.847c1.016-3.607,2.282-7.141,3.798-10.605c1.515-3.462,3.28-6.738,5.296-9.824
				c2.015-3.087,4.27-5.93,6.767-8.532c2.496-2.603,5.251-4.846,8.265-6.729c3.014-1.885,6.259-3.354,9.736-4.414
				c3.477-1.059,7.212-1.588,11.207-1.588c5.35,0,10.138,0.969,14.363,2.904c4.226,1.936,7.792,4.643,10.699,8.121
				c2.906,3.478,5.135,7.629,6.687,12.45c1.551,4.823,2.327,10.139,2.327,15.947c0,4.764-0.473,9.732-1.418,14.904
				c-0.945,5.174-2.327,10.257-4.146,15.252s-4.084,9.749-6.793,14.265c-2.711,4.516-5.832,8.48-9.362,11.893
				s-7.462,6.123-11.795,8.133C117.26,342.697,112.561,343.701,107.498,343.701z M108.781,331.291c2.853,0,5.51-0.557,7.971-1.672
				c2.461-1.113,4.716-2.641,6.767-4.582s3.923-4.215,5.617-6.82c1.693-2.605,3.2-5.4,4.521-8.384
				c1.319-2.984,2.469-6.074,3.451-9.274c0.98-3.198,1.792-6.362,2.434-9.489s1.114-6.137,1.417-9.032
				c0.303-2.893,0.455-5.526,0.455-7.897c0-3.45-0.375-6.694-1.124-9.732c-0.749-3.037-1.881-5.679-3.396-7.925
				c-1.517-2.247-3.423-4.018-5.724-5.311c-2.301-1.294-4.984-1.941-8.051-1.941c-3.282,0-6.456,0.801-9.522,2.4
				c-3.068,1.6-5.957,3.756-8.667,6.469c-2.71,2.715-5.188,5.859-7.436,9.437c-2.247,3.576-4.172,7.343-5.777,11.295
				c-1.605,3.953-2.854,7.979-3.745,12.078c-0.892,4.098-1.337,8.015-1.337,11.752c0,4.063,0.508,7.846,1.524,11.349
				c1.017,3.506,2.479,6.533,4.387,9.086c1.907,2.551,4.226,4.555,6.955,6.012C102.228,330.562,105.322,331.291,108.781,331.291z"/>
			<path fill="#FFFFFF" d="M177.76,333.432c-3.303,0-6.202-0.607-8.697-1.82c-2.495-1.211-4.586-2.836-6.273-4.867
				c-1.687-2.033-2.962-4.387-3.823-7.061c-0.862-2.676-1.292-5.457-1.292-8.346c0-2.067,0.357-4.548,1.075-7.436
				c0.717-2.889,1.497-5.411,2.34-7.569c0.842-2.158,1.881-4.218,3.118-6.18c1.237-1.96,2.67-3.682,4.302-5.161
				c1.631-1.479,3.451-2.657,5.459-3.53c2.007-0.874,4.212-1.312,6.614-1.312c2.163,0,4.164,0.312,6.005,0.937
				c1.84,0.625,3.416,1.489,4.724,2.594c1.309,1.106,2.333,2.417,3.074,3.932c0.739,1.517,1.109,3.148,1.109,4.896
				c0,1.213-0.173,2.407-0.521,3.584c-0.348,1.177-1.023,2.56-2.026,4.146c-1.003,1.588-1.978,2.667-2.923,3.236
				c-0.946,0.57-2.016,0.856-3.212,0.856c-1.804,0-2.969-0.445-3.495-1.338c-0.864-1.391-1.137-2.621-0.817-3.691
				c0.105-0.569,0.425-1.89,0.958-3.958c0.071-0.285,0.088-0.927,0.053-1.927c0-0.855-0.089-1.568-0.267-2.14
				c-0.177-0.569-0.567-0.855-1.171-0.855c-1.456,0-2.699,0.348-3.729,1.044c-1.029,0.694-1.909,1.604-2.636,2.728
				c-0.728,1.124-1.447,2.711-2.157,4.762s-1.216,3.771-1.518,5.161s-0.489,2.721-0.56,3.986c-0.071,1.267-0.106,2.327-0.106,3.182
				c0,1.285,0.115,2.621,0.346,4.012c0.231,1.391,0.692,2.668,1.384,3.826c0.692,1.16,1.589,2.121,2.69,2.889
				s2.521,1.148,4.261,1.148c1.712,0,3.602-0.525,5.67-1.576c2.068-1.053,4.146-2.381,6.232-3.986
				c2.087-1.604,4.074-3.369,5.964-5.295c1.891-1.926,8.831-10.025,10.187-11.737v10.956c-2.675,3.816-7.19,8.752-10.293,11.748
				c-1.319,1.283-2.754,2.531-4.306,3.744c-1.552,1.213-3.175,2.291-4.868,3.236c-1.694,0.945-3.459,1.711-5.296,2.301
				C181.503,333.137,179.644,333.432,177.76,333.432z"/>
			<path fill="#FFFFFF" d="M245.887,321.447c-3.429,1.998-6.482,3.744-9.16,5.244c-2.679,1.496-5.063,2.746-7.151,3.744
				c-2.09,0.998-3.946,1.746-5.571,2.246s-3.098,0.75-4.419,0.75c-2.696,0-5.073-0.822-7.13-2.461
				c-2.058-1.641-3.778-4.004-5.161-7.088c-1.383-3.086-2.421-6.822-3.112-11.209c-0.692-4.385-1.037-9.324-1.037-14.816
				c0-2.141,0.087-4.422,0.265-6.847c0.176-2.426,0.424-4.833,0.742-7.223c-1.077-0.159-1.913-0.308-2.504-0.446
				c-0.592-0.139-1.221-0.278-1.885-0.417s-1.508-0.287-2.531-0.447c-1.023-0.158-2.504-0.355-4.442-0.596
				c-0.861-0.118-1.525-0.345-1.993-0.683c-0.466-0.338-0.807-0.734-1.023-1.191c-0.214-0.456-0.34-0.933-0.377-1.43
				c-0.035-0.496-0.053-0.923-0.053-1.28c0-0.562,0.35-0.992,1.048-1.287c0.7-0.296,1.596-0.519,2.689-0.667
				c1.093-0.147,2.294-0.229,3.603-0.248c1.309-0.018,2.563-0.009,3.765,0.025c1.2,0.037,2.276,0.063,3.226,0.081
				c0.95,0.019,1.604-0.009,1.963-0.078c0.961-4.802,2.18-9.452,3.658-13.951c1.478-4.497,3.132-8.498,4.966-12.002
				c1.833-3.502,3.836-6.311,6.008-8.428c2.171-2.116,4.45-3.174,6.835-3.174c1.535,0,2.935,0.428,4.202,1.282
				c1.268,0.855,2.346,1.996,3.239,3.421c0.892,1.425,1.579,3.091,2.061,4.996c0.481,1.907,0.723,3.894,0.723,5.958
				c0,1.712-0.25,3.517-0.75,5.417c-0.5,1.902-1.178,3.839-2.034,5.809c-0.856,1.972-1.864,3.97-3.023,5.992
				c-1.159,2.023-2.381,4.029-3.665,6.019c0.321-0.118,0.857-0.141,1.607-0.069c0.749,0.073,1.614,0.123,2.596,0.152
				c0.98,0.027,2.041,0.056,3.183,0.085c1.141,0.028,2.247,0.061,3.316,0.096c1.07,0.036,2.068,0.071,2.996,0.107
				c0.927,0.035,1.693,0.072,2.301,0.106c0.713,0.041,1.23,0.438,1.551,1.191c0.321,0.754,0.481,1.707,0.481,2.858
				c0,1.332-0.358,2.417-1.072,3.254c-0.714,0.838-1.5,1.256-2.356,1.256h-20.564c-1.039,1.427-2.087,2.827-3.144,4.199
				c-1.057,1.374-2.033,2.612-2.928,3.717c-0.143,2.212-0.268,4.388-0.375,6.527c-0.036,0.928-0.072,1.882-0.107,2.862
				c-0.036,0.98-0.072,1.952-0.106,2.915c-0.037,0.963-0.063,1.891-0.081,2.782c-0.019,0.891-0.027,1.711-0.027,2.46
				c0,1.926,0.179,3.549,0.537,4.867c0.358,1.32,0.877,2.398,1.558,3.238c0.68,0.838,1.512,1.443,2.497,1.816
				c0.985,0.375,2.085,0.562,3.303,0.562c0.749,0,1.686-0.178,2.811-0.535c1.125-0.355,2.355-0.846,3.695-1.471
				c1.339-0.623,2.749-1.365,4.23-2.221c1.481-0.855,2.944-1.791,4.39-2.809c1.447-1.016,2.83-2.084,4.15-3.209
				c1.321-1.123,2.517-2.272,3.588-3.449V321.447z M228.769,253.706c0-0.39-0.027-0.824-0.081-1.304
				c-0.053-0.479-0.169-0.932-0.348-1.359c-0.179-0.425-0.457-0.78-0.833-1.064c-0.376-0.285-0.904-0.427-1.584-0.427
				c-0.931,0-1.872,0.814-2.82,2.443c-0.949,1.628-1.861,3.708-2.739,6.239c-0.878,2.532-1.701,5.32-2.47,8.365
				c-0.77,3.045-1.477,6.001-2.121,8.868c0.536,0.054,1.074,0.101,1.61,0.141c0.537,0.039,1.092,0.085,1.666,0.138
				c1.074-1.797,2.193-3.743,3.356-5.84c1.164-2.096,2.21-4.158,3.141-6.184s1.701-3.921,2.31-5.683
				C228.464,256.279,228.769,254.835,228.769,253.706z"/>
			<path fill="#FFFFFF" d="M274.613,292.187c1.034,2.068,1.81,4.253,2.327,6.554c0.517,2.3,0.776,4.894,0.776,7.782
				c0,2.105-0.233,4.227-0.696,6.366c-0.464,2.139-1.132,4.209-2.006,6.205c-0.874,1.998-1.944,3.869-3.209,5.617
				c-1.266,1.748-2.711,3.262-4.333,4.547c-1.623,1.283-3.396,2.301-5.322,3.049c-1.926,0.748-3.977,1.125-6.152,1.125
				c-3.139,0-5.823-0.688-8.051-2.061c-2.229-1.373-4.058-3.164-5.483-5.377c-1.427-2.211-2.47-4.707-3.129-7.488
				c-0.66-2.781-0.989-5.6-0.989-8.452c0-4.707,0.588-8.764,1.765-12.17c1.176-3.405,2.862-6.366,5.055-8.88
				c2.194-2.515,4.876-4.493,8.051-5.938c3.173-1.444,6.74-2.166,10.699-2.166c3.388,0,6.562,0.526,9.522,1.578
				c2.96,1.053,5.732,2.46,8.318,4.226c2.585,1.766,4.993,3.985,7.222,6.66c2.229,2.675,4.307,5.225,6.232,7.65l-1.017,7.542
				c-0.963-1.283-2.265-2.675-3.905-4.173c-1.641-1.497-3.379-3.155-5.216-4.975c-1.837-1.818-3.646-3.36-5.429-4.627
				c-1.784-1.266-3.317-2.327-4.601-3.183L274.613,292.187z M258.083,323.158c1.212,0,2.389-0.613,3.531-1.844
				c1.141-1.23,2.14-2.781,2.996-4.654c0.856-1.873,1.542-4.137,2.06-6.794c0.517-2.656,0.776-5.02,0.776-7.088
				c0-1.64-0.125-3.164-0.375-4.573c-0.25-1.408-0.625-2.63-1.124-3.664c-0.5-1.035-1.142-1.854-1.925-2.462
				c-0.785-0.605-1.731-0.909-2.835-0.909c-1.463,0-2.854,0.625-4.173,1.873c-1.32,1.248-2.479,2.845-3.477,4.787
				c-1,1.944-1.784,4.093-2.354,6.446c-0.571,2.354-0.856,5.011-0.856,7.97c0,1.498,0.142,2.908,0.428,4.227
				c0.285,1.32,0.73,2.471,1.337,3.451c0.606,0.98,1.409,1.764,2.407,2.354C255.498,322.865,256.693,323.158,258.083,323.158z"/>
			<path fill="#FFFFFF" d="M285.847,262.222c-2.319,4.229-4.386,7.4-6.205,9.515c-1.819,2.115-3.298,3.172-4.44,3.172
				c-1.569,0-2.354-1.8-2.354-5.403c0-3.494,0.5-6.633,1.498-9.415c0.999-2.781,2.399-5.251,4.2-7.409
				c1.801-2.156,3.94-3.993,6.419-5.509c2.478-1.516,5.188-2.765,8.131-3.745c2.942-0.979,6.053-1.703,9.335-2.167
				c3.28-0.463,6.65-0.695,10.11-0.695c4.029,0,8.078,0.294,12.143,0.881c4.066,0.587,7.971,1.415,11.716,2.482
				c3.744,1.066,7.239,2.357,10.485,3.867c3.244,1.513,6.071,3.186,8.479,5.018s4.297,3.815,5.67,5.95s2.06,4.358,2.06,6.671
				c0,2.752-0.598,5.471-1.792,8.152c-1.195,2.682-3.067,5.104-5.617,7.267s-5.812,3.943-9.789,5.337
				c-3.977,1.395-8.746,2.145-14.31,2.253c3.53,0,6.614,0.574,9.255,1.722c2.639,1.148,4.85,2.696,6.633,4.647
				c1.783,1.95,3.12,4.282,4.012,6.997c0.891,2.715,1.338,5.476,1.338,8.282c0,2.21-0.304,4.456-0.91,6.737s-1.516,4.475-2.728,6.58
				c-1.213,2.104-2.729,4.078-4.548,5.92c-1.818,1.842-3.949,3.447-6.393,4.816c-2.443,1.367-5.197,2.447-8.264,3.238
				c-3.068,0.787-6.438,1.184-10.111,1.184c-2.318,0-4.761-0.141-7.328-0.42c-2.568-0.279-5.162-0.658-7.784-1.135
				c-2.621-0.48-5.198-1.047-7.73-1.705c-2.533-0.658-4.921-1.367-7.168-2.123c-0.999-0.23-1.882-0.576-2.648-1.037
				c-0.767-0.461-1.149-1.283-1.149-2.469c0-5.994,0.151-12.131,0.454-18.412c0.303-6.281,0.918-12.501,1.846-18.656
				c0.927-6.154,2.175-11.509,3.745-16.057c1.569-4.549,3.798-8.972,6.687-13.269c2.532-1.754,4.832-2.631,6.901-2.631
				c2.603,0,4.779,1.468,6.526,4.403c-1.641,2.242-3.041,4.735-4.199,7.483c-1.159,2.749-2.042,5.188-2.647,7.321
				c-0.607,2.133-1.15,4.772-1.632,7.916c-0.481,3.146-0.865,6.218-1.15,9.219c-0.179,1.698-0.33,3.588-0.454,5.667
				c-0.126,2.079-0.241,4.112-0.348,6.101c-0.107,1.989-0.187,3.969-0.241,5.938c-0.053,1.971-0.08,3.859-0.08,5.666
				c0,0.291,0,0.693,0,1.203c0,0.512,0.044,1.039,0.134,1.586c0.088,0.547,0.205,1.049,0.347,1.504s0.356,0.793,0.642,1.01
				c2.175,0.73,4.511,1.352,7.008,1.861c2.495,0.51,4.992,0.764,7.489,0.764c3.031,0,5.973-0.373,8.826-1.121
				c2.854-0.746,5.385-1.932,7.597-3.553c2.211-1.621,3.985-3.699,5.323-6.232c1.337-2.533,2.006-5.768,2.006-9.704
				c0-2.112-0.394-3.871-1.178-5.275c-0.785-1.402-1.811-2.577-3.076-3.524c-1.266-0.948-2.71-1.705-4.332-2.271
				c-1.623-0.564-3.281-1.074-4.975-1.529c-1.695-0.456-3.354-0.9-4.976-1.335c-1.624-0.435-3.067-0.987-4.333-1.656
				c-1.267-0.669-2.292-1.502-3.076-2.497c-0.785-0.996-1.177-2.289-1.177-3.883c0-0.749,0.044-1.399,0.134-1.952
				c0.088-0.553,0.303-1.008,0.642-1.365c0.339-0.355,0.837-0.623,1.498-0.801c0.659-0.18,1.56-0.269,2.702-0.269
				c1.532,0,2.933,0.063,4.199,0.188c1.265,0.125,2.629,0.188,4.092,0.188c3.424,0,6.518-0.421,9.281-1.262
				c2.764-0.84,5.117-1.978,7.061-3.409s3.441-3.105,4.494-5.021c1.051-1.914,1.578-3.964,1.578-6.148
				c0-1.432-0.41-2.747-1.23-3.945c-0.82-1.2-1.971-2.272-3.45-3.222c-1.48-0.948-3.219-1.781-5.216-2.497
				c-1.998-0.715-4.172-1.315-6.526-1.799c-2.354-0.483-4.833-0.842-7.436-1.073c-2.604-0.233-5.242-0.35-7.917-0.35
				c-4.316,0-7.668,0.144-10.057,0.431c-3.282,0.358-6.339,0.922-9.174,1.693c-2.835,0.771-5.349,1.765-7.543,2.982
				C288.656,259.301,286.988,260.681,285.847,262.222z"/>
			<path fill="#FFFFFF" d="M383.742,334.338l1.176-6.465c-1.925,1.693-3.932,3.061-6.018,4.104
				c-2.086,1.041-4.111,1.561-6.071,1.561c-1.712,0-3.38-0.348-5.002-1.043c-1.623-0.695-3.059-1.693-4.307-2.994
				c-1.249-1.303-2.246-2.891-2.995-4.762c-0.749-1.873-1.123-3.986-1.123-6.34c0-3.104,0.213-5.945,0.641-8.53
				c0.427-2.586,0.955-5.777,1.582-9.575s1.367-6.796,2.223-8.988c0.855-2.193,1.836-4.413,2.941-6.66
				c0.818-1.605,1.996-2.826,3.529-3.665c1.533-0.838,3.029-1.258,4.492-1.258c1.246,0,2.316,0.313,3.207,0.937
				c0.892,0.625,1.338,1.598,1.338,2.918c0,0.393-0.045,0.821-0.132,1.285s-0.236,0.964-0.446,1.497
				c-0.63,1.643-1.162,3.594-1.595,5.854s-1.011,5.276-1.733,9.044c-0.721,3.77-1.294,6.758-1.718,8.966
				c-0.423,2.209-0.636,4.178-0.636,5.908c0,0.9,0.062,1.775,0.188,2.621c0.125,0.848,0.348,1.604,0.669,2.271
				s0.749,1.207,1.284,1.621s1.211,0.623,2.033,0.623c1.318,0,2.514-0.576,3.583-1.725c1.07-1.148,1.997-2.531,2.782-4.148
				c0.784-1.615,1.418-3.285,1.898-5.01c0.482-1.724,0.794-3.16,0.937-4.311l4.286-20.005c0.25-1.178,0.75-2.248,1.5-3.21
				c0.715-0.93,1.555-1.722,2.52-2.382c0.964-0.659,1.964-1.15,3-1.472c1.035-0.32,2.018-0.481,2.947-0.481
				c1.106,0,2.035,0.242,2.785,0.724c0.75,0.482,1.125,1.24,1.125,2.276c0,0.321-0.053,0.696-0.16,1.124
				c-0.167,0.95-0.39,2.224-0.669,3.824c-0.28,1.6-0.599,3.42-0.954,5.46c-0.356,2.039-0.855,4.899-1.494,8.579
				c-0.641,3.68-1.159,6.64-1.559,8.879c-0.904,5.295-1.824,10.982-2.764,17.064c1.083-0.605,2.252-1.354,3.505-2.244
				c1.253-0.893,2.646-2.086,4.18-3.582c1.533-1.496,3.245-3.375,5.136-5.639c1.891-2.262,9.531-13.041,11.885-16.427v16.435
				c-0.642,1.096-4.414,5.641-5.412,6.773c-1.07,1.205-2.211,2.375-3.424,3.508c-1.783,1.629-3.067,2.727-3.852,3.293
				c-0.25,0.178-1.551,1.201-3.904,3.072c-0.714,0.605-3.074,2.246-7.084,4.92c-0.976,0.641-1.644,1.811-2.005,3.502
				c-0.36,1.695-0.776,4.842-1.245,9.439c-0.205,1.312-0.334,2.322-0.385,3.031c-0.217,1.705-0.422,3.326-0.617,4.869
				s-0.542,3.305-1.04,5.285c-0.499,1.979-1.086,3.799-1.762,5.459c-0.677,1.658-1.567,3.309-2.67,4.949
				c-1.104,1.641-2.323,3.041-3.657,4.201c-1.335,1.16-2.945,2.094-4.832,2.809s-3.951,1.07-6.192,1.07
				c-1.815,0-3.497-0.205-5.046-0.615c-1.547-0.408-2.963-1.041-4.244-1.895c-1.281-0.855-2.33-2.023-3.148-3.502
				c-0.82-1.479-1.301-3.215-1.442-5.211c-0.286-3.775,0.749-7.766,3.103-11.969c1.318-2.352,2.246-3.98,2.782-4.889
				c0.534-0.91,1.372-2.219,2.514-3.928c1.142-1.676,2.335-3.189,3.585-4.543c2.495-2.814,4.555-5.076,6.178-6.785
				C379.561,338.133,381.494,336.299,383.742,334.338z M383.931,347.234c-2.502,1.783-4.968,4.637-7.396,8.559
				c-2.43,3.922-4.358,7.916-5.788,11.982c-1.18,3.422-0.592,5.135,1.762,5.135c0.855,0,1.623-0.107,2.301-0.322
				c0.676-0.213,1.301-0.598,1.872-1.15c0.569-0.553,1.069-1.158,1.497-1.818c0.429-0.66,0.883-1.586,1.365-2.781
				c0.48-1.195,0.909-2.373,1.283-3.531c0.375-1.158,0.847-2.701,1.418-4.627c0.32-1.035,0.559-2.188,0.715-3.455
				c0.155-1.271,0.34-2.797,0.557-4.576C383.731,348.865,383.871,347.729,383.931,347.234z"/>
			<path fill="#FFFFFF" d="M459.169,321.447c-3.429,1.998-6.482,3.744-9.161,5.244c-2.678,1.496-5.062,2.746-7.15,3.744
				c-2.09,0.998-3.946,1.746-5.571,2.246s-3.099,0.75-4.419,0.75c-2.697,0-5.072-0.822-7.131-2.461
				c-2.057-1.641-3.777-4.004-5.16-7.088c-1.384-3.086-2.422-6.822-3.112-11.209c-0.691-4.385-1.038-9.324-1.038-14.816
				c0-2.141,0.089-4.422,0.266-6.847c0.176-2.426,0.424-4.833,0.742-7.223c-1.077-0.159-1.912-0.308-2.504-0.446
				c-0.593-0.139-1.221-0.278-1.885-0.417s-1.508-0.287-2.531-0.447c-1.023-0.158-2.504-0.355-4.442-0.596
				c-0.86-0.118-1.525-0.345-1.993-0.683c-0.465-0.338-0.807-0.734-1.023-1.191c-0.213-0.456-0.34-0.933-0.376-1.43
				c-0.035-0.496-0.054-0.923-0.054-1.28c0-0.562,0.351-0.992,1.049-1.287c0.699-0.296,1.595-0.519,2.688-0.667
				c1.093-0.147,2.294-0.229,3.603-0.248c1.309-0.018,2.563-0.009,3.765,0.025c1.2,0.037,2.275,0.063,3.226,0.081
				c0.95,0.019,1.605-0.009,1.963-0.078c0.961-4.802,2.181-9.452,3.658-13.951c1.478-4.497,3.133-8.498,4.967-12.002
				c1.833-3.502,3.836-6.311,6.007-8.428c2.172-2.116,4.45-3.174,6.836-3.174c1.534,0,2.935,0.428,4.201,1.282
				c1.268,0.855,2.347,1.996,3.239,3.421c0.892,1.425,1.579,3.091,2.061,4.996c0.48,1.907,0.723,3.894,0.723,5.958
				c0,1.712-0.25,3.517-0.75,5.417c-0.5,1.902-1.178,3.839-2.033,5.809c-0.856,1.972-1.863,3.97-3.023,5.992
				c-1.159,2.023-2.381,4.029-3.665,6.019c0.321-0.118,0.857-0.141,1.606-0.069c0.75,0.073,1.615,0.123,2.596,0.152
				c0.98,0.027,2.041,0.056,3.184,0.085c1.141,0.028,2.246,0.061,3.316,0.096c1.07,0.036,2.068,0.071,2.996,0.107
				c0.927,0.035,1.693,0.072,2.301,0.106c0.712,0.041,1.229,0.438,1.551,1.191c0.32,0.754,0.481,1.707,0.481,2.858
				c0,1.332-0.358,2.417-1.072,3.254c-0.714,0.838-1.499,1.256-2.356,1.256h-20.564c-1.039,1.427-2.087,2.827-3.143,4.199
				c-1.057,1.374-2.033,2.612-2.928,3.717c-0.144,2.212-0.268,4.388-0.375,6.527c-0.036,0.928-0.072,1.882-0.107,2.862
				s-0.072,1.952-0.107,2.915s-0.062,1.891-0.08,2.782c-0.018,0.891-0.025,1.711-0.025,2.46c0,1.926,0.178,3.549,0.536,4.867
				c0.356,1.32,0.877,2.398,1.558,3.238c0.681,0.838,1.512,1.443,2.496,1.816c0.984,0.375,2.086,0.562,3.304,0.562
				c0.749,0,1.687-0.178,2.812-0.535c1.123-0.355,2.355-0.846,3.694-1.471c1.339-0.623,2.749-1.365,4.229-2.221
				c1.482-0.855,2.945-1.791,4.392-2.809c1.445-1.016,2.829-2.084,4.149-3.209c1.32-1.123,2.517-2.272,3.589-3.449V321.447z
				 M442.051,253.706c0-0.39-0.027-0.824-0.082-1.304c-0.053-0.479-0.17-0.932-0.348-1.359c-0.18-0.425-0.457-0.78-0.832-1.064
				c-0.377-0.285-0.905-0.427-1.585-0.427c-0.931,0-1.872,0.814-2.819,2.443c-0.949,1.628-1.861,3.708-2.74,6.239
				c-0.877,2.532-1.7,5.32-2.469,8.365c-0.77,3.045-1.478,6.001-2.122,8.868c0.536,0.054,1.074,0.101,1.61,0.141
				c0.537,0.039,1.092,0.085,1.666,0.138c1.073-1.797,2.193-3.743,3.356-5.84c1.163-2.096,2.21-4.158,3.142-6.184
				c0.931-2.025,1.699-3.921,2.309-5.683C441.745,256.279,442.051,254.835,442.051,253.706z"/>
			<path fill="#FFFFFF" d="M472.997,333.432c-3.331,0-6.244-0.617-8.741-1.852c-2.498-1.234-4.579-2.896-6.244-4.982
				c-1.665-2.088-2.914-4.502-3.746-7.242s-1.249-5.617-1.249-8.63c0-1.971,0.372-4.32,1.118-7.048
				c0.744-2.729,1.516-5.149,2.314-7.261c0.797-2.111,1.799-4.127,3.006-6.046c1.205-1.917,2.615-3.606,4.229-5.067
				s3.423-2.622,5.427-3.485c2.005-0.862,4.23-1.294,6.678-1.294c2,0,3.856,0.322,5.569,0.962c1.714,0.642,3.205,1.541,4.472,2.698
				c1.268,1.158,2.259,2.557,2.973,4.194c0.714,1.639,1.071,3.474,1.071,5.503c0,2.162-0.724,4.586-2.171,7.271
				s-3.137,4.987-5.066,6.904c-1.93,1.919-4.227,3.627-6.889,5.127s-5.548,2.668-8.657,3.504c0.536,0.941,1.064,1.727,1.583,2.354
				c0.52,0.629,1.047,1.117,1.584,1.465c0.537,0.35,1.102,0.594,1.691,0.732c0.591,0.141,1.227,0.209,1.906,0.209
				c2.141,0,4.396-0.416,6.768-1.256c2.371-0.836,4.681-1.883,6.928-3.137c2.246-1.256,4.368-2.625,6.365-4.107
				s3.691-2.884,5.082-4.21c0,0,0.428,13.308-3.102,15.878c-1.535,1.102-3.184,2.186-4.949,3.252
				c-1.766,1.064-3.62,2.012-5.563,2.838c-1.944,0.824-3.958,1.484-6.045,1.98C477.253,333.184,475.139,333.432,472.997,333.432z
				 M465.855,307.952c1.289,0,2.693-0.321,4.215-0.967c1.521-0.645,2.935-1.474,4.242-2.484c1.307-1.012,2.586-2.372,3.84-4.08
				c1.252-1.709,1.879-3.121,1.879-4.238c0-1.568-0.297-2.857-0.886-3.87c-0.591-1.011-1.315-1.517-2.175-1.517
				c-1.539,0-2.855,0.279-3.947,0.837c-1.092,0.559-2.004,1.282-2.738,2.171c-0.733,0.891-1.324,1.9-1.771,3.033
				c-0.448,1.134-0.967,2.537-1.558,4.211s-0.922,3.052-0.993,4.132C465.891,306.262,465.855,307.186,465.855,307.952z"/>
			<path fill="#FFFFFF" d="M493.844,313.24c1.997-1.73,3.619-3.171,4.868-4.325c1.248-1.153,2.495-2.495,3.745-4.028
				c1.248-1.532,2.236-2.784,2.969-3.758c0.73-0.974,1.596-2.127,2.594-3.461s2.211-2.964,3.638-4.895
				c1.427-1.928,3.28-4.333,5.563-7.219c0.463-0.648,0.98-1.278,1.552-1.893c0.569-0.612,1.203-1.163,1.899-1.649
				c0.695-0.485,1.461-0.882,2.3-1.188c0.837-0.307,1.772-0.461,2.809-0.461c1.713,0,3.032,0.189,3.961,0.568
				c0.927,0.379,1.604,0.839,2.032,1.378c0.428,0.542,0.678,1.109,0.749,1.704s0.106,1.108,0.106,1.541
				c0,0.866-0.339,1.82-1.016,2.865c-0.678,1.046-1.428,2.056-2.246,3.028c-0.822,0.974-1.598,1.867-2.328,2.677
				c-0.731,0.812-1.15,1.415-1.259,1.812c0,1.118,0.08,2.136,0.244,3.055c0.164,0.92,0.382,1.821,0.655,2.704
				c0.273,0.884,0.556,1.82,0.846,2.812c0.291,0.992,0.57,2.137,0.838,3.434c0.268,1.298,0.303,3.082,0.107,5.354
				c-0.197,2.273-0.295,4.561-0.295,6.867c1.284-0.865,2.666-1.648,4.146-2.354c1.479-0.701,3.021-1.432,4.627-2.188
				c1.605-0.758,3.254-1.596,4.948-2.516c1.693-0.918,3.397-2.027,5.108-3.325l0.054,12.112c-2.212,1.65-4.771,3.199-7.677,4.643
				c-2.906,1.445-5.963,2.719-9.168,3.818c-3.207,1.1-6.441,1.969-9.705,2.604c-3.262,0.635-6.356,0.955-9.28,0.955
				c-2.104,0-4.065-0.188-5.885-0.562c-1.818-0.377-3.415-0.965-4.787-1.766c-1.374-0.803-2.487-1.852-3.344-3.146
				c-0.855-1.297-1.373-2.865-1.552-4.707c-0.5,0.109-0.989,0.18-1.471,0.217S493.236,324,492.773,324
				c-0.57,0-1.105-0.016-1.604-0.053c-0.499-0.035-0.927-0.172-1.284-0.404c-0.356-0.234-0.641-0.613-0.855-1.137
				s-0.32-1.27-0.32-2.244c0-0.865,0.213-1.668,0.641-2.406c0.429-0.738,0.928-1.396,1.498-1.975c0.57-0.576,1.141-1.08,1.712-1.514
				C493.13,313.836,493.558,313.492,493.844,313.24z M500.52,320.162c0.428,0,0.9,0.27,1.418,0.811
				c0.517,0.541,1.114,1.135,1.791,1.785c0.678,0.648,1.463,1.242,2.354,1.785c0.892,0.539,1.907,0.811,3.05,0.811
				c1.391,0,2.541-0.234,3.449-0.703c0.91-0.469,1.632-1.09,2.167-1.867c0.534-0.773,0.909-1.676,1.124-2.703
				c0.213-1.027,0.32-2.1,0.32-3.219c0-0.971-0.062-1.961-0.188-2.973c-0.125-1.008-0.107-2.262,0.054-3.757
				c0.161-1.496,0.124-2.65-0.106-3.461c-0.232-0.811-0.438-1.506-0.615-2.082L500.52,320.162z"/>
		</g>
	</g>
</g>
</svg>
