<?xml version="1.0" encoding="utf-8"?>
<!-- Generator: Adobe Illustrator 15.0.0, SVG Export Plug-In . SVG Version: 6.00 Build 0)  -->
<!DOCTYPE svg PUBLIC "-//W3C//DTD SVG 1.1//EN" "http://www.w3.org/Graphics/SVG/1.1/DTD/svg11.dtd">
<svg version="1.1" xmlns="http://www.w3.org/2000/svg" xmlns:xlink="http://www.w3.org/1999/xlink" x="0px" y="0px" viewBox="0 0 1650 1000" enable-background="new 0 0 1650 1000" xml:space="preserve">
<g id="fond" display="none">
	<rect display="inline" fill="#175973" width="1650" height="1000"/>
</g>
<g id="contour">
	<g>
		<g>
			<path fill="#C91437" d="M398.937,203.298c5.333,0,10.661,0.837,14.709,2.514l182.568,75.622
				c8.13,3.368,17.532,12.777,20.894,20.91l75.63,182.984c3.361,8.132,3.356,21.439-0.012,29.569l-75.622,182.567
				c-3.368,8.13-12.774,17.54-20.903,20.911l-182.815,75.807c-4.067,1.687-9.43,2.53-14.791,2.53
				c-5.354,0-10.708-0.842-14.771-2.524l-182.567-75.623c-8.13-3.368-17.522-12.781-20.871-20.919L105.24,515.036
				c-3.349-8.138-3.333-21.448,0.034-29.578l75.622-182.568c3.368-8.13,12.768-17.556,20.889-20.945l182.313-76.093
				C388.175,204.15,393.559,203.299,398.937,203.298 M399,195.298v8V195h-0.063c-6.657,0-13.021,1.275-17.92,3.32l-182.313,76.167
				c-10.154,4.238-20.987,15.137-25.198,25.304L97.883,482.378c-4.211,10.167-4.229,25.517-0.041,35.693l75.145,182.613
				c4.192,10.188,15.029,21.053,25.207,25.269l182.568,75.624c4.877,2.021,11.21,3.134,17.833,3.134
				c6.631,0,12.972-1.114,17.855-3.14l182.815-75.807c10.17-4.218,21.016-15.068,25.229-25.239l75.622-182.567
				c4.213-10.171,4.219-25.513,0.014-35.686l-75.63-182.984c-4.207-10.178-15.051-21.031-25.226-25.245l-182.538-75.622
				C411.875,196.408,406,195.298,399,195.298L399,195.298z"/>
		</g>
	</g>
</g>
<g id="fond_x5F_logo">
	<g>
		<path fill="#7D0018" d="M201.256,718.564c-8.13-3.368-17.522-12.781-20.871-20.919L105.24,515.036
			c-3.349-8.138-3.333-21.448,0.034-29.578l75.622-182.568c3.368-8.13,12.768-17.556,20.889-20.945l182.313-76.093
			c8.121-3.389,21.417-3.407,29.548-0.04l182.568,75.622c8.13,3.368,17.532,12.777,20.894,20.91l75.63,182.984
			c3.361,8.132,3.356,21.439-0.012,29.569l-75.622,182.567c-3.368,8.13-12.774,17.54-20.903,20.911l-182.815,75.807
			c-8.129,3.371-21.432,3.374-29.562,0.006L201.256,718.564z"/>
		<g opacity="0.85">
			<path fill="#FFFFFF" d="M398.937,203.298c5.333,0,10.661,0.837,14.709,2.514l182.568,75.622
				c8.13,3.368,17.532,12.777,20.894,20.91l75.63,182.984c3.361,8.132,3.356,21.439-0.012,29.569l-75.622,182.567
				c-3.368,8.13-12.774,17.54-20.903,20.911l-182.815,75.807c-4.067,1.687-9.43,2.53-14.791,2.53
				c-5.354,0-10.708-0.842-14.771-2.524l-182.567-75.623c-8.13-3.368-17.522-12.781-20.871-20.919L105.24,515.036
				c-3.349-8.138-3.333-21.448,0.034-29.578l75.622-182.568c3.368-8.13,12.768-17.556,20.889-20.945l182.313-76.093
				C388.175,204.15,393.559,203.299,398.937,203.298 M399,195.298v8V195c0,0-0.063,0-0.064,0c-6.656,0-13.02,1.275-17.919,3.32
				l-182.313,76.167c-10.154,4.238-20.987,15.137-25.198,25.304L97.883,482.378c-4.211,10.167-4.229,25.518-0.041,35.693
				l75.145,182.613c4.192,10.188,15.029,21.053,25.207,25.269l182.568,75.624c4.877,2.021,11.21,3.134,17.833,3.134
				c6.631,0,12.972-1.114,17.855-3.14l182.815-75.807c10.17-4.218,21.016-15.068,25.229-25.239l75.622-182.567
				c4.213-10.171,4.219-25.513,0.014-35.687l-75.629-182.983c-4.207-10.178-15.051-21.031-25.226-25.245l-182.538-75.622
				C411.875,196.408,406,195.298,399,195.298L399,195.298z"/>
		</g>
	</g>
</g>
<g id="haut_x5F_logo">
	<g>
		<path fill="#C91437" d="M312.185,750c-8.8,0-21.081-5.102-27.29-11.338L160.29,613.533c-6.209-6.236-11.29-18.538-11.29-27.338
			V411.224c0-8.8,5.125-21.057,11.389-27.238l124.406-122.749C291.06,255.057,303.385,250,312.185,250h174.972
			c8.8,0,21.102,5.081,27.338,11.29l123.168,122.645c6.236,6.209,11.338,18.49,11.338,27.29v174.971
			c0,8.8-5.057,21.125-11.238,27.389L514.394,738.611C508.213,744.875,495.956,750,487.156,750H312.185z"/>
	</g>
</g>
<g id="texte_x5F_hors_x5F_logo">
	<g opacity="0.85">
		<g>
			<path d="M775.704,722.875c-8.731,0-16.598-1.771-23.599-5.313c-7.002-3.543-12.964-8.492-17.886-14.851
				s-8.701-13.935-11.338-22.732c-2.637-8.797-3.955-18.449-3.955-28.961c0-5.66,0.409-11.469,1.23-17.424
				c0.82-5.955,2.065-11.896,3.735-17.822s3.749-11.732,6.24-17.424c2.49-5.689,5.39-11.07,8.701-16.142
				c3.31-5.07,7.016-9.743,11.118-14.019c4.101-4.275,8.627-7.961,13.579-11.057c4.951-3.096,10.283-5.512,15.996-7.252
				c5.713-1.738,11.85-2.609,18.413-2.609c8.789,0,16.655,1.592,23.599,4.771c6.943,3.182,12.802,7.629,17.578,13.344
				c4.775,5.714,8.438,12.533,10.986,20.457s3.823,16.656,3.823,26.199c0,7.828-0.777,15.99-2.329,24.488
				c-1.553,8.5-3.823,16.852-6.812,25.059s-6.71,16.02-11.162,23.438c-4.454,7.419-9.58,13.932-15.381,19.538
				c-5.801,5.607-12.261,10.061-19.38,13.362C791.744,721.225,784.023,722.875,775.704,722.875z M777.813,702.484
				c4.687,0,9.053-0.914,13.096-2.745s7.748-4.341,11.118-7.53c3.369-3.188,6.445-6.924,9.229-11.205
				c2.782-4.282,5.258-8.873,7.427-13.775c2.167-4.902,4.057-9.98,5.669-15.237c1.611-5.255,2.944-10.452,3.999-15.59
				s1.831-10.084,2.329-14.839c0.497-4.754,0.747-9.08,0.747-12.977c0-5.67-0.615-10.999-1.846-15.99
				c-1.23-4.99-3.091-9.33-5.581-13.021c-2.491-3.691-5.625-6.6-9.404-8.725c-3.779-2.127-8.189-3.189-13.228-3.189
				c-5.392,0-10.606,1.314-15.645,3.943c-5.04,2.628-9.786,6.171-14.238,10.629c-4.454,4.459-8.525,9.627-12.217,15.503
				s-6.855,12.063-9.492,18.559s-4.688,13.11-6.152,19.843c-1.465,6.732-2.197,13.168-2.197,19.31c0,6.675,0.835,12.89,2.505,18.646
				c1.67,5.759,4.072,10.733,7.207,14.927c3.134,4.193,6.943,7.485,11.426,9.878C767.047,701.289,772.129,702.484,777.813,702.484z"
				/>
			<path d="M891.146,706c-5.427,0-10.189-0.996-14.289-2.988c-4.099-1.991-7.535-4.658-10.307-7.998
				c-2.772-3.34-4.867-7.207-6.281-11.602c-1.416-4.395-2.123-8.965-2.123-13.711c0-3.397,0.588-7.471,1.766-12.217
				s2.459-8.891,3.844-12.437c1.384-3.544,3.091-6.929,5.124-10.151c2.033-3.222,4.388-6.049,7.068-8.481
				c2.681-2.431,5.67-4.364,8.969-5.801c3.298-1.435,6.92-2.153,10.867-2.153c3.553,0,6.842,0.514,9.866,1.538
				c3.024,1.026,5.611,2.447,7.762,4.263c2.151,1.816,3.833,3.971,5.05,6.46c1.215,2.491,1.824,5.172,1.824,8.042
				c0,1.992-0.286,3.955-0.857,5.889s-1.681,4.205-3.329,6.812c-1.648,2.608-3.25,4.381-4.803,5.317
				c-1.553,0.938-3.312,1.406-5.277,1.406c-2.964,0-4.878-0.732-5.742-2.197c-1.42-2.285-1.868-4.307-1.343-6.064
				c0.174-0.937,0.699-3.105,1.575-6.504c0.117-0.469,0.146-1.523,0.088-3.164c0-1.406-0.147-2.578-0.438-3.516
				c-0.291-0.937-0.933-1.406-1.924-1.406c-2.392,0-4.434,0.571-6.126,1.714s-3.137,2.637-4.332,4.482
				c-1.196,1.846-2.377,4.454-3.544,7.822c-1.167,3.37-1.998,6.196-2.494,8.481c-0.496,2.285-0.802,4.469-0.919,6.548
				c-0.117,2.081-0.174,3.823-0.174,5.229c0,2.109,0.189,4.307,0.568,6.592c0.379,2.285,1.137,4.381,2.274,6.284
				c1.137,1.905,2.61,3.487,4.419,4.746c1.809,1.261,4.142,1.89,7.001,1.89c2.812,0,5.917-0.863,9.316-2.593
				c3.397-1.728,6.812-3.911,10.239-6.548s6.693-5.537,9.8-8.701c3.105-3.164,14.508-16.471,16.736-19.283v18
				c-4.395,6.271-11.814,14.379-16.912,19.301c-2.168,2.109-4.526,4.161-7.075,6.152c-2.549,1.992-5.216,3.766-7.998,5.317
				c-2.784,1.554-5.684,2.812-8.701,3.779C897.295,705.517,894.24,706,891.146,706z"/>
			<path d="M1003.077,686.312c-5.633,3.282-10.65,6.152-15.05,8.613c-4.401,2.461-8.318,4.513-11.75,6.152
				c-3.433,1.641-6.483,2.871-9.153,3.691c-2.67,0.821-5.091,1.23-7.261,1.23c-4.43,0-8.334-1.348-11.714-4.043
				c-3.381-2.694-6.207-6.576-8.48-11.646c-2.272-5.067-3.977-11.206-5.113-18.413c-1.137-7.207-1.704-15.322-1.704-24.346
				c0-3.516,0.144-7.265,0.436-11.25c0.29-3.984,0.696-7.939,1.219-11.865c-1.77-0.261-3.142-0.506-4.114-0.733
				c-0.974-0.228-2.006-0.457-3.097-0.685c-1.092-0.229-2.478-0.473-4.159-0.734c-1.681-0.261-4.114-0.586-7.299-0.979
				c-1.415-0.195-2.506-0.568-3.274-1.123c-0.765-0.555-1.325-1.207-1.681-1.957c-0.353-0.75-0.559-1.533-0.619-2.349
				c-0.058-0.815-0.088-1.517-0.088-2.104c0-0.924,0.575-1.629,1.722-2.114c1.149-0.486,2.622-0.851,4.418-1.095
				c1.796-0.243,3.768-0.379,5.919-0.409c2.15-0.028,4.211-0.014,6.185,0.044c1.972,0.059,3.739,0.104,5.301,0.132
				c1.56,0.03,2.636-0.014,3.225-0.13c1.579-7.889,3.582-15.528,6.01-22.92c2.428-7.391,5.147-13.963,8.16-19.719
				c3.012-5.754,6.302-10.369,9.87-13.847s7.312-5.216,11.231-5.216c2.521,0,4.821,0.703,6.903,2.107
				c2.082,1.405,3.855,3.279,5.321,5.62c1.465,2.341,2.594,5.079,3.385,8.21c0.791,3.132,1.188,6.395,1.188,9.789
				c0,2.811-0.411,5.777-1.232,8.899c-0.821,3.124-1.935,6.306-3.341,9.544s-3.062,6.521-4.967,9.844
				c-1.905,3.325-3.913,6.621-6.022,9.889c0.529-0.193,1.409-0.23,2.641-0.113c1.23,0.119,2.652,0.202,4.264,0.249
				c1.611,0.046,3.354,0.093,5.229,0.14c1.875,0.047,3.691,0.101,5.449,0.158c1.758,0.059,3.397,0.118,4.922,0.176
				c1.523,0.059,2.782,0.118,3.779,0.176c1.171,0.066,2.021,0.719,2.549,1.957s0.791,2.805,0.791,4.695
				c0,2.189-0.588,3.972-1.761,5.348s-2.463,2.062-3.871,2.062h-33.787c-1.707,2.344-3.429,4.645-5.165,6.899
				c-1.736,2.257-3.34,4.293-4.811,6.108c-0.235,3.634-0.439,7.207-0.615,10.723c-0.059,1.524-0.118,3.092-0.176,4.702
				c-0.059,1.612-0.118,3.208-0.176,4.79c-0.059,1.582-0.103,3.106-0.132,4.57c-0.03,1.465-0.044,2.812-0.044,4.043
				c0,3.164,0.294,5.831,0.882,7.998c0.587,2.168,1.442,3.941,2.56,5.317c1.118,1.378,2.484,2.373,4.102,2.988
				s3.426,0.923,5.427,0.923c1.23,0,2.77-0.293,4.618-0.879c1.847-0.585,3.87-1.391,6.07-2.417c2.2-1.024,4.517-2.241,6.95-3.647
				s4.838-2.944,7.214-4.614s4.648-3.428,6.818-5.273s4.135-3.735,5.896-5.669V686.312z M974.952,575.014
				c0-0.641-0.045-1.355-0.133-2.143c-0.088-0.789-0.279-1.531-0.573-2.232c-0.294-0.7-0.75-1.283-1.368-1.751
				c-0.618-0.467-1.486-0.7-2.603-0.7c-1.53,0-3.075,1.339-4.633,4.014c-1.559,2.676-3.058,6.094-4.5,10.252
				c-1.442,4.16-2.795,8.741-4.058,13.744c-1.265,5.003-2.427,9.86-3.486,14.57c0.882,0.088,1.765,0.164,2.646,0.229
				s1.793,0.142,2.736,0.228c1.765-2.952,3.604-6.15,5.515-9.595s3.631-6.831,5.161-10.159c1.53-3.329,2.794-6.441,3.794-9.336
				C974.451,579.24,974.952,576.867,974.952,575.014z"/>
			<path d="M1050.274,638.236c1.699,3.398,2.973,6.987,3.823,10.767c0.849,3.779,1.274,8.042,1.274,12.788
				c0,3.458-0.382,6.943-1.143,10.459c-0.762,3.516-1.861,6.914-3.296,10.195c-1.437,3.282-3.194,6.358-5.273,9.229
				c-2.081,2.871-4.454,5.361-7.119,7.471c-2.667,2.109-5.581,3.779-8.745,5.01s-6.534,1.846-10.107,1.846
				c-5.157,0-9.566-1.127-13.228-3.384c-3.663-2.255-6.666-5.199-9.009-8.833c-2.344-3.633-4.058-7.734-5.142-12.305
				c-1.085-4.57-1.626-9.198-1.626-13.887c0-7.734,0.967-14.398,2.9-19.995c1.934-5.595,4.702-10.459,8.306-14.59
				s8.012-7.383,13.228-9.756c5.214-2.373,11.074-3.56,17.578-3.56c5.566,0,10.78,0.865,15.645,2.593
				c4.863,1.729,9.418,4.043,13.667,6.943c4.248,2.9,8.203,6.548,11.865,10.942c3.661,4.395,7.075,8.584,10.239,12.568l-1.67,12.393
				c-1.582-2.109-3.722-4.395-6.416-6.855c-2.696-2.461-5.552-5.186-8.569-8.174c-3.019-2.988-5.992-5.521-8.921-7.603
				c-2.931-2.079-5.449-3.823-7.559-5.229L1050.274,638.236z M1023.116,689.125c1.991,0,3.925-1.011,5.801-3.032
				c1.875-2.021,3.516-4.57,4.922-7.646s2.534-6.796,3.384-11.162c0.849-4.364,1.274-8.247,1.274-11.646
				c0-2.694-0.206-5.199-0.615-7.515c-0.411-2.313-1.026-4.32-1.846-6.021c-0.821-1.699-1.876-3.046-3.164-4.043
				c-1.29-0.996-2.843-1.494-4.658-1.494c-2.403,0-4.688,1.025-6.855,3.076c-2.168,2.052-4.073,4.674-5.713,7.866
				c-1.641,3.194-2.931,6.724-3.867,10.591c-0.938,3.867-1.406,8.232-1.406,13.096c0,2.461,0.233,4.776,0.703,6.943
				c0.468,2.168,1.2,4.059,2.197,5.669c0.996,1.612,2.314,2.9,3.955,3.867C1018.867,688.642,1020.831,689.125,1023.116,689.125z"/>
			<path d="M1068.731,589.004c-3.81,6.949-7.207,12.159-10.195,15.633c-2.988,3.475-5.419,5.211-7.295,5.211
				c-2.578,0-3.867-2.958-3.867-8.877c0-5.742,0.821-10.898,2.461-15.469c1.641-4.57,3.941-8.627,6.899-12.173
				c2.959-3.544,6.474-6.562,10.547-9.053c4.072-2.489,8.525-4.54,13.359-6.152c4.834-1.61,9.945-2.798,15.337-3.56
				c5.39-0.761,10.927-1.143,16.611-1.143c6.621,0,13.271,0.483,19.951,1.447c6.68,0.965,13.096,2.324,19.248,4.078
				c6.152,1.753,11.894,3.872,17.227,6.355c5.331,2.484,9.976,5.232,13.931,8.242s7.06,6.27,9.316,9.776
				c2.255,3.507,3.384,7.16,3.384,10.959c0,4.523-0.982,8.989-2.944,13.396c-1.964,4.404-5.04,8.385-9.229,11.938
				c-4.19,3.554-9.551,6.478-16.084,8.769c-6.534,2.291-14.37,3.525-23.511,3.701c5.801,0,10.868,0.943,15.205,2.829
				c4.335,1.887,7.968,4.432,10.898,7.636c2.929,3.203,5.126,7.036,6.592,11.497c1.464,4.46,2.197,8.996,2.197,13.606
				c0,3.633-0.499,7.322-1.494,11.07c-0.997,3.748-2.491,7.352-4.482,10.809c-1.993,3.459-4.482,6.702-7.471,9.729
				c-2.988,3.027-6.49,5.665-10.503,7.913c-4.014,2.248-8.541,4.021-13.579,5.319c-5.04,1.296-10.577,1.945-16.611,1.945
				c-3.81,0-7.822-0.23-12.041-0.689c-4.219-0.46-8.481-1.082-12.788-1.866c-4.307-0.786-8.541-1.718-12.7-2.799
				c-4.161-1.083-8.086-2.245-11.777-3.488c-1.641-0.379-3.091-0.946-4.351-1.704c-1.261-0.757-1.89-2.109-1.89-4.057
				c0-9.847,0.249-19.93,0.747-30.251c0.497-10.321,1.508-20.539,3.032-30.651c1.523-10.113,3.573-18.908,6.152-26.381
				c2.578-7.475,6.24-14.741,10.986-21.801c4.16-2.881,7.939-4.322,11.338-4.322c4.276,0,7.851,2.411,10.723,7.234
				c-2.696,3.684-4.996,7.781-6.899,12.295c-1.905,4.516-3.355,8.523-4.351,12.029c-0.997,3.504-1.89,7.84-2.681,13.006
				c-0.791,5.168-1.421,10.216-1.89,15.146c-0.294,2.791-0.542,5.895-0.747,9.311c-0.206,3.416-0.396,6.756-0.571,10.023
				s-0.308,6.52-0.396,9.756s-0.132,6.341-0.132,9.31c0,0.479,0,1.139,0,1.976c0,0.84,0.073,1.707,0.22,2.605
				c0.146,0.898,0.336,1.723,0.571,2.471c0.233,0.748,0.585,1.303,1.055,1.66c3.573,1.199,7.412,2.219,11.514,3.057
				c4.101,0.837,8.203,1.256,12.305,1.256c4.979,0,9.813-0.613,14.502-1.842c4.687-1.228,8.847-3.174,12.48-5.838
				c3.632-2.664,6.548-6.078,8.745-10.239s3.296-9.476,3.296-15.944c0-3.471-0.646-6.36-1.934-8.666
				c-1.29-2.305-2.975-4.235-5.054-5.793c-2.081-1.557-4.454-2.8-7.119-3.729c-2.667-0.928-5.392-1.766-8.174-2.514
				c-2.784-0.749-5.508-1.479-8.174-2.193c-2.667-0.715-5.04-1.621-7.119-2.721c-2.081-1.1-3.766-2.468-5.054-4.104
				c-1.29-1.636-1.934-3.762-1.934-6.379c0-1.23,0.073-2.299,0.22-3.208c0.146-0.907,0.497-1.655,1.055-2.241
				c0.556-0.585,1.376-1.024,2.461-1.318c1.083-0.293,2.562-0.439,4.438-0.439c2.519,0,4.819,0.104,6.899,0.308
				c2.079,0.206,4.32,0.308,6.724,0.308c5.625,0,10.708-0.691,15.249-2.072c4.54-1.381,8.407-3.249,11.602-5.602
				c3.193-2.353,5.654-5.102,7.383-8.25c1.728-3.146,2.593-6.514,2.593-10.102c0-2.352-0.674-4.513-2.021-6.483
				c-1.349-1.97-3.238-3.733-5.669-5.292c-2.432-1.559-5.289-2.927-8.569-4.103c-3.282-1.175-6.855-2.161-10.723-2.955
				s-7.94-1.383-12.217-1.765c-4.278-0.382-8.613-0.574-13.008-0.574c-7.09,0-12.599,0.236-16.523,0.707
				c-5.392,0.59-10.415,1.516-15.073,2.783c-4.658,1.266-8.789,2.898-12.393,4.9S1070.606,586.472,1068.731,589.004z"/>
			<path d="M1229.571,707.492l1.934-10.623c-3.164,2.783-6.46,5.03-9.888,6.741c-3.428,1.712-6.754,2.565-9.976,2.565
				c-2.812,0-5.552-0.571-8.218-1.714c-2.667-1.143-5.025-2.782-7.075-4.922c-2.052-2.138-3.691-4.746-4.922-7.822
				s-1.846-6.548-1.846-10.415c0-5.098,0.35-9.77,1.053-14.018c0.702-4.246,1.568-9.49,2.598-15.73
				c1.03-6.24,2.247-11.164,3.653-14.768s3.017-7.25,4.833-10.943c1.346-2.637,3.279-4.643,5.798-6.021
				c2.519-1.376,4.979-2.065,7.38-2.065c2.049,0,3.807,0.514,5.271,1.539c1.464,1.026,2.197,2.623,2.197,4.793
				c0,0.646-0.073,1.349-0.216,2.111c-0.144,0.762-0.389,1.582-0.733,2.461c-1.036,2.697-1.909,5.903-2.621,9.618
				s-1.66,8.668-2.847,14.858c-1.187,6.193-2.127,11.103-2.823,14.73c-0.696,3.629-1.044,6.863-1.044,9.707
				c0,1.48,0.102,2.916,0.308,4.308c0.205,1.393,0.571,2.636,1.099,3.731s1.23,1.982,2.109,2.664
				c0.879,0.681,1.991,1.021,3.34,1.021c2.167,0,4.131-0.943,5.889-2.832s3.281-4.159,4.57-6.815
				c1.288-2.655,2.329-5.399,3.12-8.231s1.303-5.192,1.538-7.082l7.042-32.869c0.411-1.934,1.232-3.691,2.465-5.273
				c1.173-1.525,2.553-2.828,4.138-3.913c1.585-1.083,3.227-1.89,4.93-2.417c1.702-0.527,3.315-0.791,4.842-0.791
				c1.818,0,3.344,0.396,4.577,1.188c1.232,0.793,1.848,2.039,1.848,3.74c0,0.528-0.088,1.145-0.264,1.848
				c-0.274,1.561-0.641,3.654-1.1,6.283c-0.46,2.629-0.983,5.618-1.568,8.969c-0.585,3.352-1.404,8.051-2.454,14.098
				c-1.052,6.046-1.905,10.908-2.562,14.59c-1.484,8.697-2.998,18.043-4.54,28.033c1.78-0.994,3.7-2.223,5.758-3.687
				s4.348-3.425,6.868-5.884c2.519-2.458,5.332-5.547,8.438-9.264c3.105-3.718,15.66-21.428,19.527-26.99v27
				c-1.055,1.804-7.252,9.268-8.893,11.131c-1.758,1.979-3.633,3.899-5.625,5.762c-2.93,2.678-5.04,4.48-6.328,5.412
				c-0.41,0.291-2.549,1.974-6.416,5.047c-1.172,0.996-5.051,3.689-11.637,8.083c-1.604,1.055-2.701,2.974-3.294,5.756
				s-1.276,7.951-2.047,15.507c-0.336,2.156-0.547,3.816-0.63,4.982c-0.357,2.798-0.695,5.465-1.015,7.999
				c-0.321,2.535-0.89,5.429-1.708,8.683c-0.819,3.252-1.784,6.241-2.895,8.969c-1.112,2.725-2.574,5.436-4.386,8.133
				c-1.813,2.695-3.816,4.996-6.008,6.902c-2.193,1.903-4.839,3.441-7.939,4.615c-3.1,1.172-6.492,1.758-10.175,1.758
				c-2.983,0-5.746-0.337-8.289-1.01s-4.868-1.712-6.974-3.115c-2.105-1.406-3.83-3.324-5.174-5.752
				c-1.346-2.429-2.136-5.283-2.369-8.561c-0.47-6.205,1.23-12.76,5.098-19.666c2.167-3.864,3.691-6.542,4.57-8.033
				c0.879-1.493,2.255-3.644,4.131-6.453c1.875-2.752,3.837-5.239,5.889-7.463c4.101-4.625,7.484-8.342,10.151-11.149
				C1222.701,713.725,1225.88,710.712,1229.571,707.492z M1229.882,728.682c-4.11,2.929-8.162,7.616-12.152,14.061
				c-3.992,6.443-7.162,13.005-9.51,19.685c-1.938,5.624-0.972,8.437,2.895,8.437c1.406,0,2.666-0.176,3.779-0.527
				c1.112-0.352,2.138-0.981,3.076-1.89c0.937-0.909,1.758-1.904,2.461-2.988c0.703-1.085,1.45-2.607,2.241-4.57
				c0.791-1.964,1.494-3.897,2.109-5.801c0.615-1.904,1.391-4.438,2.329-7.603c0.527-1.7,0.919-3.593,1.174-5.677
				c0.255-2.088,0.56-4.594,0.916-7.52C1229.555,731.36,1229.783,729.491,1229.882,728.682z"/>
			<path d="M1353.497,686.312c-5.633,3.282-10.65,6.152-15.05,8.613c-4.401,2.461-8.318,4.513-11.75,6.152
				c-3.433,1.641-6.483,2.871-9.153,3.691c-2.67,0.821-5.091,1.23-7.261,1.23c-4.43,0-8.334-1.348-11.714-4.043
				c-3.381-2.694-6.207-6.576-8.48-11.646c-2.272-5.067-3.977-11.206-5.113-18.413c-1.137-7.207-1.704-15.322-1.704-24.346
				c0-3.516,0.144-7.265,0.436-11.25c0.29-3.984,0.696-7.939,1.219-11.865c-1.77-0.261-3.142-0.506-4.114-0.733
				c-0.974-0.228-2.006-0.457-3.097-0.685c-1.092-0.229-2.478-0.473-4.159-0.734c-1.681-0.261-4.114-0.586-7.299-0.979
				c-1.415-0.195-2.506-0.568-3.274-1.123c-0.765-0.555-1.325-1.207-1.681-1.957c-0.353-0.75-0.559-1.533-0.619-2.349
				c-0.058-0.815-0.088-1.517-0.088-2.104c0-0.924,0.575-1.629,1.722-2.114c1.149-0.486,2.622-0.851,4.418-1.095
				c1.796-0.243,3.768-0.379,5.919-0.409c2.15-0.028,4.211-0.014,6.185,0.044c1.972,0.059,3.739,0.104,5.301,0.132
				c1.56,0.03,2.636-0.014,3.225-0.13c1.579-7.889,3.582-15.528,6.01-22.92c2.428-7.391,5.147-13.963,8.16-19.719
				c3.012-5.754,6.302-10.369,9.87-13.847s7.312-5.216,11.231-5.216c2.521,0,4.821,0.703,6.903,2.107
				c2.082,1.405,3.855,3.279,5.321,5.62c1.465,2.341,2.594,5.079,3.385,8.21c0.791,3.132,1.188,6.395,1.188,9.789
				c0,2.811-0.411,5.777-1.232,8.899c-0.821,3.124-1.935,6.306-3.341,9.544s-3.062,6.521-4.967,9.844
				c-1.905,3.325-3.913,6.621-6.022,9.889c0.529-0.193,1.409-0.23,2.641-0.113c1.23,0.119,2.652,0.202,4.264,0.249
				c1.611,0.046,3.354,0.093,5.229,0.14c1.875,0.047,3.691,0.101,5.449,0.158c1.758,0.059,3.397,0.118,4.922,0.176
				c1.523,0.059,2.782,0.118,3.779,0.176c1.171,0.066,2.021,0.719,2.549,1.957s0.791,2.805,0.791,4.695
				c0,2.189-0.588,3.972-1.761,5.348s-2.463,2.062-3.871,2.062h-33.787c-1.707,2.344-3.429,4.645-5.165,6.899
				c-1.736,2.257-3.34,4.293-4.811,6.108c-0.235,3.634-0.439,7.207-0.615,10.723c-0.059,1.524-0.118,3.092-0.176,4.702
				c-0.059,1.612-0.118,3.208-0.176,4.79c-0.059,1.582-0.103,3.106-0.132,4.57c-0.03,1.465-0.044,2.812-0.044,4.043
				c0,3.164,0.294,5.831,0.882,7.998c0.587,2.168,1.442,3.941,2.56,5.317c1.118,1.378,2.484,2.373,4.102,2.988
				s3.426,0.923,5.427,0.923c1.23,0,2.77-0.293,4.618-0.879c1.847-0.585,3.87-1.391,6.07-2.417c2.2-1.024,4.517-2.241,6.95-3.647
				s4.838-2.944,7.214-4.614s4.648-3.428,6.818-5.273s4.135-3.735,5.896-5.669V686.312z M1325.372,575.014
				c0-0.641-0.045-1.355-0.133-2.143c-0.088-0.789-0.279-1.531-0.573-2.232c-0.294-0.7-0.75-1.283-1.368-1.751
				c-0.618-0.467-1.486-0.7-2.603-0.7c-1.53,0-3.075,1.339-4.633,4.014c-1.559,2.676-3.058,6.094-4.5,10.252
				c-1.442,4.16-2.795,8.741-4.058,13.744c-1.265,5.003-2.427,9.86-3.486,14.57c0.882,0.088,1.765,0.164,2.646,0.229
				s1.793,0.142,2.736,0.228c1.765-2.952,3.604-6.15,5.515-9.595s3.631-6.831,5.161-10.159c1.53-3.329,2.794-6.441,3.794-9.336
				C1324.871,579.24,1325.372,576.867,1325.372,575.014z"/>
			<path d="M1376.217,706c-5.471,0-10.258-1.014-14.362-3.042c-4.104-2.026-7.523-4.755-10.258-8.185
				c-2.736-3.43-4.788-7.396-6.155-11.898s-2.052-9.229-2.052-14.181c0-3.237,0.611-7.097,1.836-11.579
				c1.224-4.482,2.491-8.459,3.803-11.929c1.31-3.469,2.957-6.78,4.938-9.932c1.981-3.151,4.298-5.927,6.95-8.327
				s5.624-4.309,8.917-5.726c3.293-1.417,6.95-2.126,10.971-2.126c3.285,0,6.335,0.527,9.15,1.58
				c2.815,1.054,5.265,2.531,7.347,4.434s3.71,4.199,4.883,6.891c1.173,2.692,1.761,5.707,1.761,9.041
				c0,3.553-1.189,7.535-3.568,11.946s-5.152,8.192-8.323,11.343c-3.171,3.152-6.943,5.959-11.317,8.423
				c-4.375,2.464-9.116,4.384-14.225,5.759c0.881,1.547,1.75,2.836,2.603,3.868c0.851,1.031,1.719,1.833,2.602,2.405
				c0.882,0.573,1.809,0.975,2.778,1.203c0.97,0.23,2.015,0.344,3.132,0.344c3.516,0,7.221-0.687,11.118-2.062
				c3.896-1.375,7.69-3.094,11.382-5.156c3.691-2.063,7.177-4.312,10.459-6.746c3.281-2.436,6.064-4.74,8.35-6.919
				c0,0,0.703,21.866-5.098,26.089c-2.52,1.811-5.229,3.592-8.13,5.342s-5.948,3.305-9.141,4.661
				c-3.194,1.356-6.504,2.442-9.932,3.257C1383.209,705.594,1379.735,706,1376.217,706z M1364.483,664.139
				c2.118,0,4.426-0.527,6.925-1.588c2.5-1.061,4.822-2.422,6.97-4.083c2.146-1.661,4.249-3.896,6.308-6.703
				s3.088-5.128,3.088-6.962c0-2.577-0.486-4.697-1.456-6.359c-0.971-1.661-2.162-2.492-3.573-2.492
				c-2.53,0-4.691,0.459-6.485,1.376s-3.293,2.105-4.499,3.566c-1.206,1.462-2.177,3.122-2.911,4.983
				c-0.736,1.862-1.589,4.17-2.559,6.919c-0.971,2.749-1.515,5.013-1.633,6.788C1364.541,661.361,1364.483,662.879,1364.483,664.139
				z"/>
			<path d="M1410.468,672.828c3.281-2.843,5.946-5.211,7.998-7.107c2.05-1.895,4.101-4.1,6.152-6.617
				c2.05-2.518,3.676-4.576,4.878-6.176c1.2-1.599,2.622-3.494,4.263-5.686c1.64-2.191,3.632-4.871,5.977-8.041
				c2.343-3.168,5.39-7.121,9.141-11.86c0.761-1.065,1.611-2.102,2.549-3.109c0.937-1.007,1.978-1.91,3.12-2.71
				c1.143-0.799,2.402-1.449,3.779-1.953c1.376-0.503,2.914-0.756,4.614-0.756c2.815,0,4.983,0.312,6.508,0.934
				c1.523,0.623,2.637,1.377,3.34,2.265c0.703,0.889,1.112,1.821,1.23,2.799c0.117,0.978,0.176,1.821,0.176,2.532
				c0,1.422-0.558,2.991-1.67,4.708c-1.114,1.718-2.344,3.377-3.691,4.976c-1.349,1.6-2.623,3.066-3.823,4.398
				c-1.202,1.332-1.891,2.324-2.069,2.976c0,1.837,0.133,3.509,0.402,5.02c0.269,1.511,0.627,2.991,1.077,4.441
				c0.447,1.452,0.912,2.991,1.39,4.62s0.937,3.51,1.376,5.641c0.439,2.133,0.497,5.064,0.176,8.797
				c-0.323,3.732-0.483,7.492-0.483,11.282c2.109-1.421,4.379-2.71,6.812-3.864c2.431-1.154,4.966-2.354,7.603-3.598
				s5.347-2.621,8.13-4.131c2.782-1.511,5.581-3.332,8.394-5.465l0.088,19.9c-3.634,2.713-7.837,5.256-12.612,7.629
				c-4.776,2.373-9.797,4.465-15.065,6.271c-5.268,1.808-10.581,3.234-15.942,4.279s-10.445,1.568-15.249,1.568
				c-3.458,0-6.68-0.309-9.668-0.924c-2.988-0.617-5.611-1.584-7.866-2.9c-2.256-1.317-4.087-3.041-5.493-5.171
				c-1.406-2.128-2.256-4.706-2.549-7.733c-0.821,0.18-1.626,0.297-2.417,0.355c-0.791,0.061-1.568,0.09-2.329,0.09
				c-0.938,0-1.817-0.029-2.637-0.088c-0.821-0.059-1.524-0.281-2.109-0.666c-0.586-0.385-1.055-1.006-1.406-1.866
				c-0.352-0.858-0.527-2.087-0.527-3.688c0-1.421,0.352-2.739,1.055-3.954c0.703-1.213,1.523-2.294,2.461-3.242
				c0.937-0.947,1.875-1.775,2.812-2.486C1409.295,673.807,1409.999,673.242,1410.468,672.828z M1421.437,684.199
				c0.703,0,1.479,0.445,2.329,1.333c0.849,0.889,1.831,1.866,2.944,2.933c1.112,1.065,2.402,2.043,3.867,2.932
				c1.464,0.889,3.134,1.332,5.01,1.332c2.285,0,4.175-0.385,5.669-1.154s2.681-1.791,3.56-3.066
				c0.879-1.272,1.494-2.753,1.846-4.44c0.352-1.688,0.527-3.45,0.527-5.288c0-1.598-0.103-3.225-0.308-4.885
				c-0.206-1.658-0.176-3.717,0.088-6.175s0.205-4.354-0.176-5.686c-0.382-1.332-0.718-2.474-1.011-3.421L1421.437,684.199z"/>
		</g>
		<g>
			<g>
				<path fill="#FFFFFF" d="M771.704,718.875c-8.731,0-16.598-1.771-23.599-5.313c-7.002-3.543-12.964-8.492-17.886-14.851
					s-8.701-13.935-11.338-22.732c-2.637-8.797-3.955-18.449-3.955-28.961c0-5.66,0.409-11.469,1.23-17.424
					c0.82-5.955,2.065-11.896,3.735-17.822s3.749-11.732,6.24-17.424c2.49-5.689,5.39-11.07,8.701-16.142
					c3.31-5.07,7.016-9.743,11.118-14.019c4.101-4.275,8.627-7.961,13.579-11.057c4.951-3.096,10.283-5.512,15.996-7.252
					c5.713-1.738,11.85-2.609,18.413-2.609c8.789,0,16.655,1.592,23.599,4.771c6.943,3.182,12.802,7.629,17.578,13.344
					c4.775,5.714,8.438,12.533,10.986,20.457s3.823,16.656,3.823,26.199c0,7.828-0.777,15.99-2.329,24.488
					c-1.553,8.5-3.823,16.852-6.812,25.059s-6.71,16.02-11.162,23.438c-4.454,7.419-9.58,13.932-15.381,19.538
					c-5.801,5.607-12.261,10.061-19.38,13.362C787.744,717.225,780.023,718.875,771.704,718.875z M773.813,698.484
					c4.687,0,9.053-0.914,13.096-2.745s7.748-4.341,11.118-7.53c3.369-3.188,6.445-6.924,9.229-11.205
					c2.782-4.282,5.258-8.873,7.427-13.775c2.167-4.902,4.057-9.98,5.669-15.237c1.611-5.255,2.944-10.452,3.999-15.59
					s1.831-10.084,2.329-14.839c0.497-4.754,0.747-9.08,0.747-12.977c0-5.67-0.615-10.999-1.846-15.99
					c-1.23-4.99-3.091-9.33-5.581-13.021c-2.491-3.691-5.625-6.6-9.404-8.725c-3.779-2.127-8.189-3.189-13.228-3.189
					c-5.392,0-10.606,1.314-15.645,3.943c-5.04,2.628-9.786,6.171-14.238,10.629c-4.454,4.459-8.525,9.627-12.217,15.503
					s-6.855,12.063-9.492,18.559s-4.688,13.11-6.152,19.843c-1.465,6.732-2.197,13.168-2.197,19.31
					c0,6.675,0.835,12.89,2.505,18.646c1.67,5.759,4.072,10.733,7.207,14.927c3.134,4.193,6.943,7.485,11.426,9.878
					C763.047,697.289,768.129,698.484,773.813,698.484z"/>
				<path fill="#FFFFFF" d="M887.146,702c-5.427,0-10.189-0.996-14.289-2.988c-4.099-1.991-7.535-4.658-10.307-7.998
					c-2.772-3.34-4.867-7.207-6.281-11.602c-1.416-4.395-2.123-8.965-2.123-13.711c0-3.397,0.588-7.471,1.766-12.217
					s2.459-8.891,3.844-12.437c1.384-3.544,3.091-6.929,5.124-10.151c2.033-3.222,4.388-6.049,7.068-8.481
					c2.681-2.431,5.67-4.364,8.969-5.801c3.298-1.435,6.92-2.153,10.867-2.153c3.553,0,6.842,0.514,9.866,1.538
					c3.024,1.026,5.611,2.447,7.762,4.263c2.151,1.816,3.833,3.971,5.05,6.46c1.215,2.491,1.824,5.172,1.824,8.042
					c0,1.992-0.286,3.955-0.857,5.889s-1.681,4.205-3.329,6.812c-1.648,2.608-3.25,4.381-4.803,5.317
					c-1.553,0.938-3.312,1.406-5.277,1.406c-2.964,0-4.878-0.732-5.742-2.197c-1.42-2.285-1.868-4.307-1.343-6.064
					c0.174-0.937,0.699-3.105,1.575-6.504c0.117-0.469,0.146-1.523,0.088-3.164c0-1.406-0.147-2.578-0.438-3.516
					c-0.291-0.937-0.933-1.406-1.924-1.406c-2.392,0-4.434,0.571-6.126,1.714s-3.137,2.637-4.332,4.482
					c-1.196,1.846-2.377,4.454-3.544,7.822c-1.167,3.37-1.998,6.196-2.494,8.481c-0.496,2.285-0.802,4.469-0.919,6.548
					c-0.117,2.081-0.174,3.823-0.174,5.229c0,2.109,0.189,4.307,0.568,6.592c0.379,2.285,1.137,4.381,2.274,6.284
					c1.137,1.905,2.61,3.487,4.419,4.746c1.809,1.261,4.142,1.89,7.001,1.89c2.812,0,5.917-0.863,9.316-2.593
					c3.397-1.728,6.812-3.911,10.239-6.548s6.693-5.537,9.8-8.701c3.105-3.164,14.508-16.471,16.736-19.283v18
					c-4.395,6.271-11.814,14.379-16.912,19.301c-2.168,2.109-4.526,4.161-7.075,6.152c-2.549,1.992-5.216,3.766-7.998,5.317
					c-2.784,1.554-5.684,2.812-8.701,3.779C893.295,701.517,890.24,702,887.146,702z"/>
				<path fill="#FFFFFF" d="M999.077,682.312c-5.633,3.282-10.65,6.152-15.05,8.613c-4.401,2.461-8.318,4.513-11.75,6.152
					c-3.433,1.641-6.483,2.871-9.153,3.691c-2.67,0.821-5.091,1.23-7.261,1.23c-4.43,0-8.334-1.348-11.714-4.043
					c-3.381-2.694-6.207-6.576-8.48-11.646c-2.272-5.067-3.977-11.206-5.113-18.413c-1.137-7.207-1.704-15.322-1.704-24.346
					c0-3.516,0.144-7.265,0.436-11.25c0.29-3.984,0.696-7.939,1.219-11.865c-1.77-0.261-3.142-0.506-4.114-0.733
					c-0.974-0.228-2.006-0.457-3.097-0.685c-1.092-0.229-2.478-0.473-4.159-0.734c-1.681-0.261-4.114-0.586-7.299-0.979
					c-1.415-0.195-2.506-0.568-3.274-1.123c-0.765-0.555-1.325-1.207-1.681-1.957c-0.353-0.75-0.559-1.533-0.619-2.349
					c-0.058-0.815-0.088-1.517-0.088-2.104c0-0.924,0.575-1.629,1.722-2.114c1.149-0.486,2.622-0.851,4.418-1.095
					c1.796-0.243,3.768-0.379,5.919-0.409c2.15-0.028,4.211-0.014,6.185,0.044c1.972,0.059,3.739,0.104,5.301,0.132
					c1.56,0.03,2.636-0.014,3.225-0.13c1.579-7.889,3.582-15.528,6.01-22.92c2.428-7.391,5.147-13.963,8.16-19.719
					c3.012-5.754,6.302-10.369,9.87-13.847s7.312-5.216,11.231-5.216c2.521,0,4.821,0.703,6.903,2.107
					c2.082,1.405,3.855,3.279,5.321,5.62c1.465,2.341,2.594,5.079,3.385,8.21c0.791,3.132,1.188,6.395,1.188,9.789
					c0,2.811-0.411,5.777-1.232,8.899c-0.821,3.124-1.935,6.306-3.341,9.544s-3.062,6.521-4.967,9.844
					c-1.905,3.325-3.913,6.621-6.022,9.889c0.529-0.193,1.409-0.23,2.641-0.113c1.23,0.119,2.652,0.202,4.264,0.249
					c1.611,0.046,3.354,0.093,5.229,0.14c1.875,0.047,3.691,0.101,5.449,0.158c1.758,0.059,3.397,0.118,4.922,0.176
					c1.523,0.059,2.782,0.118,3.779,0.176c1.171,0.066,2.021,0.719,2.549,1.957s0.791,2.805,0.791,4.695
					c0,2.189-0.588,3.972-1.761,5.348s-2.463,2.062-3.871,2.062h-33.787c-1.707,2.344-3.429,4.645-5.165,6.899
					c-1.736,2.257-3.34,4.293-4.811,6.108c-0.235,3.634-0.439,7.207-0.615,10.723c-0.059,1.524-0.118,3.092-0.176,4.702
					c-0.059,1.612-0.118,3.208-0.176,4.79c-0.059,1.582-0.103,3.106-0.132,4.57c-0.03,1.465-0.044,2.812-0.044,4.043
					c0,3.164,0.294,5.831,0.882,7.998c0.587,2.168,1.442,3.941,2.56,5.317c1.118,1.378,2.484,2.373,4.102,2.988
					s3.426,0.923,5.427,0.923c1.23,0,2.77-0.293,4.618-0.879c1.847-0.585,3.87-1.391,6.07-2.417c2.2-1.024,4.517-2.241,6.95-3.647
					s4.838-2.944,7.214-4.614s4.648-3.428,6.818-5.273s4.135-3.735,5.896-5.669V682.312z M970.952,571.014
					c0-0.641-0.045-1.355-0.133-2.143c-0.088-0.789-0.279-1.531-0.573-2.232c-0.294-0.7-0.75-1.283-1.368-1.751
					c-0.618-0.467-1.486-0.7-2.603-0.7c-1.53,0-3.075,1.339-4.633,4.014c-1.559,2.676-3.058,6.094-4.5,10.252
					c-1.442,4.16-2.795,8.741-4.058,13.744c-1.265,5.003-2.427,9.86-3.486,14.57c0.882,0.088,1.765,0.164,2.646,0.229
					s1.793,0.142,2.736,0.228c1.765-2.952,3.604-6.15,5.515-9.595s3.631-6.831,5.161-10.159c1.53-3.329,2.794-6.441,3.794-9.336
					C970.451,575.24,970.952,572.867,970.952,571.014z"/>
				<path fill="#FFFFFF" d="M1046.274,634.236c1.699,3.398,2.973,6.987,3.823,10.767c0.849,3.779,1.274,8.042,1.274,12.788
					c0,3.458-0.382,6.943-1.143,10.459c-0.762,3.516-1.861,6.914-3.296,10.195c-1.437,3.282-3.194,6.358-5.273,9.229
					c-2.081,2.871-4.454,5.361-7.119,7.471c-2.667,2.109-5.581,3.779-8.745,5.01s-6.534,1.846-10.107,1.846
					c-5.157,0-9.566-1.127-13.228-3.384c-3.663-2.255-6.666-5.199-9.009-8.833c-2.344-3.633-4.058-7.734-5.142-12.305
					c-1.085-4.57-1.626-9.198-1.626-13.887c0-7.734,0.967-14.398,2.9-19.995c1.934-5.595,4.702-10.459,8.306-14.59
					s8.012-7.383,13.228-9.756c5.214-2.373,11.074-3.56,17.578-3.56c5.566,0,10.78,0.865,15.645,2.593
					c4.863,1.729,9.418,4.043,13.667,6.943c4.248,2.9,8.203,6.548,11.865,10.942c3.661,4.395,7.075,8.584,10.239,12.568
					l-1.67,12.393c-1.582-2.109-3.722-4.395-6.416-6.855c-2.696-2.461-5.552-5.186-8.569-8.174
					c-3.019-2.988-5.992-5.521-8.921-7.603c-2.931-2.079-5.449-3.823-7.559-5.229L1046.274,634.236z M1019.116,685.125
					c1.991,0,3.925-1.011,5.801-3.032c1.875-2.021,3.516-4.57,4.922-7.646s2.534-6.796,3.384-11.162
					c0.849-4.364,1.274-8.247,1.274-11.646c0-2.694-0.206-5.199-0.615-7.515c-0.411-2.313-1.026-4.32-1.846-6.021
					c-0.821-1.699-1.876-3.046-3.164-4.043c-1.29-0.996-2.843-1.494-4.658-1.494c-2.403,0-4.688,1.025-6.855,3.076
					c-2.168,2.052-4.073,4.674-5.713,7.866c-1.641,3.194-2.931,6.724-3.867,10.591c-0.938,3.867-1.406,8.232-1.406,13.096
					c0,2.461,0.233,4.776,0.703,6.943c0.468,2.168,1.2,4.059,2.197,5.669c0.996,1.612,2.314,2.9,3.955,3.867
					C1014.867,684.642,1016.831,685.125,1019.116,685.125z"/>
				<path fill="#FFFFFF" d="M1064.731,585.004c-3.81,6.949-7.207,12.159-10.195,15.633c-2.988,3.475-5.419,5.211-7.295,5.211
					c-2.578,0-3.867-2.958-3.867-8.877c0-5.742,0.821-10.898,2.461-15.469c1.641-4.57,3.941-8.627,6.899-12.173
					c2.959-3.544,6.474-6.562,10.547-9.053c4.072-2.489,8.525-4.54,13.359-6.152c4.834-1.61,9.945-2.798,15.337-3.56
					c5.39-0.761,10.927-1.143,16.611-1.143c6.621,0,13.271,0.483,19.951,1.447c6.68,0.965,13.096,2.324,19.248,4.078
					c6.152,1.753,11.894,3.872,17.227,6.355c5.331,2.484,9.976,5.232,13.931,8.242s7.06,6.27,9.316,9.776
					c2.255,3.507,3.384,7.16,3.384,10.959c0,4.523-0.982,8.989-2.944,13.396c-1.964,4.404-5.04,8.385-9.229,11.938
					c-4.19,3.554-9.551,6.478-16.084,8.769c-6.534,2.291-14.37,3.525-23.511,3.701c5.801,0,10.868,0.943,15.205,2.829
					c4.335,1.887,7.968,4.432,10.898,7.636c2.929,3.203,5.126,7.036,6.592,11.497c1.464,4.46,2.197,8.996,2.197,13.606
					c0,3.633-0.499,7.322-1.494,11.07c-0.997,3.748-2.491,7.352-4.482,10.809c-1.993,3.459-4.482,6.702-7.471,9.729
					c-2.988,3.027-6.49,5.665-10.503,7.913c-4.014,2.248-8.541,4.021-13.579,5.319c-5.04,1.296-10.577,1.945-16.611,1.945
					c-3.81,0-7.822-0.23-12.041-0.689c-4.219-0.46-8.481-1.082-12.788-1.866c-4.307-0.786-8.541-1.718-12.7-2.799
					c-4.161-1.083-8.086-2.245-11.777-3.488c-1.641-0.379-3.091-0.946-4.351-1.704c-1.261-0.757-1.89-2.109-1.89-4.057
					c0-9.847,0.249-19.93,0.747-30.251c0.497-10.321,1.508-20.539,3.032-30.651c1.523-10.113,3.573-18.908,6.152-26.381
					c2.578-7.475,6.24-14.741,10.986-21.801c4.16-2.881,7.939-4.322,11.338-4.322c4.276,0,7.851,2.411,10.723,7.234
					c-2.696,3.684-4.996,7.781-6.899,12.295c-1.905,4.516-3.355,8.523-4.351,12.029c-0.997,3.504-1.89,7.84-2.681,13.006
					c-0.791,5.168-1.421,10.216-1.89,15.146c-0.294,2.791-0.542,5.895-0.747,9.311c-0.206,3.416-0.396,6.756-0.571,10.023
					s-0.308,6.52-0.396,9.756s-0.132,6.341-0.132,9.31c0,0.479,0,1.139,0,1.976c0,0.84,0.073,1.707,0.22,2.605
					c0.146,0.898,0.336,1.723,0.571,2.471c0.233,0.748,0.585,1.303,1.055,1.66c3.573,1.199,7.412,2.219,11.514,3.057
					c4.101,0.837,8.203,1.256,12.305,1.256c4.979,0,9.813-0.613,14.502-1.842c4.687-1.228,8.847-3.174,12.48-5.838
					c3.632-2.664,6.548-6.078,8.745-10.239s3.296-9.476,3.296-15.944c0-3.471-0.646-6.36-1.934-8.666
					c-1.29-2.305-2.975-4.235-5.054-5.793c-2.081-1.557-4.454-2.8-7.119-3.729c-2.667-0.928-5.392-1.766-8.174-2.514
					c-2.784-0.749-5.508-1.479-8.174-2.193c-2.667-0.715-5.04-1.621-7.119-2.721c-2.081-1.1-3.766-2.468-5.054-4.104
					c-1.29-1.636-1.934-3.762-1.934-6.379c0-1.23,0.073-2.299,0.22-3.208c0.146-0.907,0.497-1.655,1.055-2.241
					c0.556-0.585,1.376-1.024,2.461-1.318c1.083-0.293,2.562-0.439,4.438-0.439c2.519,0,4.819,0.104,6.899,0.308
					c2.079,0.206,4.32,0.308,6.724,0.308c5.625,0,10.708-0.691,15.249-2.072c4.54-1.381,8.407-3.249,11.602-5.602
					c3.193-2.353,5.654-5.102,7.383-8.25c1.728-3.146,2.593-6.514,2.593-10.102c0-2.352-0.674-4.513-2.021-6.483
					c-1.349-1.97-3.238-3.733-5.669-5.292c-2.432-1.559-5.289-2.927-8.569-4.103c-3.282-1.175-6.855-2.161-10.723-2.955
					s-7.94-1.383-12.217-1.765c-4.278-0.382-8.613-0.574-13.008-0.574c-7.09,0-12.599,0.236-16.523,0.707
					c-5.392,0.59-10.415,1.516-15.073,2.783c-4.658,1.266-8.789,2.898-12.393,4.9S1066.606,582.472,1064.731,585.004z"/>
				<path fill="#FFFFFF" d="M1225.571,703.492l1.934-10.623c-3.164,2.783-6.46,5.03-9.888,6.741
					c-3.428,1.712-6.754,2.565-9.976,2.565c-2.812,0-5.552-0.571-8.218-1.714c-2.667-1.143-5.025-2.782-7.075-4.922
					c-2.052-2.138-3.691-4.746-4.922-7.822s-1.846-6.548-1.846-10.415c0-5.098,0.35-9.77,1.053-14.018
					c0.702-4.246,1.568-9.49,2.598-15.73c1.03-6.24,2.247-11.164,3.653-14.768s3.017-7.25,4.833-10.943
					c1.346-2.637,3.279-4.643,5.798-6.021c2.519-1.376,4.979-2.065,7.38-2.065c2.049,0,3.807,0.514,5.271,1.539
					c1.464,1.026,2.197,2.623,2.197,4.793c0,0.646-0.073,1.349-0.216,2.111c-0.144,0.762-0.389,1.582-0.733,2.461
					c-1.036,2.697-1.909,5.903-2.621,9.618s-1.66,8.668-2.847,14.858c-1.187,6.193-2.127,11.103-2.823,14.73
					c-0.696,3.629-1.044,6.863-1.044,9.707c0,1.48,0.102,2.916,0.308,4.308c0.205,1.393,0.571,2.636,1.099,3.731
					s1.23,1.982,2.109,2.664c0.879,0.681,1.991,1.021,3.34,1.021c2.167,0,4.131-0.943,5.889-2.832s3.281-4.159,4.57-6.815
					c1.288-2.655,2.329-5.399,3.12-8.231s1.303-5.192,1.538-7.082l7.042-32.869c0.411-1.934,1.232-3.691,2.465-5.273
					c1.173-1.525,2.553-2.828,4.138-3.913c1.585-1.083,3.227-1.89,4.93-2.417c1.702-0.527,3.315-0.791,4.842-0.791
					c1.818,0,3.344,0.396,4.577,1.188c1.232,0.793,1.848,2.039,1.848,3.74c0,0.528-0.088,1.145-0.264,1.848
					c-0.274,1.561-0.641,3.654-1.1,6.283c-0.46,2.629-0.983,5.618-1.568,8.969c-0.585,3.352-1.404,8.051-2.454,14.098
					c-1.052,6.046-1.905,10.908-2.562,14.59c-1.484,8.697-2.998,18.043-4.54,28.033c1.78-0.994,3.7-2.223,5.758-3.687
					s4.348-3.425,6.868-5.884c2.519-2.458,5.332-5.547,8.438-9.264c3.105-3.718,15.66-21.428,19.527-26.99v27
					c-1.055,1.804-7.252,9.268-8.893,11.131c-1.758,1.979-3.633,3.899-5.625,5.762c-2.93,2.678-5.04,4.48-6.328,5.412
					c-0.41,0.291-2.549,1.974-6.416,5.047c-1.172,0.996-5.051,3.689-11.637,8.083c-1.604,1.055-2.701,2.974-3.294,5.756
					s-1.276,7.951-2.047,15.507c-0.336,2.156-0.547,3.816-0.63,4.982c-0.357,2.798-0.695,5.465-1.015,7.999
					c-0.321,2.535-0.89,5.429-1.708,8.683c-0.819,3.252-1.784,6.241-2.895,8.969c-1.112,2.725-2.574,5.436-4.386,8.133
					c-1.813,2.695-3.816,4.996-6.008,6.902c-2.193,1.903-4.839,3.441-7.939,4.615c-3.1,1.172-6.492,1.758-10.175,1.758
					c-2.983,0-5.746-0.337-8.289-1.01s-4.868-1.712-6.974-3.115c-2.105-1.406-3.83-3.324-5.174-5.752
					c-1.346-2.429-2.136-5.283-2.369-8.561c-0.47-6.205,1.23-12.76,5.098-19.666c2.167-3.864,3.691-6.542,4.57-8.033
					c0.879-1.493,2.255-3.644,4.131-6.453c1.875-2.752,3.837-5.239,5.889-7.463c4.101-4.625,7.484-8.342,10.151-11.149
					C1218.701,709.725,1221.88,706.712,1225.571,703.492z M1225.882,724.682c-4.11,2.929-8.162,7.616-12.152,14.061
					c-3.992,6.443-7.162,13.005-9.51,19.685c-1.938,5.624-0.972,8.437,2.895,8.437c1.406,0,2.666-0.176,3.779-0.527
					c1.112-0.352,2.138-0.981,3.076-1.89c0.937-0.909,1.758-1.904,2.461-2.988c0.703-1.085,1.45-2.607,2.241-4.57
					c0.791-1.964,1.494-3.897,2.109-5.801c0.615-1.904,1.391-4.438,2.329-7.603c0.527-1.7,0.919-3.593,1.174-5.677
					c0.255-2.088,0.56-4.594,0.916-7.52C1225.555,727.36,1225.783,725.491,1225.882,724.682z"/>
				<path fill="#FFFFFF" d="M1349.497,682.312c-5.633,3.282-10.65,6.152-15.05,8.613c-4.401,2.461-8.318,4.513-11.75,6.152
					c-3.433,1.641-6.483,2.871-9.153,3.691c-2.67,0.821-5.091,1.23-7.261,1.23c-4.43,0-8.334-1.348-11.714-4.043
					c-3.381-2.694-6.207-6.576-8.48-11.646c-2.272-5.067-3.977-11.206-5.113-18.413c-1.137-7.207-1.704-15.322-1.704-24.346
					c0-3.516,0.144-7.265,0.436-11.25c0.29-3.984,0.696-7.939,1.219-11.865c-1.77-0.261-3.142-0.506-4.114-0.733
					c-0.974-0.228-2.006-0.457-3.097-0.685c-1.092-0.229-2.478-0.473-4.159-0.734c-1.681-0.261-4.114-0.586-7.299-0.979
					c-1.415-0.195-2.506-0.568-3.274-1.123c-0.765-0.555-1.325-1.207-1.681-1.957c-0.353-0.75-0.559-1.533-0.619-2.349
					c-0.058-0.815-0.088-1.517-0.088-2.104c0-0.924,0.575-1.629,1.722-2.114c1.149-0.486,2.622-0.851,4.418-1.095
					c1.796-0.243,3.768-0.379,5.919-0.409c2.15-0.028,4.211-0.014,6.185,0.044c1.972,0.059,3.739,0.104,5.301,0.132
					c1.56,0.03,2.636-0.014,3.225-0.13c1.579-7.889,3.582-15.528,6.01-22.92c2.428-7.391,5.147-13.963,8.16-19.719
					c3.012-5.754,6.302-10.369,9.87-13.847s7.312-5.216,11.231-5.216c2.521,0,4.821,0.703,6.903,2.107
					c2.082,1.405,3.855,3.279,5.321,5.62c1.465,2.341,2.594,5.079,3.385,8.21c0.791,3.132,1.188,6.395,1.188,9.789
					c0,2.811-0.411,5.777-1.232,8.899c-0.821,3.124-1.935,6.306-3.341,9.544s-3.062,6.521-4.967,9.844
					c-1.905,3.325-3.913,6.621-6.022,9.889c0.529-0.193,1.409-0.23,2.641-0.113c1.23,0.119,2.652,0.202,4.264,0.249
					c1.611,0.046,3.354,0.093,5.229,0.14c1.875,0.047,3.691,0.101,5.449,0.158c1.758,0.059,3.397,0.118,4.922,0.176
					c1.523,0.059,2.782,0.118,3.779,0.176c1.171,0.066,2.021,0.719,2.549,1.957s0.791,2.805,0.791,4.695
					c0,2.189-0.588,3.972-1.761,5.348s-2.463,2.062-3.871,2.062h-33.787c-1.707,2.344-3.429,4.645-5.165,6.899
					c-1.736,2.257-3.34,4.293-4.811,6.108c-0.235,3.634-0.439,7.207-0.615,10.723c-0.059,1.524-0.118,3.092-0.176,4.702
					c-0.059,1.612-0.118,3.208-0.176,4.79c-0.059,1.582-0.103,3.106-0.132,4.57c-0.03,1.465-0.044,2.812-0.044,4.043
					c0,3.164,0.294,5.831,0.882,7.998c0.587,2.168,1.442,3.941,2.56,5.317c1.118,1.378,2.484,2.373,4.102,2.988
					s3.426,0.923,5.427,0.923c1.23,0,2.77-0.293,4.618-0.879c1.847-0.585,3.87-1.391,6.07-2.417c2.2-1.024,4.517-2.241,6.95-3.647
					s4.838-2.944,7.214-4.614s4.648-3.428,6.818-5.273s4.135-3.735,5.896-5.669V682.312z M1321.372,571.014
					c0-0.641-0.045-1.355-0.133-2.143c-0.088-0.789-0.279-1.531-0.573-2.232c-0.294-0.7-0.75-1.283-1.368-1.751
					c-0.618-0.467-1.486-0.7-2.603-0.7c-1.53,0-3.075,1.339-4.633,4.014c-1.559,2.676-3.058,6.094-4.5,10.252
					c-1.442,4.16-2.795,8.741-4.058,13.744c-1.265,5.003-2.427,9.86-3.486,14.57c0.882,0.088,1.765,0.164,2.646,0.229
					s1.793,0.142,2.736,0.228c1.765-2.952,3.604-6.15,5.515-9.595s3.631-6.831,5.161-10.159c1.53-3.329,2.794-6.441,3.794-9.336
					C1320.871,575.24,1321.372,572.867,1321.372,571.014z"/>
				<path fill="#FFFFFF" d="M1372.217,702c-5.471,0-10.258-1.014-14.362-3.042c-4.104-2.026-7.523-4.755-10.258-8.185
					c-2.736-3.43-4.788-7.396-6.155-11.898s-2.052-9.229-2.052-14.181c0-3.237,0.611-7.097,1.836-11.579
					c1.224-4.482,2.491-8.459,3.803-11.929c1.31-3.469,2.957-6.78,4.938-9.932c1.981-3.151,4.298-5.927,6.95-8.327
					s5.624-4.309,8.917-5.726c3.293-1.417,6.95-2.126,10.971-2.126c3.285,0,6.335,0.527,9.15,1.58
					c2.815,1.054,5.265,2.531,7.347,4.434s3.71,4.199,4.883,6.891c1.173,2.692,1.761,5.707,1.761,9.041
					c0,3.553-1.189,7.535-3.568,11.946s-5.152,8.192-8.323,11.343c-3.171,3.152-6.943,5.959-11.317,8.423
					c-4.375,2.464-9.116,4.384-14.225,5.759c0.881,1.547,1.75,2.836,2.603,3.868c0.851,1.031,1.719,1.833,2.602,2.405
					c0.882,0.573,1.809,0.975,2.778,1.203c0.97,0.23,2.015,0.344,3.132,0.344c3.516,0,7.221-0.687,11.118-2.062
					c3.896-1.375,7.69-3.094,11.382-5.156c3.691-2.063,7.177-4.312,10.459-6.746c3.281-2.436,6.064-4.74,8.35-6.919
					c0,0,0.703,21.866-5.098,26.089c-2.52,1.811-5.229,3.592-8.13,5.342s-5.948,3.305-9.141,4.661
					c-3.194,1.356-6.504,2.442-9.932,3.257C1379.209,701.594,1375.735,702,1372.217,702z M1360.483,660.139
					c2.118,0,4.426-0.527,6.925-1.588c2.5-1.061,4.822-2.422,6.97-4.083c2.146-1.661,4.249-3.896,6.308-6.703
					s3.088-5.128,3.088-6.962c0-2.577-0.486-4.697-1.456-6.359c-0.971-1.661-2.162-2.492-3.573-2.492
					c-2.53,0-4.691,0.459-6.485,1.376s-3.293,2.105-4.499,3.566c-1.206,1.462-2.177,3.122-2.911,4.983
					c-0.736,1.862-1.589,4.17-2.559,6.919c-0.971,2.749-1.515,5.013-1.633,6.788
					C1360.541,657.361,1360.483,658.879,1360.483,660.139z"/>
				<path fill="#FFFFFF" d="M1406.468,668.828c3.281-2.843,5.946-5.211,7.998-7.107c2.05-1.895,4.101-4.1,6.152-6.617
					c2.05-2.518,3.676-4.576,4.878-6.176c1.2-1.599,2.622-3.494,4.263-5.686c1.64-2.191,3.632-4.871,5.977-8.041
					c2.343-3.168,5.39-7.121,9.141-11.86c0.761-1.065,1.611-2.102,2.549-3.109c0.937-1.007,1.978-1.91,3.12-2.71
					c1.143-0.799,2.402-1.449,3.779-1.953c1.376-0.503,2.914-0.756,4.614-0.756c2.815,0,4.983,0.312,6.508,0.934
					c1.523,0.623,2.637,1.377,3.34,2.265c0.703,0.889,1.112,1.821,1.23,2.799c0.117,0.978,0.176,1.821,0.176,2.532
					c0,1.422-0.558,2.991-1.67,4.708c-1.114,1.718-2.344,3.377-3.691,4.976c-1.349,1.6-2.623,3.066-3.823,4.398
					c-1.202,1.332-1.891,2.324-2.069,2.976c0,1.837,0.133,3.509,0.402,5.02c0.269,1.511,0.627,2.991,1.077,4.441
					c0.447,1.452,0.912,2.991,1.39,4.62s0.937,3.51,1.376,5.641c0.439,2.133,0.497,5.064,0.176,8.797
					c-0.323,3.732-0.483,7.492-0.483,11.282c2.109-1.421,4.379-2.71,6.812-3.864c2.431-1.154,4.966-2.354,7.603-3.598
					s5.347-2.621,8.13-4.131c2.782-1.511,5.581-3.332,8.394-5.465l0.088,19.9c-3.634,2.713-7.837,5.256-12.612,7.629
					c-4.776,2.373-9.797,4.465-15.065,6.271c-5.268,1.808-10.581,3.234-15.942,4.279s-10.445,1.568-15.249,1.568
					c-3.458,0-6.68-0.309-9.668-0.924c-2.988-0.617-5.611-1.584-7.866-2.9c-2.256-1.317-4.087-3.041-5.493-5.171
					c-1.406-2.128-2.256-4.706-2.549-7.733c-0.821,0.18-1.626,0.297-2.417,0.355c-0.791,0.061-1.568,0.09-2.329,0.09
					c-0.938,0-1.817-0.029-2.637-0.088c-0.821-0.059-1.524-0.281-2.109-0.666c-0.586-0.385-1.055-1.006-1.406-1.866
					c-0.352-0.858-0.527-2.087-0.527-3.688c0-1.421,0.352-2.739,1.055-3.954c0.703-1.213,1.523-2.294,2.461-3.242
					c0.937-0.947,1.875-1.775,2.812-2.486C1405.295,669.807,1405.999,669.242,1406.468,668.828z M1417.437,680.199
					c0.703,0,1.479,0.445,2.329,1.333c0.849,0.889,1.831,1.866,2.944,2.933c1.112,1.065,2.402,2.043,3.867,2.932
					c1.464,0.889,3.134,1.332,5.01,1.332c2.285,0,4.175-0.385,5.669-1.154s2.681-1.791,3.56-3.066
					c0.879-1.272,1.494-2.753,1.846-4.44c0.352-1.688,0.527-3.45,0.527-5.288c0-1.598-0.103-3.225-0.308-4.885
					c-0.206-1.658-0.176-3.717,0.088-6.175s0.205-4.354-0.176-5.686c-0.382-1.332-0.718-2.474-1.011-3.421L1417.437,680.199z"/>
			</g>
		</g>
	</g>
</g>
<g id="texte_x5F_logo">
	<circle fill="none" stroke="#FFFFFF" stroke-width="32" stroke-opacity="0.85" cx="399" cy="500.036" r="142.036"/>
</g>
</svg>
