<?xml version="1.0" encoding="utf-8"?>
<!-- Generator: Adobe Illustrator 15.0.0, SVG Export Plug-In . SVG Version: 6.00 Build 0)  -->
<!DOCTYPE svg PUBLIC "-//W3C//DTD SVG 1.1//EN" "http://www.w3.org/Graphics/SVG/1.1/DTD/svg11.dtd">
<svg version="1.1" xmlns="http://www.w3.org/2000/svg" xmlns:xlink="http://www.w3.org/1999/xlink" x="0px" y="0px" viewBox="0 0 610 610" enable-background="new 0 0 610 610" xml:space="preserve">
<g id="fond" display="none">
	<rect x="-2" y="-2" display="inline" fill="#175973" width="614" height="615"/>
</g>
<g id="contour">
</g>
<g id="fond_x5F_logo">
</g>
<g id="haut_x5F_logo">
</g>
<g id="texte_x5F_hors_x5F_logo" display="none">
	<g display="inline" opacity="0.8">
		<g>
			<path d="M215.704,509.875c-8.731,0-16.598-1.771-23.599-5.313c-7.002-3.543-12.964-8.492-17.886-14.851
				s-8.701-13.935-11.338-22.732c-2.637-8.797-3.955-18.449-3.955-28.961c0-5.66,0.409-11.469,1.23-17.424
				c0.82-5.955,2.065-11.896,3.735-17.822s3.749-11.732,6.24-17.424c2.49-5.689,5.39-11.07,8.701-16.142
				c3.31-5.07,7.016-9.743,11.118-14.019c4.101-4.275,8.627-7.961,13.579-11.057c4.951-3.096,10.283-5.512,15.996-7.252
				c5.713-1.738,11.85-2.609,18.413-2.609c8.789,0,16.655,1.592,23.599,4.771c6.943,3.182,12.802,7.629,17.578,13.344
				c4.775,5.714,8.438,12.533,10.986,20.457s3.823,16.656,3.823,26.199c0,7.828-0.777,15.99-2.329,24.488
				c-1.553,8.5-3.823,16.852-6.812,25.059s-6.71,16.02-11.162,23.438c-4.454,7.419-9.58,13.932-15.381,19.538
				c-5.801,5.607-12.261,10.061-19.38,13.362C231.744,508.225,224.023,509.875,215.704,509.875z M217.813,489.484
				c4.687,0,9.053-0.914,13.096-2.745s7.748-4.341,11.118-7.53c3.369-3.188,6.445-6.924,9.229-11.205
				c2.782-4.282,5.258-8.873,7.427-13.775c2.167-4.902,4.057-9.98,5.669-15.237c1.611-5.255,2.944-10.452,3.999-15.59
				s1.831-10.084,2.329-14.839c0.497-4.754,0.747-9.08,0.747-12.977c0-5.67-0.615-10.999-1.846-15.99
				c-1.23-4.99-3.091-9.33-5.581-13.021c-2.491-3.691-5.625-6.6-9.404-8.725c-3.779-2.127-8.189-3.189-13.228-3.189
				c-5.392,0-10.606,1.314-15.645,3.943c-5.04,2.628-9.786,6.171-14.238,10.629c-4.454,4.459-8.525,9.627-12.217,15.503
				s-6.855,12.063-9.492,18.559s-4.688,13.11-6.152,19.843c-1.465,6.732-2.197,13.168-2.197,19.31c0,6.675,0.835,12.89,2.505,18.646
				c1.67,5.759,4.072,10.733,7.207,14.927c3.134,4.193,6.943,7.485,11.426,9.878C207.047,488.289,212.129,489.484,217.813,489.484z"
				/>
			<path d="M331.146,493c-5.427,0-10.189-0.996-14.289-2.988c-4.099-1.991-7.535-4.658-10.307-7.998
				c-2.772-3.34-4.867-7.207-6.281-11.602c-1.416-4.395-2.123-8.965-2.123-13.711c0-3.397,0.588-7.471,1.766-12.217
				s2.459-8.891,3.844-12.437c1.384-3.544,3.091-6.929,5.124-10.151c2.033-3.222,4.388-6.049,7.068-8.481
				c2.681-2.431,5.67-4.364,8.969-5.801c3.298-1.435,6.92-2.153,10.867-2.153c3.553,0,6.842,0.514,9.866,1.538
				c3.024,1.026,5.611,2.447,7.762,4.263c2.151,1.816,3.833,3.971,5.05,6.46c1.215,2.491,1.824,5.172,1.824,8.042
				c0,1.992-0.286,3.955-0.857,5.889s-1.681,4.205-3.329,6.812c-1.648,2.608-3.25,4.381-4.803,5.317
				c-1.553,0.938-3.312,1.406-5.277,1.406c-2.964,0-4.878-0.732-5.742-2.197c-1.42-2.285-1.868-4.307-1.343-6.064
				c0.174-0.937,0.699-3.105,1.575-6.504c0.117-0.469,0.146-1.523,0.088-3.164c0-1.406-0.147-2.578-0.438-3.516
				c-0.291-0.937-0.933-1.406-1.924-1.406c-2.392,0-4.434,0.571-6.126,1.714s-3.137,2.637-4.332,4.482
				c-1.196,1.846-2.377,4.454-3.544,7.822c-1.167,3.37-1.998,6.196-2.494,8.481c-0.496,2.285-0.802,4.469-0.919,6.548
				c-0.117,2.081-0.174,3.823-0.174,5.229c0,2.109,0.189,4.307,0.568,6.592c0.379,2.285,1.137,4.381,2.274,6.284
				c1.137,1.905,2.61,3.487,4.419,4.746c1.809,1.261,4.142,1.89,7.001,1.89c2.812,0,5.917-0.863,9.316-2.593
				c3.397-1.728,6.812-3.911,10.239-6.548s6.693-5.537,9.8-8.701c3.105-3.164,5.771-6.152,7.998-8.965l6.064,10.195
				c-4.395,6.271-9.141,11.865-14.238,16.787c-2.168,2.109-4.526,4.161-7.075,6.152c-2.549,1.992-5.216,3.766-7.998,5.317
				c-2.784,1.554-5.684,2.812-8.701,3.779C337.295,492.517,334.24,493,331.146,493z"/>
			<path d="M443.077,473.312c-5.633,3.282-10.65,6.152-15.05,8.613c-4.401,2.461-8.318,4.513-11.75,6.152
				c-3.433,1.641-6.483,2.871-9.153,3.691c-2.67,0.821-5.091,1.23-7.261,1.23c-4.43,0-8.334-1.348-11.714-4.043
				c-3.381-2.694-6.207-6.576-8.48-11.646c-2.272-5.067-3.977-11.206-5.113-18.413c-1.137-7.207-1.704-15.322-1.704-24.346
				c0-3.516,0.144-7.265,0.436-11.25c0.29-3.984,0.696-7.939,1.219-11.865c-1.77-0.261-3.142-0.506-4.114-0.733
				c-0.974-0.228-2.006-0.457-3.097-0.685c-1.092-0.229-2.478-0.473-4.159-0.734c-1.681-0.261-4.114-0.586-7.299-0.979
				c-1.415-0.195-2.506-0.568-3.274-1.123c-0.765-0.555-1.325-1.207-1.681-1.957c-0.353-0.75-0.559-1.533-0.619-2.349
				c-0.058-0.815-0.088-1.517-0.088-2.104c0-0.924,0.575-1.629,1.722-2.114c1.149-0.486,2.622-0.851,4.418-1.095
				c1.796-0.243,3.768-0.379,5.919-0.409c2.15-0.028,4.211-0.014,6.185,0.044c1.972,0.059,3.739,0.104,5.301,0.132
				c1.56,0.03,2.636-0.014,3.225-0.13c1.579-7.889,3.582-15.528,6.01-22.92c2.428-7.391,5.147-13.963,8.16-19.719
				c3.012-5.754,6.302-10.369,9.87-13.847s7.312-5.216,11.231-5.216c2.521,0,4.821,0.703,6.903,2.107
				c2.082,1.405,3.855,3.279,5.321,5.62c1.465,2.341,2.594,5.079,3.385,8.21c0.791,3.132,1.188,6.395,1.188,9.789
				c0,2.811-0.411,5.777-1.232,8.899c-0.821,3.124-1.935,6.306-3.341,9.544s-3.062,6.521-4.967,9.844
				c-1.905,3.325-3.913,6.621-6.022,9.889c0.529-0.193,1.409-0.23,2.641-0.113c1.23,0.119,2.652,0.202,4.264,0.249
				c1.611,0.046,3.354,0.093,5.229,0.14c1.875,0.047,3.691,0.101,5.449,0.158c1.758,0.059,3.397,0.118,4.922,0.176
				c1.523,0.059,2.782,0.118,3.779,0.176c1.171,0.066,2.021,0.719,2.549,1.957s0.791,2.805,0.791,4.695
				c0,2.189-0.588,3.972-1.761,5.348s-2.463,2.062-3.871,2.062h-33.787c-1.707,2.344-3.429,4.645-5.165,6.899
				c-1.736,2.257-3.34,4.293-4.811,6.108c-0.235,3.634-0.439,7.207-0.615,10.723c-0.059,1.524-0.118,3.092-0.176,4.702
				c-0.059,1.612-0.118,3.208-0.176,4.79c-0.059,1.582-0.103,3.106-0.132,4.57c-0.03,1.465-0.044,2.812-0.044,4.043
				c0,3.164,0.294,5.831,0.882,7.998c0.587,2.168,1.442,3.941,2.56,5.317c1.118,1.378,2.484,2.373,4.102,2.988
				s3.426,0.923,5.427,0.923c1.23,0,2.77-0.293,4.618-0.879c1.847-0.585,3.87-1.391,6.07-2.417c2.2-1.024,4.517-2.241,6.95-3.647
				s4.838-2.944,7.214-4.614s4.648-3.428,6.818-5.273s4.135-3.735,5.896-5.669V473.312z M414.952,362.014
				c0-0.641-0.045-1.355-0.133-2.143c-0.088-0.789-0.279-1.531-0.573-2.232c-0.294-0.7-0.75-1.283-1.368-1.751
				c-0.618-0.467-1.486-0.7-2.603-0.7c-1.53,0-3.075,1.339-4.633,4.014c-1.559,2.676-3.058,6.094-4.5,10.252
				c-1.442,4.16-2.795,8.741-4.058,13.744c-1.265,5.003-2.427,9.86-3.486,14.57c0.882,0.088,1.765,0.164,2.646,0.229
				s1.793,0.142,2.736,0.228c1.765-2.952,3.604-6.15,5.515-9.595s3.631-6.831,5.161-10.159c1.53-3.329,2.794-6.441,3.794-9.336
				C414.451,366.24,414.952,363.867,414.952,362.014z"/>
			<path d="M490.274,425.236c1.699,3.398,2.973,6.987,3.823,10.767c0.849,3.779,1.274,8.042,1.274,12.788
				c0,3.458-0.382,6.943-1.143,10.459c-0.762,3.516-1.861,6.914-3.296,10.195c-1.437,3.282-3.194,6.358-5.273,9.229
				c-2.081,2.871-4.454,5.361-7.119,7.471c-2.667,2.109-5.581,3.779-8.745,5.01S463.262,493,459.688,493
				c-5.157,0-9.566-1.127-13.228-3.384c-3.663-2.255-6.666-5.199-9.009-8.833c-2.344-3.633-4.058-7.734-5.142-12.305
				c-1.085-4.57-1.626-9.198-1.626-13.887c0-7.734,0.967-14.398,2.9-19.995c1.934-5.595,4.702-10.459,8.306-14.59
				s8.012-7.383,13.228-9.756c5.214-2.373,11.074-3.56,17.578-3.56c5.566,0,10.78,0.865,15.645,2.593
				c4.863,1.729,9.418,4.043,13.667,6.943c4.248,2.9,8.203,6.548,11.865,10.942c3.661,4.395,7.075,8.584,10.239,12.568l-1.67,12.393
				c-1.582-2.109-3.722-4.395-6.416-6.855c-2.696-2.461-5.552-5.186-8.569-8.174c-3.019-2.988-5.992-5.521-8.921-7.603
				c-2.931-2.079-5.449-3.823-7.559-5.229L490.274,425.236z M463.116,476.125c1.991,0,3.925-1.011,5.801-3.032
				c1.875-2.021,3.516-4.57,4.922-7.646s2.534-6.796,3.384-11.162c0.849-4.364,1.274-8.247,1.274-11.646
				c0-2.694-0.206-5.199-0.615-7.515c-0.411-2.313-1.026-4.32-1.846-6.021c-0.821-1.699-1.876-3.046-3.164-4.043
				c-1.29-0.996-2.843-1.494-4.658-1.494c-2.403,0-4.688,1.025-6.855,3.076c-2.168,2.052-4.073,4.674-5.713,7.866
				c-1.641,3.194-2.931,6.724-3.867,10.591c-0.938,3.867-1.406,8.232-1.406,13.096c0,2.461,0.233,4.776,0.703,6.943
				c0.468,2.168,1.2,4.059,2.197,5.669c0.996,1.612,2.314,2.9,3.955,3.867C458.867,475.642,460.831,476.125,463.116,476.125z"/>
			<path d="M508.731,376.004c-3.81,6.949-7.207,12.159-10.195,15.633c-2.988,3.475-5.419,5.211-7.295,5.211
				c-2.578,0-3.867-2.958-3.867-8.877c0-5.742,0.821-10.898,2.461-15.469c1.641-4.57,3.941-8.627,6.899-12.173
				c2.959-3.544,6.474-6.562,10.547-9.053c4.072-2.489,8.525-4.54,13.359-6.152c4.834-1.61,9.945-2.798,15.337-3.56
				c5.39-0.761,10.927-1.143,16.611-1.143c6.621,0,13.271,0.483,19.951,1.447c6.68,0.965,13.096,2.324,19.248,4.078
				c6.152,1.753,11.894,3.872,17.227,6.355c5.331,2.484,9.976,5.232,13.931,8.242s7.06,6.27,9.316,9.776
				c2.255,3.507,3.384,7.16,3.384,10.959c0,4.523-0.982,8.989-2.944,13.396c-1.964,4.404-5.04,8.385-9.229,11.938
				c-4.19,3.554-9.551,6.478-16.084,8.769c-6.534,2.291-14.37,3.525-23.511,3.701c5.801,0,10.868,0.943,15.205,2.829
				c4.335,1.887,7.968,4.432,10.898,7.636c2.929,3.203,5.126,7.036,6.592,11.497c1.464,4.46,2.197,8.996,2.197,13.606
				c0,3.633-0.499,7.322-1.494,11.07c-0.997,3.748-2.491,7.352-4.482,10.809c-1.993,3.459-4.482,6.702-7.471,9.729
				c-2.988,3.027-6.49,5.665-10.503,7.913c-4.014,2.248-8.541,4.021-13.579,5.319c-5.04,1.296-10.577,1.945-16.611,1.945
				c-3.81,0-7.822-0.23-12.041-0.689c-4.219-0.46-8.481-1.082-12.788-1.866c-4.307-0.786-8.541-1.718-12.7-2.799
				c-4.161-1.083-8.086-2.245-11.777-3.488c-1.641-0.379-3.091-0.946-4.351-1.704c-1.261-0.757-1.89-2.109-1.89-4.057
				c0-9.847,0.249-19.93,0.747-30.251c0.497-10.321,1.508-20.539,3.032-30.651c1.523-10.113,3.573-18.908,6.152-26.381
				c2.578-7.475,6.24-14.741,10.986-21.801c4.16-2.881,7.939-4.322,11.338-4.322c4.276,0,7.851,2.411,10.723,7.234
				c-2.696,3.684-4.996,7.781-6.899,12.295c-1.905,4.516-3.355,8.523-4.351,12.029c-0.997,3.504-1.89,7.84-2.681,13.006
				c-0.791,5.168-1.421,10.216-1.89,15.146c-0.294,2.791-0.542,5.895-0.747,9.311c-0.206,3.416-0.396,6.756-0.571,10.023
				s-0.308,6.52-0.396,9.756s-0.132,6.341-0.132,9.31c0,0.479,0,1.139,0,1.976c0,0.84,0.073,1.707,0.22,2.605
				c0.146,0.898,0.336,1.723,0.571,2.471c0.233,0.748,0.585,1.303,1.055,1.66c3.573,1.199,7.412,2.219,11.514,3.057
				c4.101,0.837,8.203,1.256,12.305,1.256c4.979,0,9.813-0.613,14.502-1.842c4.687-1.228,8.847-3.174,12.48-5.838
				c3.632-2.664,6.548-6.078,8.745-10.239s3.296-9.476,3.296-15.944c0-3.471-0.646-6.36-1.934-8.666
				c-1.29-2.305-2.975-4.235-5.054-5.793c-2.081-1.557-4.454-2.8-7.119-3.729c-2.667-0.928-5.392-1.766-8.174-2.514
				c-2.784-0.749-5.508-1.479-8.174-2.193c-2.667-0.715-5.04-1.621-7.119-2.721c-2.081-1.1-3.766-2.468-5.054-4.104
				c-1.29-1.636-1.934-3.762-1.934-6.379c0-1.23,0.073-2.299,0.22-3.208c0.146-0.907,0.497-1.655,1.055-2.241
				c0.556-0.585,1.376-1.024,2.461-1.318c1.083-0.293,2.562-0.439,4.438-0.439c2.519,0,4.819,0.104,6.899,0.308
				c2.079,0.206,4.32,0.308,6.724,0.308c5.625,0,10.708-0.691,15.249-2.072c4.54-1.381,8.407-3.249,11.602-5.602
				c3.193-2.353,5.654-5.102,7.383-8.25c1.728-3.146,2.593-6.514,2.593-10.102c0-2.352-0.674-4.513-2.021-6.483
				c-1.349-1.97-3.238-3.733-5.669-5.292c-2.432-1.559-5.289-2.927-8.569-4.103c-3.282-1.175-6.855-2.161-10.723-2.955
				s-7.94-1.383-12.217-1.765c-4.278-0.382-8.613-0.574-13.008-0.574c-7.09,0-12.599,0.236-16.523,0.707
				c-5.392,0.59-10.415,1.516-15.073,2.783c-4.658,1.266-8.789,2.898-12.393,4.9S510.606,373.472,508.731,376.004z"/>
			<path d="M669.571,494.492l1.934-10.623c-3.164,2.783-6.46,5.03-9.888,6.741c-3.428,1.712-6.754,2.565-9.976,2.565
				c-2.812,0-5.552-0.571-8.218-1.714c-2.667-1.143-5.025-2.782-7.075-4.922c-2.052-2.138-3.691-4.746-4.922-7.822
				s-1.846-6.548-1.846-10.415c0-5.098,0.35-9.77,1.053-14.018c0.702-4.246,1.568-9.49,2.598-15.73
				c1.03-6.24,2.247-11.164,3.653-14.768s3.017-7.25,4.833-10.943c1.346-2.637,3.279-4.643,5.798-6.021
				c2.519-1.376,4.979-2.065,7.38-2.065c2.049,0,3.807,0.514,5.271,1.539c1.464,1.026,2.197,2.623,2.197,4.793
				c0,0.646-0.073,1.349-0.216,2.111c-0.144,0.762-0.389,1.582-0.733,2.461c-1.036,2.697-1.909,5.903-2.621,9.618
				s-1.66,8.668-2.847,14.858c-1.187,6.193-2.127,11.103-2.823,14.73c-0.696,3.629-1.044,6.863-1.044,9.707
				c0,1.48,0.102,2.916,0.308,4.308c0.205,1.393,0.571,2.636,1.099,3.731s1.23,1.982,2.109,2.664
				c0.879,0.681,1.991,1.021,3.34,1.021c2.167,0,4.131-0.943,5.889-2.832s3.281-4.159,4.57-6.815
				c1.288-2.655,2.329-5.399,3.12-8.231s1.303-5.192,1.538-7.082l7.042-32.869c0.411-1.934,1.232-3.691,2.465-5.273
				c1.173-1.525,2.553-2.828,4.138-3.913c1.585-1.083,3.227-1.89,4.93-2.417c1.702-0.527,3.315-0.791,4.842-0.791
				c1.818,0,3.344,0.396,4.577,1.188c1.232,0.793,1.848,2.039,1.848,3.74c0,0.528-0.088,1.145-0.264,1.848
				c-0.274,1.561-0.641,3.654-1.1,6.283c-0.46,2.629-0.983,5.618-1.568,8.969c-0.585,3.352-1.404,8.051-2.454,14.098
				c-1.052,6.046-1.905,10.908-2.562,14.59c-1.484,8.697-2.998,18.043-4.54,28.033c1.78-0.994,3.7-2.223,5.758-3.687
				s4.348-3.425,6.868-5.884c2.519-2.458,5.332-5.547,8.438-9.264c3.105-3.718,6.592-8.357,10.459-13.92l4.219,19.561
				c-1.055,1.804-2.403,3.637-4.043,5.5c-1.758,1.979-3.633,3.899-5.625,5.762c-2.93,2.678-5.04,4.48-6.328,5.412
				c-0.41,0.291-2.549,1.974-6.416,5.047c-1.172,0.996-5.051,3.689-11.637,8.083c-1.604,1.055-2.701,2.974-3.294,5.756
				s-1.276,7.951-2.047,15.507c-0.336,2.156-0.547,3.816-0.63,4.982c-0.357,2.798-0.695,5.465-1.015,7.999
				c-0.321,2.535-0.89,5.429-1.708,8.683c-0.819,3.252-1.784,6.241-2.895,8.969c-1.112,2.725-2.574,5.436-4.386,8.133
				c-1.813,2.695-3.816,4.996-6.008,6.902c-2.193,1.903-4.839,3.441-7.939,4.615c-3.1,1.172-6.492,1.758-10.175,1.758
				c-2.983,0-5.746-0.337-8.289-1.01s-4.868-1.712-6.974-3.115c-2.105-1.406-3.83-3.324-5.174-5.752
				c-1.346-2.429-2.136-5.283-2.369-8.561c-0.47-6.205,1.23-12.76,5.098-19.666c2.167-3.864,3.691-6.542,4.57-8.033
				c0.879-1.493,2.255-3.644,4.131-6.453c1.875-2.752,3.837-5.239,5.889-7.463c4.101-4.625,7.484-8.342,10.151-11.149
				C662.701,500.725,665.88,497.712,669.571,494.492z M669.882,515.682c-4.11,2.929-8.162,7.616-12.152,14.061
				c-3.992,6.443-7.162,13.005-9.51,19.685c-1.938,5.624-0.972,8.437,2.895,8.437c1.406,0,2.666-0.176,3.779-0.527
				c1.112-0.352,2.138-0.981,3.076-1.89c0.937-0.909,1.758-1.904,2.461-2.988c0.703-1.085,1.45-2.607,2.241-4.57
				c0.791-1.964,1.494-3.897,2.109-5.801c0.615-1.904,1.391-4.438,2.329-7.603c0.527-1.7,0.919-3.593,1.174-5.677
				c0.255-2.088,0.56-4.594,0.916-7.52C669.555,518.36,669.783,516.491,669.882,515.682z"/>
			<path d="M793.497,473.312c-5.633,3.282-10.65,6.152-15.05,8.613c-4.401,2.461-8.318,4.513-11.75,6.152
				c-3.433,1.641-6.483,2.871-9.153,3.691c-2.67,0.821-5.091,1.23-7.261,1.23c-4.43,0-8.334-1.348-11.714-4.043
				c-3.381-2.694-6.207-6.576-8.48-11.646c-2.272-5.067-3.977-11.206-5.113-18.413c-1.137-7.207-1.704-15.322-1.704-24.346
				c0-3.516,0.144-7.265,0.436-11.25c0.29-3.984,0.696-7.939,1.219-11.865c-1.77-0.261-3.142-0.506-4.114-0.733
				c-0.974-0.228-2.006-0.457-3.097-0.685c-1.092-0.229-2.478-0.473-4.159-0.734c-1.681-0.261-4.114-0.586-7.299-0.979
				c-1.415-0.195-2.506-0.568-3.274-1.123c-0.765-0.555-1.325-1.207-1.681-1.957c-0.353-0.75-0.559-1.533-0.619-2.349
				c-0.058-0.815-0.088-1.517-0.088-2.104c0-0.924,0.575-1.629,1.722-2.114c1.149-0.486,2.622-0.851,4.418-1.095
				c1.796-0.243,3.768-0.379,5.919-0.409c2.15-0.028,4.211-0.014,6.185,0.044c1.972,0.059,3.739,0.104,5.301,0.132
				c1.56,0.03,2.636-0.014,3.225-0.13c1.579-7.889,3.582-15.528,6.01-22.92c2.428-7.391,5.147-13.963,8.16-19.719
				c3.012-5.754,6.302-10.369,9.87-13.847s7.312-5.216,11.231-5.216c2.521,0,4.821,0.703,6.903,2.107
				c2.082,1.405,3.855,3.279,5.321,5.62c1.465,2.341,2.594,5.079,3.385,8.21c0.791,3.132,1.188,6.395,1.188,9.789
				c0,2.811-0.411,5.777-1.232,8.899c-0.821,3.124-1.935,6.306-3.341,9.544s-3.062,6.521-4.967,9.844
				c-1.905,3.325-3.913,6.621-6.022,9.889c0.529-0.193,1.409-0.23,2.641-0.113c1.23,0.119,2.652,0.202,4.264,0.249
				c1.611,0.046,3.354,0.093,5.229,0.14c1.875,0.047,3.691,0.101,5.449,0.158c1.758,0.059,3.397,0.118,4.922,0.176
				c1.523,0.059,2.782,0.118,3.779,0.176c1.171,0.066,2.021,0.719,2.549,1.957s0.791,2.805,0.791,4.695
				c0,2.189-0.588,3.972-1.761,5.348s-2.463,2.062-3.871,2.062h-33.787c-1.707,2.344-3.429,4.645-5.165,6.899
				c-1.736,2.257-3.34,4.293-4.811,6.108c-0.235,3.634-0.439,7.207-0.615,10.723c-0.059,1.524-0.118,3.092-0.176,4.702
				c-0.059,1.612-0.118,3.208-0.176,4.79c-0.059,1.582-0.103,3.106-0.132,4.57c-0.03,1.465-0.044,2.812-0.044,4.043
				c0,3.164,0.294,5.831,0.882,7.998c0.587,2.168,1.442,3.941,2.56,5.317c1.118,1.378,2.484,2.373,4.102,2.988
				s3.426,0.923,5.427,0.923c1.23,0,2.77-0.293,4.618-0.879c1.847-0.585,3.87-1.391,6.07-2.417c2.2-1.024,4.517-2.241,6.95-3.647
				s4.838-2.944,7.214-4.614s4.648-3.428,6.818-5.273s4.135-3.735,5.896-5.669V473.312z M765.372,362.014
				c0-0.641-0.045-1.355-0.133-2.143c-0.088-0.789-0.279-1.531-0.573-2.232c-0.294-0.7-0.75-1.283-1.368-1.751
				c-0.618-0.467-1.486-0.7-2.603-0.7c-1.53,0-3.075,1.339-4.633,4.014c-1.559,2.676-3.058,6.094-4.5,10.252
				c-1.442,4.16-2.795,8.741-4.058,13.744c-1.265,5.003-2.427,9.86-3.486,14.57c0.882,0.088,1.765,0.164,2.646,0.229
				s1.793,0.142,2.736,0.228c1.765-2.952,3.604-6.15,5.515-9.595s3.631-6.831,5.161-10.159c1.53-3.329,2.794-6.441,3.794-9.336
				C764.871,366.24,765.372,363.867,765.372,362.014z"/>
			<path d="M816.217,493c-5.471,0-10.258-1.014-14.362-3.042c-4.104-2.026-7.523-4.755-10.258-8.185
				c-2.736-3.43-4.788-7.396-6.155-11.898s-2.052-9.229-2.052-14.181c0-3.237,0.611-7.097,1.836-11.579
				c1.224-4.482,2.491-8.459,3.803-11.929c1.31-3.469,2.957-6.78,4.938-9.932c1.981-3.151,4.298-5.927,6.95-8.327
				s5.624-4.309,8.917-5.726c3.293-1.417,6.95-2.126,10.971-2.126c3.285,0,6.335,0.527,9.15,1.58
				c2.815,1.054,5.265,2.531,7.347,4.434s3.71,4.199,4.883,6.891c1.173,2.692,1.761,5.707,1.761,9.041
				c0,3.553-1.189,7.535-3.568,11.946s-5.152,8.192-8.323,11.343c-3.171,3.152-6.943,5.959-11.317,8.423
				c-4.375,2.464-9.116,4.384-14.225,5.759c0.881,1.547,1.75,2.836,2.603,3.868c0.851,1.031,1.719,1.833,2.602,2.405
				c0.882,0.573,1.809,0.975,2.778,1.203c0.97,0.23,2.015,0.344,3.132,0.344c3.516,0,7.221-0.687,11.118-2.062
				c3.896-1.375,7.69-3.094,11.382-5.156c3.691-2.063,7.177-4.312,10.459-6.746c3.281-2.436,6.064-4.74,8.35-6.919l11.338,11.517
				c-5.157,5.492-10.635,10.35-16.436,14.572c-2.52,1.811-5.229,3.592-8.13,5.342s-5.948,3.305-9.141,4.661
				c-3.194,1.356-6.504,2.442-9.932,3.257C823.209,492.594,819.735,493,816.217,493z M804.483,451.139
				c2.118,0,4.426-0.527,6.925-1.588c2.5-1.061,4.822-2.422,6.97-4.083c2.146-1.661,4.249-3.896,6.308-6.703
				s3.088-5.128,3.088-6.962c0-2.577-0.486-4.697-1.456-6.359c-0.971-1.661-2.162-2.492-3.573-2.492
				c-2.53,0-4.691,0.459-6.485,1.376s-3.293,2.105-4.499,3.566c-1.206,1.462-2.177,3.122-2.911,4.983
				c-0.736,1.862-1.589,4.17-2.559,6.919c-0.971,2.749-1.515,5.013-1.633,6.788C804.541,448.361,804.483,449.879,804.483,451.139z"
				/>
			<path d="M850.468,459.828c3.281-2.843,5.946-5.211,7.998-7.107c2.05-1.895,4.101-4.1,6.152-6.617
				c2.05-2.518,3.676-4.576,4.878-6.176c1.2-1.599,2.622-3.494,4.263-5.686c1.64-2.191,3.632-4.871,5.977-8.041
				c2.343-3.168,5.39-7.121,9.141-11.86c0.761-1.065,1.611-2.102,2.549-3.109c0.937-1.007,1.978-1.91,3.12-2.71
				c1.143-0.799,2.402-1.449,3.779-1.953c1.376-0.503,2.914-0.756,4.614-0.756c2.815,0,4.983,0.312,6.508,0.934
				c1.523,0.623,2.637,1.377,3.34,2.265c0.703,0.889,1.112,1.821,1.23,2.799c0.117,0.978,0.176,1.821,0.176,2.532
				c0,1.422-0.558,2.991-1.67,4.708c-1.114,1.718-2.344,3.377-3.691,4.976c-1.349,1.6-2.623,3.066-3.823,4.398
				c-1.202,1.332-1.891,2.324-2.069,2.976c0,1.837,0.133,3.509,0.402,5.02c0.269,1.511,0.627,2.991,1.077,4.441
				c0.447,1.452,0.912,2.991,1.39,4.62s0.937,3.51,1.376,5.641c0.439,2.133,0.497,5.064,0.176,8.797
				c-0.323,3.732-0.483,7.492-0.483,11.282c2.109-1.421,4.379-2.71,6.812-3.864c2.431-1.154,4.966-2.354,7.603-3.598
				s5.347-2.621,8.13-4.131c2.782-1.511,5.581-3.332,8.394-5.465l0.088,19.9c-3.634,2.713-7.837,5.256-12.612,7.629
				c-4.776,2.373-9.797,4.465-15.065,6.271c-5.268,1.808-10.581,3.234-15.942,4.279s-10.445,1.568-15.249,1.568
				c-3.458,0-6.68-0.309-9.668-0.924c-2.988-0.617-5.611-1.584-7.866-2.9c-2.256-1.317-4.087-3.041-5.493-5.171
				c-1.406-2.128-2.256-4.706-2.549-7.733c-0.821,0.18-1.626,0.297-2.417,0.355c-0.791,0.061-1.568,0.09-2.329,0.09
				c-0.938,0-1.817-0.029-2.637-0.088c-0.821-0.059-1.524-0.281-2.109-0.666c-0.586-0.385-1.055-1.006-1.406-1.866
				c-0.352-0.858-0.527-2.087-0.527-3.688c0-1.421,0.352-2.739,1.055-3.954c0.703-1.213,1.523-2.294,2.461-3.242
				c0.937-0.947,1.875-1.775,2.812-2.486C849.295,460.807,849.999,460.242,850.468,459.828z M861.437,471.199
				c0.703,0,1.479,0.445,2.329,1.333c0.849,0.889,1.831,1.866,2.944,2.933c1.112,1.065,2.402,2.043,3.867,2.932
				c1.464,0.889,3.134,1.332,5.01,1.332c2.285,0,4.175-0.385,5.669-1.154s2.681-1.791,3.56-3.066
				c0.879-1.272,1.494-2.753,1.846-4.44c0.352-1.688,0.527-3.45,0.527-5.288c0-1.598-0.103-3.225-0.308-4.885
				c-0.206-1.658-0.176-3.717,0.088-6.175s0.205-4.354-0.176-5.686c-0.382-1.332-0.718-2.474-1.011-3.421L861.437,471.199z"/>
		</g>
		<g>
			<g>
				<path fill="#FFFFFF" d="M211.704,505.875c-8.731,0-16.598-1.771-23.599-5.313c-7.002-3.543-12.964-8.492-17.886-14.851
					s-8.701-13.935-11.338-22.732c-2.637-8.797-3.955-18.449-3.955-28.961c0-5.66,0.409-11.469,1.23-17.424
					c0.82-5.955,2.065-11.896,3.735-17.822s3.749-11.732,6.24-17.424c2.49-5.689,5.39-11.07,8.701-16.142
					c3.31-5.07,7.016-9.743,11.118-14.019c4.101-4.275,8.627-7.961,13.579-11.057c4.951-3.096,10.283-5.512,15.996-7.252
					c5.713-1.738,11.85-2.609,18.413-2.609c8.789,0,16.655,1.592,23.599,4.771c6.943,3.182,12.802,7.629,17.578,13.344
					c4.775,5.714,8.438,12.533,10.986,20.457s3.823,16.656,3.823,26.199c0,7.828-0.777,15.99-2.329,24.488
					c-1.553,8.5-3.823,16.852-6.812,25.059s-6.71,16.02-11.162,23.438c-4.454,7.419-9.58,13.932-15.381,19.538
					c-5.801,5.607-12.261,10.061-19.38,13.362C227.744,504.225,220.023,505.875,211.704,505.875z M213.813,485.484
					c4.687,0,9.053-0.914,13.096-2.745s7.748-4.341,11.118-7.53c3.369-3.188,6.445-6.924,9.229-11.205
					c2.782-4.282,5.258-8.873,7.427-13.775c2.167-4.902,4.057-9.98,5.669-15.237c1.611-5.255,2.944-10.452,3.999-15.59
					s1.831-10.084,2.329-14.839c0.497-4.754,0.747-9.08,0.747-12.977c0-5.67-0.615-10.999-1.846-15.99
					c-1.23-4.99-3.091-9.33-5.581-13.021c-2.491-3.691-5.625-6.6-9.404-8.725c-3.779-2.127-8.189-3.189-13.228-3.189
					c-5.392,0-10.606,1.314-15.645,3.943c-5.04,2.628-9.786,6.171-14.238,10.629c-4.454,4.459-8.525,9.627-12.217,15.503
					s-6.855,12.063-9.492,18.559s-4.688,13.11-6.152,19.843c-1.465,6.732-2.197,13.168-2.197,19.31
					c0,6.675,0.835,12.89,2.505,18.646c1.67,5.759,4.072,10.733,7.207,14.927c3.134,4.193,6.943,7.485,11.426,9.878
					C203.047,484.289,208.129,485.484,213.813,485.484z"/>
				<path fill="#FFFFFF" d="M327.146,489c-5.427,0-10.189-0.996-14.289-2.988c-4.099-1.991-7.535-4.658-10.307-7.998
					c-2.772-3.34-4.867-7.207-6.281-11.602c-1.416-4.395-2.123-8.965-2.123-13.711c0-3.397,0.588-7.471,1.766-12.217
					s2.459-8.891,3.844-12.437c1.384-3.544,3.091-6.929,5.124-10.151c2.033-3.222,4.388-6.049,7.068-8.481
					c2.681-2.431,5.67-4.364,8.969-5.801c3.298-1.435,6.92-2.153,10.867-2.153c3.553,0,6.842,0.514,9.866,1.538
					c3.024,1.026,5.611,2.447,7.762,4.263c2.151,1.816,3.833,3.971,5.05,6.46c1.215,2.491,1.824,5.172,1.824,8.042
					c0,1.992-0.286,3.955-0.857,5.889s-1.681,4.205-3.329,6.812c-1.648,2.608-3.25,4.381-4.803,5.317
					c-1.553,0.938-3.312,1.406-5.277,1.406c-2.964,0-4.878-0.732-5.742-2.197c-1.42-2.285-1.868-4.307-1.343-6.064
					c0.174-0.937,0.699-3.105,1.575-6.504c0.117-0.469,0.146-1.523,0.088-3.164c0-1.406-0.147-2.578-0.438-3.516
					c-0.291-0.937-0.933-1.406-1.924-1.406c-2.392,0-4.434,0.571-6.126,1.714s-3.137,2.637-4.332,4.482
					c-1.196,1.846-2.377,4.454-3.544,7.822c-1.167,3.37-1.998,6.196-2.494,8.481c-0.496,2.285-0.802,4.469-0.919,6.548
					c-0.117,2.081-0.174,3.823-0.174,5.229c0,2.109,0.189,4.307,0.568,6.592c0.379,2.285,1.137,4.381,2.274,6.284
					c1.137,1.905,2.61,3.487,4.419,4.746c1.809,1.261,4.142,1.89,7.001,1.89c2.812,0,5.917-0.863,9.316-2.593
					c3.397-1.728,6.812-3.911,10.239-6.548s6.693-5.537,9.8-8.701c3.105-3.164,5.771-6.152,7.998-8.965l6.064,10.195
					c-4.395,6.271-9.141,11.865-14.238,16.787c-2.168,2.109-4.526,4.161-7.075,6.152c-2.549,1.992-5.216,3.766-7.998,5.317
					c-2.784,1.554-5.684,2.812-8.701,3.779C333.295,488.517,330.24,489,327.146,489z"/>
				<path fill="#FFFFFF" d="M439.077,469.312c-5.633,3.282-10.65,6.152-15.05,8.613c-4.401,2.461-8.318,4.513-11.75,6.152
					c-3.433,1.641-6.483,2.871-9.153,3.691c-2.67,0.821-5.091,1.23-7.261,1.23c-4.43,0-8.334-1.348-11.714-4.043
					c-3.381-2.694-6.207-6.576-8.48-11.646c-2.272-5.067-3.977-11.206-5.113-18.413c-1.137-7.207-1.704-15.322-1.704-24.346
					c0-3.516,0.144-7.265,0.436-11.25c0.29-3.984,0.696-7.939,1.219-11.865c-1.77-0.261-3.142-0.506-4.114-0.733
					c-0.974-0.228-2.006-0.457-3.097-0.685c-1.092-0.229-2.478-0.473-4.159-0.734c-1.681-0.261-4.114-0.586-7.299-0.979
					c-1.415-0.195-2.506-0.568-3.274-1.123c-0.765-0.555-1.325-1.207-1.681-1.957c-0.353-0.75-0.559-1.533-0.619-2.349
					c-0.058-0.815-0.088-1.517-0.088-2.104c0-0.924,0.575-1.629,1.722-2.114c1.149-0.486,2.622-0.851,4.418-1.095
					c1.796-0.243,3.768-0.379,5.919-0.409c2.15-0.028,4.211-0.014,6.185,0.044c1.972,0.059,3.739,0.104,5.301,0.132
					c1.56,0.03,2.636-0.014,3.225-0.13c1.579-7.889,3.582-15.528,6.01-22.92c2.428-7.391,5.147-13.963,8.16-19.719
					c3.012-5.754,6.302-10.369,9.87-13.847s7.312-5.216,11.231-5.216c2.521,0,4.821,0.703,6.903,2.107
					c2.082,1.405,3.855,3.279,5.321,5.62c1.465,2.341,2.594,5.079,3.385,8.21c0.791,3.132,1.188,6.395,1.188,9.789
					c0,2.811-0.411,5.777-1.232,8.899c-0.821,3.124-1.935,6.306-3.341,9.544s-3.062,6.521-4.967,9.844
					c-1.905,3.325-3.913,6.621-6.022,9.889c0.529-0.193,1.409-0.23,2.641-0.113c1.23,0.119,2.652,0.202,4.264,0.249
					c1.611,0.046,3.354,0.093,5.229,0.14c1.875,0.047,3.691,0.101,5.449,0.158c1.758,0.059,3.397,0.118,4.922,0.176
					c1.523,0.059,2.782,0.118,3.779,0.176c1.171,0.066,2.021,0.719,2.549,1.957s0.791,2.805,0.791,4.695
					c0,2.189-0.588,3.972-1.761,5.348s-2.463,2.062-3.871,2.062h-33.787c-1.707,2.344-3.429,4.645-5.165,6.899
					c-1.736,2.257-3.34,4.293-4.811,6.108c-0.235,3.634-0.439,7.207-0.615,10.723c-0.059,1.524-0.118,3.092-0.176,4.702
					c-0.059,1.612-0.118,3.208-0.176,4.79c-0.059,1.582-0.103,3.106-0.132,4.57c-0.03,1.465-0.044,2.812-0.044,4.043
					c0,3.164,0.294,5.831,0.882,7.998c0.587,2.168,1.442,3.941,2.56,5.317c1.118,1.378,2.484,2.373,4.102,2.988
					s3.426,0.923,5.427,0.923c1.23,0,2.77-0.293,4.618-0.879c1.847-0.585,3.87-1.391,6.07-2.417c2.2-1.024,4.517-2.241,6.95-3.647
					s4.838-2.944,7.214-4.614s4.648-3.428,6.818-5.273s4.135-3.735,5.896-5.669V469.312z M410.952,358.014
					c0-0.641-0.045-1.355-0.133-2.143c-0.088-0.789-0.279-1.531-0.573-2.232c-0.294-0.7-0.75-1.283-1.368-1.751
					c-0.618-0.467-1.486-0.7-2.603-0.7c-1.53,0-3.075,1.339-4.633,4.014c-1.559,2.676-3.058,6.094-4.5,10.252
					c-1.442,4.16-2.795,8.741-4.058,13.744c-1.265,5.003-2.427,9.86-3.486,14.57c0.882,0.088,1.765,0.164,2.646,0.229
					s1.793,0.142,2.736,0.228c1.765-2.952,3.604-6.15,5.515-9.595s3.631-6.831,5.161-10.159c1.53-3.329,2.794-6.441,3.794-9.336
					C410.451,362.24,410.952,359.867,410.952,358.014z"/>
				<path fill="#FFFFFF" d="M486.274,421.236c1.699,3.398,2.973,6.987,3.823,10.767c0.849,3.779,1.274,8.042,1.274,12.788
					c0,3.458-0.382,6.943-1.143,10.459c-0.762,3.516-1.861,6.914-3.296,10.195c-1.437,3.282-3.194,6.358-5.273,9.229
					c-2.081,2.871-4.454,5.361-7.119,7.471c-2.667,2.109-5.581,3.779-8.745,5.01S459.262,489,455.688,489
					c-5.157,0-9.566-1.127-13.228-3.384c-3.663-2.255-6.666-5.199-9.009-8.833c-2.344-3.633-4.058-7.734-5.142-12.305
					c-1.085-4.57-1.626-9.198-1.626-13.887c0-7.734,0.967-14.398,2.9-19.995c1.934-5.595,4.702-10.459,8.306-14.59
					s8.012-7.383,13.228-9.756c5.214-2.373,11.074-3.56,17.578-3.56c5.566,0,10.78,0.865,15.645,2.593
					c4.863,1.729,9.418,4.043,13.667,6.943c4.248,2.9,8.203,6.548,11.865,10.942c3.661,4.395,7.075,8.584,10.239,12.568
					l-1.67,12.393c-1.582-2.109-3.722-4.395-6.416-6.855c-2.696-2.461-5.552-5.186-8.569-8.174
					c-3.019-2.988-5.992-5.521-8.921-7.603c-2.931-2.079-5.449-3.823-7.559-5.229L486.274,421.236z M459.116,472.125
					c1.991,0,3.925-1.011,5.801-3.032c1.875-2.021,3.516-4.57,4.922-7.646s2.534-6.796,3.384-11.162
					c0.849-4.364,1.274-8.247,1.274-11.646c0-2.694-0.206-5.199-0.615-7.515c-0.411-2.313-1.026-4.32-1.846-6.021
					c-0.821-1.699-1.876-3.046-3.164-4.043c-1.29-0.996-2.843-1.494-4.658-1.494c-2.403,0-4.688,1.025-6.855,3.076
					c-2.168,2.052-4.073,4.674-5.713,7.866c-1.641,3.194-2.931,6.724-3.867,10.591c-0.938,3.867-1.406,8.232-1.406,13.096
					c0,2.461,0.233,4.776,0.703,6.943c0.468,2.168,1.2,4.059,2.197,5.669c0.996,1.612,2.314,2.9,3.955,3.867
					C454.867,471.642,456.831,472.125,459.116,472.125z"/>
				<path fill="#FFFFFF" d="M504.731,372.004c-3.81,6.949-7.207,12.159-10.195,15.633c-2.988,3.475-5.419,5.211-7.295,5.211
					c-2.578,0-3.867-2.958-3.867-8.877c0-5.742,0.821-10.898,2.461-15.469c1.641-4.57,3.941-8.627,6.899-12.173
					c2.959-3.544,6.474-6.562,10.547-9.053c4.072-2.489,8.525-4.54,13.359-6.152c4.834-1.61,9.945-2.798,15.337-3.56
					c5.39-0.761,10.927-1.143,16.611-1.143c6.621,0,13.271,0.483,19.951,1.447c6.68,0.965,13.096,2.324,19.248,4.078
					c6.152,1.753,11.894,3.872,17.227,6.355c5.331,2.484,9.976,5.232,13.931,8.242s7.06,6.27,9.316,9.776
					c2.255,3.507,3.384,7.16,3.384,10.959c0,4.523-0.982,8.989-2.944,13.396c-1.964,4.404-5.04,8.385-9.229,11.938
					c-4.19,3.554-9.551,6.478-16.084,8.769c-6.534,2.291-14.37,3.525-23.511,3.701c5.801,0,10.868,0.943,15.205,2.829
					c4.335,1.887,7.968,4.432,10.898,7.636c2.929,3.203,5.126,7.036,6.592,11.497c1.464,4.46,2.197,8.996,2.197,13.606
					c0,3.633-0.499,7.322-1.494,11.07c-0.997,3.748-2.491,7.352-4.482,10.809c-1.993,3.459-4.482,6.702-7.471,9.729
					c-2.988,3.027-6.49,5.665-10.503,7.913c-4.014,2.248-8.541,4.021-13.579,5.319c-5.04,1.296-10.577,1.945-16.611,1.945
					c-3.81,0-7.822-0.23-12.041-0.689c-4.219-0.46-8.481-1.082-12.788-1.866c-4.307-0.786-8.541-1.718-12.7-2.799
					c-4.161-1.083-8.086-2.245-11.777-3.488c-1.641-0.379-3.091-0.946-4.351-1.704c-1.261-0.757-1.89-2.109-1.89-4.057
					c0-9.847,0.249-19.93,0.747-30.251c0.497-10.321,1.508-20.539,3.032-30.651c1.523-10.113,3.573-18.908,6.152-26.381
					c2.578-7.475,6.24-14.741,10.986-21.801c4.16-2.881,7.939-4.322,11.338-4.322c4.276,0,7.851,2.411,10.723,7.234
					c-2.696,3.684-4.996,7.781-6.899,12.295c-1.905,4.516-3.355,8.523-4.351,12.029c-0.997,3.504-1.89,7.84-2.681,13.006
					c-0.791,5.168-1.421,10.216-1.89,15.146c-0.294,2.791-0.542,5.895-0.747,9.311c-0.206,3.416-0.396,6.756-0.571,10.023
					s-0.308,6.52-0.396,9.756s-0.132,6.341-0.132,9.31c0,0.479,0,1.139,0,1.976c0,0.84,0.073,1.707,0.22,2.605
					c0.146,0.898,0.336,1.723,0.571,2.471c0.233,0.748,0.585,1.303,1.055,1.66c3.573,1.199,7.412,2.219,11.514,3.057
					c4.101,0.837,8.203,1.256,12.305,1.256c4.979,0,9.813-0.613,14.502-1.842c4.687-1.228,8.847-3.174,12.48-5.838
					c3.632-2.664,6.548-6.078,8.745-10.239s3.296-9.476,3.296-15.944c0-3.471-0.646-6.36-1.934-8.666
					c-1.29-2.305-2.975-4.235-5.054-5.793c-2.081-1.557-4.454-2.8-7.119-3.729c-2.667-0.928-5.392-1.766-8.174-2.514
					c-2.784-0.749-5.508-1.479-8.174-2.193c-2.667-0.715-5.04-1.621-7.119-2.721c-2.081-1.1-3.766-2.468-5.054-4.104
					c-1.29-1.636-1.934-3.762-1.934-6.379c0-1.23,0.073-2.299,0.22-3.208c0.146-0.907,0.497-1.655,1.055-2.241
					c0.556-0.585,1.376-1.024,2.461-1.318c1.083-0.293,2.562-0.439,4.438-0.439c2.519,0,4.819,0.104,6.899,0.308
					c2.079,0.206,4.32,0.308,6.724,0.308c5.625,0,10.708-0.691,15.249-2.072c4.54-1.381,8.407-3.249,11.602-5.602
					c3.193-2.353,5.654-5.102,7.383-8.25c1.728-3.146,2.593-6.514,2.593-10.102c0-2.352-0.674-4.513-2.021-6.483
					c-1.349-1.97-3.238-3.733-5.669-5.292c-2.432-1.559-5.289-2.927-8.569-4.103c-3.282-1.175-6.855-2.161-10.723-2.955
					s-7.94-1.383-12.217-1.765c-4.278-0.382-8.613-0.574-13.008-0.574c-7.09,0-12.599,0.236-16.523,0.707
					c-5.392,0.59-10.415,1.516-15.073,2.783c-4.658,1.266-8.789,2.898-12.393,4.9S506.606,369.472,504.731,372.004z"/>
				<path fill="#FFFFFF" d="M665.571,490.492l1.934-10.623c-3.164,2.783-6.46,5.03-9.888,6.741
					c-3.428,1.712-6.754,2.565-9.976,2.565c-2.812,0-5.552-0.571-8.218-1.714c-2.667-1.143-5.025-2.782-7.075-4.922
					c-2.052-2.138-3.691-4.746-4.922-7.822s-1.846-6.548-1.846-10.415c0-5.098,0.35-9.77,1.053-14.018
					c0.702-4.246,1.568-9.49,2.598-15.73c1.03-6.24,2.247-11.164,3.653-14.768s3.017-7.25,4.833-10.943
					c1.346-2.637,3.279-4.643,5.798-6.021c2.519-1.376,4.979-2.065,7.38-2.065c2.049,0,3.807,0.514,5.271,1.539
					c1.464,1.026,2.197,2.623,2.197,4.793c0,0.646-0.073,1.349-0.216,2.111c-0.144,0.762-0.389,1.582-0.733,2.461
					c-1.036,2.697-1.909,5.903-2.621,9.618s-1.66,8.668-2.847,14.858c-1.187,6.193-2.127,11.103-2.823,14.73
					c-0.696,3.629-1.044,6.863-1.044,9.707c0,1.48,0.102,2.916,0.308,4.308c0.205,1.393,0.571,2.636,1.099,3.731
					s1.23,1.982,2.109,2.664c0.879,0.681,1.991,1.021,3.34,1.021c2.167,0,4.131-0.943,5.889-2.832s3.281-4.159,4.57-6.815
					c1.288-2.655,2.329-5.399,3.12-8.231s1.303-5.192,1.538-7.082l7.042-32.869c0.411-1.934,1.232-3.691,2.465-5.273
					c1.173-1.525,2.553-2.828,4.138-3.913c1.585-1.083,3.227-1.89,4.93-2.417c1.702-0.527,3.315-0.791,4.842-0.791
					c1.818,0,3.344,0.396,4.577,1.188c1.232,0.793,1.848,2.039,1.848,3.74c0,0.528-0.088,1.145-0.264,1.848
					c-0.274,1.561-0.641,3.654-1.1,6.283c-0.46,2.629-0.983,5.618-1.568,8.969c-0.585,3.352-1.404,8.051-2.454,14.098
					c-1.052,6.046-1.905,10.908-2.562,14.59c-1.484,8.697-2.998,18.043-4.54,28.033c1.78-0.994,3.7-2.223,5.758-3.687
					s4.348-3.425,6.868-5.884c2.519-2.458,5.332-5.547,8.438-9.264c3.105-3.718,6.592-8.357,10.459-13.92l4.219,19.561
					c-1.055,1.804-2.403,3.637-4.043,5.5c-1.758,1.979-3.633,3.899-5.625,5.762c-2.93,2.678-5.04,4.48-6.328,5.412
					c-0.41,0.291-2.549,1.974-6.416,5.047c-1.172,0.996-5.051,3.689-11.637,8.083c-1.604,1.055-2.701,2.974-3.294,5.756
					s-1.276,7.951-2.047,15.507c-0.336,2.156-0.547,3.816-0.63,4.982c-0.357,2.798-0.695,5.465-1.015,7.999
					c-0.321,2.535-0.89,5.429-1.708,8.683c-0.819,3.252-1.784,6.241-2.895,8.969c-1.112,2.725-2.574,5.436-4.386,8.133
					c-1.813,2.695-3.816,4.996-6.008,6.902c-2.193,1.903-4.839,3.441-7.939,4.615c-3.1,1.172-6.492,1.758-10.175,1.758
					c-2.983,0-5.746-0.337-8.289-1.01s-4.868-1.712-6.974-3.115c-2.105-1.406-3.83-3.324-5.174-5.752
					c-1.346-2.429-2.136-5.283-2.369-8.561c-0.47-6.205,1.23-12.76,5.098-19.666c2.167-3.864,3.691-6.542,4.57-8.033
					c0.879-1.493,2.255-3.644,4.131-6.453c1.875-2.752,3.837-5.239,5.889-7.463c4.101-4.625,7.484-8.342,10.151-11.149
					C658.701,496.725,661.88,493.712,665.571,490.492z M665.882,511.682c-4.11,2.929-8.162,7.616-12.152,14.061
					c-3.992,6.443-7.162,13.005-9.51,19.685c-1.938,5.624-0.972,8.437,2.895,8.437c1.406,0,2.666-0.176,3.779-0.527
					c1.112-0.352,2.138-0.981,3.076-1.89c0.937-0.909,1.758-1.904,2.461-2.988c0.703-1.085,1.45-2.607,2.241-4.57
					c0.791-1.964,1.494-3.897,2.109-5.801c0.615-1.904,1.391-4.438,2.329-7.603c0.527-1.7,0.919-3.593,1.174-5.677
					c0.255-2.088,0.56-4.594,0.916-7.52C665.555,514.36,665.783,512.491,665.882,511.682z"/>
				<path fill="#FFFFFF" d="M789.497,469.312c-5.633,3.282-10.65,6.152-15.05,8.613c-4.401,2.461-8.318,4.513-11.75,6.152
					c-3.433,1.641-6.483,2.871-9.153,3.691c-2.67,0.821-5.091,1.23-7.261,1.23c-4.43,0-8.334-1.348-11.714-4.043
					c-3.381-2.694-6.207-6.576-8.48-11.646c-2.272-5.067-3.977-11.206-5.113-18.413c-1.137-7.207-1.704-15.322-1.704-24.346
					c0-3.516,0.144-7.265,0.436-11.25c0.29-3.984,0.696-7.939,1.219-11.865c-1.77-0.261-3.142-0.506-4.114-0.733
					c-0.974-0.228-2.006-0.457-3.097-0.685c-1.092-0.229-2.478-0.473-4.159-0.734c-1.681-0.261-4.114-0.586-7.299-0.979
					c-1.415-0.195-2.506-0.568-3.274-1.123c-0.765-0.555-1.325-1.207-1.681-1.957c-0.353-0.75-0.559-1.533-0.619-2.349
					c-0.058-0.815-0.088-1.517-0.088-2.104c0-0.924,0.575-1.629,1.722-2.114c1.149-0.486,2.622-0.851,4.418-1.095
					c1.796-0.243,3.768-0.379,5.919-0.409c2.15-0.028,4.211-0.014,6.185,0.044c1.972,0.059,3.739,0.104,5.301,0.132
					c1.56,0.03,2.636-0.014,3.225-0.13c1.579-7.889,3.582-15.528,6.01-22.92c2.428-7.391,5.147-13.963,8.16-19.719
					c3.012-5.754,6.302-10.369,9.87-13.847s7.312-5.216,11.231-5.216c2.521,0,4.821,0.703,6.903,2.107
					c2.082,1.405,3.855,3.279,5.321,5.62c1.465,2.341,2.594,5.079,3.385,8.21c0.791,3.132,1.188,6.395,1.188,9.789
					c0,2.811-0.411,5.777-1.232,8.899c-0.821,3.124-1.935,6.306-3.341,9.544s-3.062,6.521-4.967,9.844
					c-1.905,3.325-3.913,6.621-6.022,9.889c0.529-0.193,1.409-0.23,2.641-0.113c1.23,0.119,2.652,0.202,4.264,0.249
					c1.611,0.046,3.354,0.093,5.229,0.14c1.875,0.047,3.691,0.101,5.449,0.158c1.758,0.059,3.397,0.118,4.922,0.176
					c1.523,0.059,2.782,0.118,3.779,0.176c1.171,0.066,2.021,0.719,2.549,1.957s0.791,2.805,0.791,4.695
					c0,2.189-0.588,3.972-1.761,5.348s-2.463,2.062-3.871,2.062h-33.787c-1.707,2.344-3.429,4.645-5.165,6.899
					c-1.736,2.257-3.34,4.293-4.811,6.108c-0.235,3.634-0.439,7.207-0.615,10.723c-0.059,1.524-0.118,3.092-0.176,4.702
					c-0.059,1.612-0.118,3.208-0.176,4.79c-0.059,1.582-0.103,3.106-0.132,4.57c-0.03,1.465-0.044,2.812-0.044,4.043
					c0,3.164,0.294,5.831,0.882,7.998c0.587,2.168,1.442,3.941,2.56,5.317c1.118,1.378,2.484,2.373,4.102,2.988
					s3.426,0.923,5.427,0.923c1.23,0,2.77-0.293,4.618-0.879c1.847-0.585,3.87-1.391,6.07-2.417c2.2-1.024,4.517-2.241,6.95-3.647
					s4.838-2.944,7.214-4.614s4.648-3.428,6.818-5.273s4.135-3.735,5.896-5.669V469.312z M761.372,358.014
					c0-0.641-0.045-1.355-0.133-2.143c-0.088-0.789-0.279-1.531-0.573-2.232c-0.294-0.7-0.75-1.283-1.368-1.751
					c-0.618-0.467-1.486-0.7-2.603-0.7c-1.53,0-3.075,1.339-4.633,4.014c-1.559,2.676-3.058,6.094-4.5,10.252
					c-1.442,4.16-2.795,8.741-4.058,13.744c-1.265,5.003-2.427,9.86-3.486,14.57c0.882,0.088,1.765,0.164,2.646,0.229
					s1.793,0.142,2.736,0.228c1.765-2.952,3.604-6.15,5.515-9.595s3.631-6.831,5.161-10.159c1.53-3.329,2.794-6.441,3.794-9.336
					C760.871,362.24,761.372,359.867,761.372,358.014z"/>
				<path fill="#FFFFFF" d="M812.217,489c-5.471,0-10.258-1.014-14.362-3.042c-4.104-2.026-7.523-4.755-10.258-8.185
					c-2.736-3.43-4.788-7.396-6.155-11.898s-2.052-9.229-2.052-14.181c0-3.237,0.611-7.097,1.836-11.579
					c1.224-4.482,2.491-8.459,3.803-11.929c1.31-3.469,2.957-6.78,4.938-9.932c1.981-3.151,4.298-5.927,6.95-8.327
					s5.624-4.309,8.917-5.726c3.293-1.417,6.95-2.126,10.971-2.126c3.285,0,6.335,0.527,9.15,1.58
					c2.815,1.054,5.265,2.531,7.347,4.434s3.71,4.199,4.883,6.891c1.173,2.692,1.761,5.707,1.761,9.041
					c0,3.553-1.189,7.535-3.568,11.946s-5.152,8.192-8.323,11.343c-3.171,3.152-6.943,5.959-11.317,8.423
					c-4.375,2.464-9.116,4.384-14.225,5.759c0.881,1.547,1.75,2.836,2.603,3.868c0.851,1.031,1.719,1.833,2.602,2.405
					c0.882,0.573,1.809,0.975,2.778,1.203c0.97,0.23,2.015,0.344,3.132,0.344c3.516,0,7.221-0.687,11.118-2.062
					c3.896-1.375,7.69-3.094,11.382-5.156c3.691-2.063,7.177-4.312,10.459-6.746c3.281-2.436,6.064-4.74,8.35-6.919l11.338,11.517
					c-5.157,5.492-10.635,10.35-16.436,14.572c-2.52,1.811-5.229,3.592-8.13,5.342s-5.948,3.305-9.141,4.661
					c-3.194,1.356-6.504,2.442-9.932,3.257C819.209,488.594,815.735,489,812.217,489z M800.483,447.139
					c2.118,0,4.426-0.527,6.925-1.588c2.5-1.061,4.822-2.422,6.97-4.083c2.146-1.661,4.249-3.896,6.308-6.703
					s3.088-5.128,3.088-6.962c0-2.577-0.486-4.697-1.456-6.359c-0.971-1.661-2.162-2.492-3.573-2.492
					c-2.53,0-4.691,0.459-6.485,1.376s-3.293,2.105-4.499,3.566c-1.206,1.462-2.177,3.122-2.911,4.983
					c-0.736,1.862-1.589,4.17-2.559,6.919c-0.971,2.749-1.515,5.013-1.633,6.788C800.541,444.361,800.483,445.879,800.483,447.139z"
					/>
				<path fill="#FFFFFF" d="M846.468,455.828c3.281-2.843,5.946-5.211,7.998-7.107c2.05-1.895,4.101-4.1,6.152-6.617
					c2.05-2.518,3.676-4.576,4.878-6.176c1.2-1.599,2.622-3.494,4.263-5.686c1.64-2.191,3.632-4.871,5.977-8.041
					c2.343-3.168,5.39-7.121,9.141-11.86c0.761-1.065,1.611-2.102,2.549-3.109c0.937-1.007,1.978-1.91,3.12-2.71
					c1.143-0.799,2.402-1.449,3.779-1.953c1.376-0.503,2.914-0.756,4.614-0.756c2.815,0,4.983,0.312,6.508,0.934
					c1.523,0.623,2.637,1.377,3.34,2.265c0.703,0.889,1.112,1.821,1.23,2.799c0.117,0.978,0.176,1.821,0.176,2.532
					c0,1.422-0.558,2.991-1.67,4.708c-1.114,1.718-2.344,3.377-3.691,4.976c-1.349,1.6-2.623,3.066-3.823,4.398
					c-1.202,1.332-1.891,2.324-2.069,2.976c0,1.837,0.133,3.509,0.402,5.02c0.269,1.511,0.627,2.991,1.077,4.441
					c0.447,1.452,0.912,2.991,1.39,4.62s0.937,3.51,1.376,5.641c0.439,2.133,0.497,5.064,0.176,8.797
					c-0.323,3.732-0.483,7.492-0.483,11.282c2.109-1.421,4.379-2.71,6.812-3.864c2.431-1.154,4.966-2.354,7.603-3.598
					s5.347-2.621,8.13-4.131c2.782-1.511,5.581-3.332,8.394-5.465l0.088,19.9c-3.634,2.713-7.837,5.256-12.612,7.629
					c-4.776,2.373-9.797,4.465-15.065,6.271c-5.268,1.808-10.581,3.234-15.942,4.279s-10.445,1.568-15.249,1.568
					c-3.458,0-6.68-0.309-9.668-0.924c-2.988-0.617-5.611-1.584-7.866-2.9c-2.256-1.317-4.087-3.041-5.493-5.171
					c-1.406-2.128-2.256-4.706-2.549-7.733c-0.821,0.18-1.626,0.297-2.417,0.355c-0.791,0.061-1.568,0.09-2.329,0.09
					c-0.938,0-1.817-0.029-2.637-0.088c-0.821-0.059-1.524-0.281-2.109-0.666c-0.586-0.385-1.055-1.006-1.406-1.866
					c-0.352-0.858-0.527-2.087-0.527-3.688c0-1.421,0.352-2.739,1.055-3.954c0.703-1.213,1.523-2.294,2.461-3.242
					c0.937-0.947,1.875-1.775,2.812-2.486C845.295,456.807,845.999,456.242,846.468,455.828z M857.437,467.199
					c0.703,0,1.479,0.445,2.329,1.333c0.849,0.889,1.831,1.866,2.944,2.933c1.112,1.065,2.402,2.043,3.867,2.932
					c1.464,0.889,3.134,1.332,5.01,1.332c2.285,0,4.175-0.385,5.669-1.154s2.681-1.791,3.56-3.066
					c0.879-1.272,1.494-2.753,1.846-4.44c0.352-1.688,0.527-3.45,0.527-5.288c0-1.598-0.103-3.225-0.308-4.885
					c-0.206-1.658-0.176-3.717,0.088-6.175s0.205-4.354-0.176-5.686c-0.382-1.332-0.718-2.474-1.011-3.421L857.437,467.199z"/>
			</g>
		</g>
	</g>
</g>
<g id="texte_x5F_logo">
	<g>
		<g>
			<g>
				<path fill="#C91437" d="M304.937,8.798c5.333,0,10.661,0.837,14.709,2.514l182.568,75.622
					c8.13,3.368,17.532,12.777,20.894,20.91l75.63,182.983c3.361,8.133,3.356,21.439-0.012,29.569l-75.622,182.567
					c-3.368,8.13-12.774,17.54-20.903,20.911l-182.815,75.807c-4.067,1.687-9.43,2.53-14.791,2.53
					c-5.354,0-10.708-0.842-14.771-2.524l-182.567-75.623c-8.13-3.368-17.522-12.781-20.871-20.919L11.24,320.536
					c-3.349-8.138-3.333-21.448,0.034-29.578L86.896,108.39c3.368-8.13,12.768-17.556,20.889-20.945l182.313-76.093
					C294.175,9.65,299.559,8.799,304.937,8.798 M305,0.798v8V1h-0.063c-6.657,0-13.021,1.025-17.92,3.07L104.703,80.113
					c-10.154,4.238-20.987,15.075-25.198,25.241L3.883,287.909c-4.211,10.167-4.229,25.501-0.041,35.678l75.145,182.605
					c4.192,10.188,15.029,21.049,25.207,25.265l182.568,75.622c4.877,2.021,11.21,3.133,17.833,3.133
					c6.631,0,12.972-1.115,17.855-3.141l182.815-75.807c10.17-4.218,21.016-15.068,25.229-25.239l75.622-182.567
					c4.213-10.171,4.219-25.513,0.014-35.687l-75.63-182.983c-4.207-10.178-15.051-21.031-25.226-25.245L322.738,3.921
					C317.875,1.908,312,0.798,305,0.798L305,0.798z"/>
			</g>
		</g>
		<g>
			<path fill="#7D0018" d="M107.256,524.064c-8.13-3.368-17.522-12.781-20.871-20.919L11.24,320.536
				c-3.349-8.138-3.333-21.448,0.034-29.578L86.896,108.39c3.368-8.13,12.768-17.556,20.889-20.945l182.313-76.093
				c8.121-3.389,21.417-3.407,29.548-0.04l182.568,75.622c8.13,3.368,17.532,12.777,20.894,20.91l75.63,182.983
				c3.361,8.133,3.356,21.439-0.012,29.569l-75.622,182.567c-3.368,8.13-12.774,17.54-20.903,20.911l-182.815,75.807
				c-8.129,3.371-21.432,3.374-29.562,0.006L107.256,524.064z"/>
			<g opacity="0.8">
				<path fill="#FFFFFF" d="M304.937,8.798c5.333,0,10.661,0.837,14.709,2.514l182.568,75.622
					c8.13,3.368,17.532,12.777,20.894,20.91l75.63,182.983c3.361,8.133,3.356,21.439-0.012,29.569l-75.622,182.567
					c-3.368,8.13-12.774,17.54-20.903,20.911l-182.815,75.807c-4.067,1.687-9.43,2.53-14.791,2.53
					c-5.355,0-10.708-0.842-14.771-2.524l-182.567-75.623c-8.13-3.368-17.522-12.781-20.871-20.919L11.24,320.536
					c-3.349-8.138-3.333-21.448,0.034-29.578L86.896,108.39c3.368-8.13,12.768-17.556,20.889-20.945l182.313-76.093
					C294.175,9.65,299.559,8.799,304.937,8.798 M305,0.798v8V1c0,0-0.063,0-0.064,0c-6.656,0-13.02,1.025-17.919,3.07
					L104.703,80.113c-10.154,4.238-20.987,15.075-25.198,25.241L3.883,287.909c-4.211,10.167-4.229,25.501-0.041,35.678
					l75.145,182.605c4.192,10.188,15.029,21.049,25.207,25.265l182.568,75.622c4.877,2.021,11.21,3.133,17.833,3.133
					c6.631,0,12.972-1.115,17.855-3.141l182.815-75.807c10.17-4.218,21.016-15.068,25.229-25.239l75.622-182.567
					c4.213-10.171,4.219-25.513,0.014-35.687l-75.63-182.983c-4.207-10.178-15.051-21.031-25.226-25.245L322.738,3.921
					C317.875,1.908,312,0.798,305,0.798L305,0.798z"/>
			</g>
		</g>
		<g>
			<path fill="#C91437" d="M218.185,556c-8.8,0-21.081-5.352-27.29-11.588L66.29,419.158C60.081,412.922,55,400.495,55,391.695
				V216.724c0-8.8,5.125-21.057,11.389-27.238L190.795,66.988C197.06,60.807,209.385,56,218.185,56h174.972
				c8.8,0,21.102,4.83,27.338,11.04l123.168,122.52c6.236,6.209,11.338,18.365,11.338,27.165v174.971
				c0,8.8-5.057,21.125-11.238,27.389L420.394,544.361C414.213,550.625,401.956,556,393.156,556H218.185z"/>
		</g>
		<g>
			<g opacity="0.8">
				<g>
					<path d="M108.3,342.846c-5.336,0-10.143-1.082-14.421-3.246c-4.279-2.166-7.922-5.19-10.93-9.076
						c-3.008-3.885-5.317-8.516-6.929-13.892s-2.417-11.274-2.417-17.698c0-3.459,0.25-7.009,0.752-10.648
						c0.501-3.639,1.262-7.27,2.283-10.891c1.021-3.622,2.291-7.17,3.813-10.648c1.521-3.477,3.294-6.765,5.317-9.864
						c2.022-3.099,4.288-5.955,6.794-8.567c2.506-2.612,5.272-4.865,8.298-6.757c3.025-1.892,6.284-3.369,9.775-4.432
						c3.491-1.062,7.242-1.595,11.252-1.595c5.371,0,10.178,0.973,14.421,2.917c4.243,1.943,7.823,4.662,10.742,8.154
						c2.918,3.492,5.156,7.659,6.714,12.501c1.558,4.842,2.336,10.179,2.336,16.011c0,4.784-0.475,9.772-1.423,14.966
						c-0.949,5.193-2.336,10.297-4.163,15.312s-4.101,9.79-6.821,14.324c-2.722,4.533-5.854,8.513-9.399,11.939
						c-3.545,3.426-7.493,6.148-11.843,8.166C118.103,341.838,113.384,342.846,108.3,342.846z M109.589,330.385
						c2.864,0,5.532-0.559,8.003-1.678c2.471-1.118,4.735-2.652,6.794-4.602c2.059-1.948,3.938-4.23,5.64-6.848
						c1.7-2.617,3.213-5.422,4.539-8.418c1.324-2.996,2.479-6.1,3.464-9.312c0.984-3.212,1.799-6.388,2.444-9.526
						c0.645-3.14,1.119-6.163,1.423-9.068c0.304-2.906,0.457-5.549,0.457-7.931c0-3.464-0.376-6.721-1.128-9.771
						s-1.889-5.702-3.411-7.958c-1.522-2.256-3.438-4.033-5.747-5.333s-5.004-1.949-8.083-1.949c-3.295,0-6.481,0.803-9.561,2.41
						c-3.08,1.606-5.98,3.771-8.701,6.496c-2.722,2.725-5.21,5.883-7.466,9.474c-2.256,3.591-4.189,7.372-5.801,11.341
						s-2.865,8.012-3.76,12.126c-0.896,4.113-1.343,8.047-1.343,11.8c0,4.079,0.51,7.878,1.531,11.396
						c1.021,3.519,2.488,6.559,4.404,9.121c1.915,2.563,4.243,4.575,6.982,6.037S106.116,330.385,109.589,330.385z"/>
					<path d="M178.848,332.533c-3.317,0-6.228-0.607-8.732-1.826c-2.505-1.217-4.605-2.846-6.298-4.887
						c-1.694-2.041-2.974-4.404-3.839-7.09c-0.865-2.686-1.297-5.479-1.297-8.379c0-2.076,0.359-4.566,1.079-7.467
						c0.72-2.9,1.503-5.433,2.349-7.6c0.846-2.166,1.889-4.234,3.131-6.203c1.242-1.969,2.681-3.697,4.319-5.184
						c1.638-1.485,3.465-2.667,5.481-3.545c2.016-0.877,4.229-1.316,6.641-1.316c2.171,0,4.181,0.314,6.029,0.94
						c1.848,0.627,3.429,1.496,4.744,2.605c1.314,1.11,2.342,2.426,3.086,3.948c0.743,1.522,1.114,3.161,1.114,4.915
						c0,1.217-0.175,2.416-0.523,3.598c-0.35,1.182-1.027,2.57-2.035,4.163c-1.007,1.594-1.985,2.677-2.935,3.249
						c-0.949,0.574-2.024,0.859-3.225,0.859c-1.811,0-2.981-0.447-3.509-1.342c-0.868-1.396-1.142-2.633-0.821-3.707
						c0.106-0.572,0.427-1.896,0.962-3.975c0.071-0.285,0.089-0.93,0.054-1.934c0-0.859-0.09-1.574-0.268-2.148
						c-0.178-0.572-0.57-0.859-1.176-0.859c-1.462,0-2.71,0.35-3.744,1.048c-1.034,0.698-1.917,1.611-2.647,2.739
						c-0.731,1.128-1.453,2.722-2.166,4.78c-0.713,2.06-1.221,3.786-1.524,5.183c-0.303,1.396-0.49,2.731-0.562,4.002
						c-0.071,1.271-0.106,2.336-0.106,3.195c0,1.289,0.116,2.633,0.348,4.029c0.231,1.396,0.695,2.677,1.39,3.84
						c0.695,1.164,1.595,2.131,2.701,2.9c1.105,0.771,2.531,1.154,4.278,1.154c1.719,0,3.616-0.527,5.693-1.584
						c2.076-1.056,4.163-2.391,6.257-4.002s4.09-3.383,5.989-5.316c1.897-1.934,3.526-3.76,4.888-5.479l3.706,6.23
						c-2.686,3.832-5.586,7.25-8.701,10.258c-1.325,1.289-2.766,2.543-4.324,3.76c-1.558,1.219-3.188,2.302-4.888,3.25
						c-1.701,0.949-3.474,1.719-5.317,2.31C182.606,332.238,180.739,332.533,178.848,332.533z"/>
					<path d="M247.25,320.502c-3.442,2.006-6.508,3.76-9.197,5.264c-2.689,1.504-5.083,2.758-7.18,3.76
						c-2.098,1.004-3.962,1.756-5.594,2.256c-1.631,0.502-3.111,0.752-4.437,0.752c-2.708,0-5.093-0.822-7.159-2.471
						c-2.066-1.646-3.793-4.019-5.182-7.116c-1.389-3.097-2.431-6.849-3.125-11.253c-0.695-4.404-1.042-9.363-1.042-14.877
						c0-2.148,0.088-4.439,0.266-6.875c0.177-2.435,0.425-4.852,0.745-7.251c-1.082-0.16-1.92-0.309-2.514-0.448
						c-0.595-0.139-1.226-0.279-1.893-0.418c-0.667-0.14-1.514-0.289-2.541-0.448c-1.027-0.16-2.515-0.358-4.461-0.599
						c-0.864-0.119-1.531-0.347-2-0.687c-0.467-0.339-0.81-0.737-1.027-1.196c-0.216-0.458-0.341-0.937-0.378-1.435
						c-0.035-0.499-0.054-0.926-0.054-1.286c0-0.565,0.352-0.996,1.052-1.292c0.703-0.297,1.602-0.52,2.7-0.669
						c1.098-0.148,2.303-0.231,3.617-0.25c1.314-0.018,2.574-0.008,3.78,0.027c1.205,0.036,2.285,0.063,3.239,0.081
						c0.953,0.019,1.61-0.008,1.971-0.08c0.965-4.821,2.188-9.489,3.672-14.006c1.484-4.517,3.146-8.534,4.987-12.051
						c1.84-3.517,3.851-6.337,6.031-8.462c2.181-2.125,4.468-3.188,6.863-3.188c1.541,0,2.947,0.43,4.219,1.288
						c1.272,0.859,2.356,2.003,3.252,3.434c0.895,1.431,1.585,3.104,2.068,5.017c0.483,1.915,0.726,3.908,0.726,5.983
						c0,1.717-0.251,3.53-0.753,5.438c-0.502,1.909-1.182,3.854-2.042,5.833s-1.872,3.984-3.036,6.016
						c-1.164,2.032-2.391,4.046-3.68,6.042c0.323-0.118,0.861-0.141,1.614-0.069c0.752,0.073,1.621,0.124,2.606,0.152
						c0.984,0.028,2.049,0.057,3.196,0.085c1.146,0.029,2.256,0.062,3.33,0.097c1.074,0.036,2.076,0.072,3.008,0.107
						c0.931,0.036,1.7,0.072,2.31,0.107c0.716,0.04,1.235,0.439,1.558,1.196c0.322,0.757,0.483,1.714,0.483,2.87
						c0,1.337-0.359,2.427-1.076,3.268c-0.717,0.841-1.506,1.261-2.366,1.261h-20.647c-1.043,1.433-2.096,2.838-3.156,4.216
						c-1.061,1.379-2.041,2.623-2.94,3.732c-0.144,2.221-0.269,4.404-0.376,6.553c-0.036,0.932-0.072,1.89-0.107,2.874
						c-0.036,0.985-0.072,1.96-0.107,2.927c-0.036,0.967-0.063,1.898-0.081,2.793c-0.019,0.896-0.027,1.719-0.027,2.471
						c0,1.934,0.18,3.564,0.539,4.889c0.359,1.324,0.881,2.408,1.564,3.249c0.683,0.842,1.518,1.45,2.507,1.826
						s2.094,0.563,3.317,0.563c0.752,0,1.692-0.178,2.822-0.537c1.128-0.357,2.365-0.85,3.709-1.477
						c1.344-0.626,2.76-1.369,4.247-2.229c1.487-0.859,2.957-1.8,4.409-2.82c1.452-1.021,2.841-2.095,4.167-3.223
						c1.326-1.128,2.527-2.283,3.603-3.465V320.502z M230.063,252.487c0-0.392-0.028-0.828-0.082-1.31s-0.17-0.936-0.35-1.364
						c-0.18-0.428-0.458-0.785-0.836-1.07c-0.378-0.286-0.908-0.428-1.59-0.428c-0.935,0-1.879,0.818-2.832,2.453
						c-0.953,1.635-1.869,3.724-2.75,6.265c-0.881,2.542-1.708,5.342-2.48,8.399c-0.773,3.057-1.483,6.025-2.13,8.904
						c0.539,0.054,1.079,0.1,1.617,0.14c0.539,0.04,1.096,0.086,1.672,0.139c1.079-1.804,2.202-3.759,3.37-5.864
						c1.168-2.105,2.219-4.174,3.154-6.208c0.935-2.035,1.708-3.936,2.319-5.705C229.757,255.069,230.063,253.619,230.063,252.487z"
						/>
					<path d="M276.093,291.123c1.038,2.076,1.817,4.27,2.336,6.579c0.519,2.31,0.779,4.915,0.779,7.815
						c0,2.113-0.233,4.242-0.698,6.391c-0.466,2.148-1.137,4.227-2.014,6.23c-0.878,2.006-1.952,3.887-3.223,5.641
						c-1.271,1.754-2.722,3.275-4.351,4.564c-1.63,1.289-3.411,2.311-5.344,3.062s-3.993,1.127-6.177,1.127
						c-3.151,0-5.846-0.688-8.083-2.067c-2.238-1.378-4.074-3.177-5.505-5.397c-1.433-2.221-2.48-4.727-3.142-7.52
						c-0.663-2.793-0.994-5.621-0.994-8.486c0-4.727,0.591-8.8,1.772-12.22c1.182-3.419,2.874-6.392,5.076-8.916
						s4.896-4.512,8.083-5.962c3.187-1.45,6.768-2.175,10.742-2.175c3.401,0,6.588,0.529,9.561,1.584
						c2.972,1.057,5.755,2.471,8.352,4.243c2.596,1.772,5.013,4.002,7.251,6.688c2.237,2.686,4.324,5.246,6.257,7.68l-1.021,7.574
						c-0.967-1.289-2.274-2.686-3.921-4.189c-1.647-1.504-3.393-3.17-5.237-4.996c-1.845-1.826-3.662-3.374-5.452-4.646
						c-1.791-1.271-3.33-2.337-4.619-3.196L276.093,291.123z M259.497,322.221c1.217,0,2.398-0.617,3.545-1.853
						c1.146-1.235,2.148-2.793,3.008-4.673s1.548-4.153,2.068-6.821c0.519-2.667,0.779-5.04,0.779-7.116
						c0-1.646-0.126-3.178-0.376-4.593c-0.251-1.414-0.627-2.64-1.128-3.679c-0.502-1.039-1.146-1.861-1.934-2.471
						c-0.788-0.609-1.737-0.914-2.847-0.914c-1.469,0-2.865,0.627-4.189,1.881c-1.325,1.254-2.489,2.855-3.491,4.807
						c-1.003,1.952-1.791,4.109-2.363,6.473c-0.573,2.363-0.859,5.031-0.859,8.002c0,1.504,0.143,2.92,0.43,4.244
						c0.286,1.324,0.733,2.479,1.343,3.464c0.608,0.985,1.414,1.772,2.417,2.363C256.9,321.926,258.1,322.221,259.497,322.221z"/>
					<path d="M287.373,261.036c-2.328,4.247-4.404,7.431-6.23,9.554c-1.826,2.124-3.312,3.184-4.458,3.184
						c-1.575,0-2.363-1.808-2.363-5.425c0-3.509,0.502-6.66,1.504-9.453c1.003-2.793,2.409-5.272,4.216-7.439
						c1.809-2.166,3.956-4.01,6.445-5.532c2.488-1.521,5.21-2.774,8.164-3.76c2.954-0.984,6.078-1.709,9.373-2.175
						c3.294-0.465,6.678-0.698,10.151-0.698c4.046,0,8.11,0.295,12.192,0.885c4.082,0.589,8.003,1.42,11.763,2.492
						c3.76,1.071,7.269,2.366,10.527,3.884c3.258,1.518,6.096,3.197,8.513,5.037c2.417,1.839,4.314,3.831,5.693,5.975
						c1.378,2.143,2.068,4.375,2.068,6.697c0,2.765-0.6,5.494-1.799,8.186c-1.2,2.692-3.08,5.125-5.64,7.296
						c-2.561,2.172-5.837,3.958-9.829,5.358c-3.993,1.4-8.782,2.154-14.368,2.262c3.545,0,6.642,0.577,9.292,1.729
						c2.649,1.152,4.869,2.708,6.66,4.666c1.79,1.958,3.133,4.301,4.028,7.025c0.895,2.727,1.343,5.498,1.343,8.316
						c0,2.219-0.305,4.475-0.913,6.764c-0.609,2.291-1.522,4.493-2.739,6.606c-1.218,2.114-2.739,4.095-4.565,5.944
						s-3.966,3.463-6.418,4.836c-2.453,1.374-5.219,2.457-8.298,3.251c-3.08,0.792-6.464,1.188-10.151,1.188
						c-2.328,0-4.78-0.141-7.358-0.421c-2.578-0.281-5.183-0.661-7.815-1.141s-5.219-1.05-7.761-1.71
						c-2.543-0.662-4.941-1.373-7.197-2.132c-1.003-0.231-1.889-0.578-2.659-1.042c-0.771-0.462-1.155-1.289-1.155-2.479
						c0-6.018,0.152-12.18,0.457-18.486c0.304-6.309,0.921-12.552,1.853-18.732c0.931-6.18,2.184-11.554,3.76-16.122
						c1.575-4.567,3.813-9.008,6.714-13.322c2.542-1.761,4.852-2.642,6.929-2.642c2.613,0,4.798,1.474,6.553,4.421
						c-1.647,2.25-3.053,4.755-4.216,7.514c-1.164,2.759-2.05,5.209-2.659,7.351c-0.609,2.142-1.155,4.792-1.638,7.949
						c-0.483,3.158-0.869,6.243-1.155,9.255c-0.18,1.707-0.332,3.604-0.457,5.69c-0.126,2.087-0.242,4.129-0.349,6.126
						c-0.107,1.996-0.188,3.983-0.242,5.961c-0.054,1.979-0.081,3.875-0.081,5.689c0,0.293,0,0.695,0,1.208s0.044,1.043,0.134,1.592
						c0.089,0.549,0.206,1.052,0.349,1.51c0.143,0.458,0.357,0.796,0.645,1.015c2.184,0.732,4.529,1.355,7.036,1.867
						c2.506,0.512,5.013,0.768,7.52,0.768c3.043,0,5.997-0.375,8.862-1.125c2.864-0.75,5.406-1.939,7.627-3.567
						c2.22-1.628,4.001-3.714,5.344-6.257s2.014-5.791,2.014-9.744c0-2.121-0.395-3.887-1.182-5.297
						c-0.788-1.408-1.818-2.588-3.088-3.539c-1.271-0.952-2.722-1.711-4.351-2.279c-1.63-0.566-3.295-1.078-4.995-1.536
						c-1.701-0.458-3.366-0.903-4.995-1.341c-1.63-0.436-3.08-0.99-4.351-1.662c-1.271-0.672-2.301-1.508-3.088-2.508
						c-0.788-0.999-1.182-2.298-1.182-3.898c0-0.752,0.044-1.405,0.134-1.96c0.089-0.555,0.304-1.011,0.645-1.37
						c0.34-0.357,0.841-0.626,1.504-0.806c0.662-0.179,1.566-0.269,2.712-0.269c1.539,0,2.945,0.063,4.216,0.188
						c1.271,0.126,2.64,0.188,4.109,0.188c3.438,0,6.543-0.422,9.319-1.267c2.774-0.844,5.138-1.985,7.09-3.423
						c1.951-1.438,3.455-3.118,4.512-5.042c1.056-1.923,1.584-3.98,1.584-6.173c0-1.437-0.412-2.758-1.235-3.962
						c-0.824-1.204-1.979-2.282-3.464-3.234c-1.486-0.953-3.232-1.789-5.237-2.507c-2.006-0.718-4.189-1.321-6.553-1.806
						s-4.853-0.845-7.466-1.079c-2.614-0.233-5.264-0.351-7.949-0.351c-4.333,0-7.699,0.145-10.098,0.432
						c-3.295,0.36-6.365,0.927-9.211,1.7c-2.847,0.774-5.371,1.772-7.573,2.996S288.518,259.488,287.373,261.036z"/>
					<path d="M385.664,333.445l1.182-6.492c-1.934,1.701-3.948,3.074-6.042,4.12s-4.127,1.567-6.096,1.567
						c-1.719,0-3.393-0.349-5.022-1.047c-1.63-0.698-3.071-1.7-4.324-3.008c-1.254-1.307-2.256-2.9-3.008-4.78
						s-1.128-4.001-1.128-6.364c0-3.115,0.214-5.971,0.644-8.566c0.429-2.596,0.958-5.801,1.588-9.613
						c0.629-3.814,1.373-6.822,2.232-9.024s1.844-4.431,2.953-6.688c0.823-1.611,2.004-2.837,3.543-3.679
						c1.539-0.841,3.042-1.262,4.51-1.262c1.252,0,2.327,0.314,3.221,0.941s1.343,1.603,1.343,2.929c0,0.395-0.044,0.824-0.132,1.29
						c-0.088,0.466-0.237,0.967-0.448,1.504c-0.633,1.648-1.167,3.607-1.601,5.878s-1.015,5.298-1.74,9.081s-1.3,6.783-1.726,9.001
						c-0.425,2.218-0.638,4.194-0.638,5.932c0,0.905,0.062,1.782,0.188,2.633c0.125,0.851,0.349,1.61,0.671,2.28
						s0.752,1.212,1.289,1.628c0.537,0.417,1.217,0.624,2.041,0.624c1.324,0,2.524-0.576,3.599-1.73
						c1.074-1.153,2.005-2.541,2.793-4.164c0.787-1.623,1.423-3.301,1.907-5.031s0.796-3.173,0.94-4.328l4.304-20.086
						c0.251-1.182,0.752-2.256,1.506-3.223c0.717-0.932,1.56-1.728,2.529-2.391c0.968-0.662,1.972-1.155,3.013-1.477
						c1.04-0.322,2.026-0.483,2.959-0.483c1.111,0,2.043,0.243,2.797,0.726c0.752,0.484,1.129,1.246,1.129,2.285
						c0,0.323-0.054,0.7-0.161,1.129c-0.168,0.954-0.392,2.233-0.672,3.84c-0.281,1.606-0.601,3.433-0.958,5.481
						c-0.358,2.047-0.858,4.92-1.5,8.615c-0.643,3.694-1.164,6.666-1.565,8.916c-0.907,5.314-1.832,11.025-2.774,17.131
						c1.087-0.607,2.261-1.357,3.519-2.253c1.258-0.895,2.657-2.093,4.197-3.595c1.539-1.502,3.258-3.391,5.156-5.662
						c1.897-2.271,4.028-5.107,6.392-8.506l2.578,11.953c-0.645,1.103-1.469,2.223-2.471,3.361
						c-1.074,1.209-2.221,2.383-3.438,3.521c-1.791,1.637-3.08,2.738-3.867,3.307c-0.251,0.178-1.558,1.206-3.921,3.084
						c-0.717,0.609-3.087,2.256-7.112,4.94c-0.98,0.645-1.651,1.817-2.013,3.517c-0.363,1.701-0.78,4.859-1.251,9.477
						c-0.206,1.318-0.334,2.332-0.385,3.045c-0.218,1.709-0.424,3.34-0.62,4.889c-0.196,1.549-0.544,3.318-1.044,5.307
						c-0.5,1.986-1.09,3.812-1.769,5.48c-0.68,1.664-1.573,3.322-2.681,4.969c-1.108,1.648-2.332,3.055-3.671,4.219
						c-1.34,1.164-2.958,2.104-4.852,2.82c-1.895,0.717-3.967,1.074-6.218,1.074c-1.823,0-3.511-0.205-5.065-0.617
						c-1.554-0.41-2.975-1.045-4.262-1.904s-2.34-2.029-3.162-3.514c-0.823-1.484-1.305-3.229-1.448-5.232
						c-0.287-3.791,0.752-7.797,3.115-12.018c1.324-2.361,2.256-3.998,2.793-4.91s1.378-2.225,2.524-3.943
						c1.146-1.682,2.345-3.201,3.599-4.56c2.506-2.827,4.574-5.098,6.204-6.813C381.465,337.254,383.408,335.413,385.664,333.445z
						 M385.853,346.395c-2.512,1.79-4.987,4.654-7.426,8.594c-2.439,3.938-4.376,7.947-5.812,12.029
						c-1.184,3.436-0.594,5.154,1.769,5.154c0.859,0,1.629-0.107,2.31-0.322c0.68-0.215,1.307-0.6,1.88-1.154
						c0.572-0.555,1.074-1.164,1.504-1.826s0.886-1.594,1.37-2.793s0.913-2.381,1.289-3.545s0.85-2.713,1.423-4.646
						c0.322-1.039,0.562-2.195,0.718-3.469c0.156-1.275,0.342-2.807,0.56-4.596C385.653,348.031,385.793,346.89,385.853,346.395z"/>
					<path d="M461.396,320.502c-3.442,2.006-6.508,3.76-9.197,5.264c-2.689,1.504-5.083,2.758-7.18,3.76
						c-2.098,1.004-3.962,1.756-5.594,2.256c-1.631,0.502-3.111,0.752-4.437,0.752c-2.708,0-5.093-0.822-7.159-2.471
						c-2.066-1.646-3.793-4.019-5.182-7.116c-1.389-3.097-2.431-6.849-3.125-11.253c-0.695-4.404-1.042-9.363-1.042-14.877
						c0-2.148,0.088-4.439,0.266-6.875c0.177-2.435,0.425-4.852,0.745-7.251c-1.082-0.16-1.92-0.309-2.514-0.448
						c-0.595-0.139-1.226-0.279-1.893-0.418c-0.667-0.14-1.514-0.289-2.541-0.448c-1.027-0.16-2.515-0.358-4.461-0.599
						c-0.864-0.119-1.531-0.347-2-0.687c-0.467-0.339-0.81-0.737-1.027-1.196c-0.216-0.458-0.341-0.937-0.378-1.435
						c-0.035-0.499-0.054-0.926-0.054-1.286c0-0.565,0.352-0.996,1.052-1.292c0.703-0.297,1.602-0.52,2.7-0.669
						c1.098-0.148,2.303-0.231,3.617-0.25c1.314-0.018,2.574-0.008,3.78,0.027c1.205,0.036,2.285,0.063,3.239,0.081
						c0.953,0.019,1.61-0.008,1.971-0.08c0.965-4.821,2.188-9.489,3.672-14.006c1.484-4.517,3.146-8.534,4.987-12.051
						c1.84-3.517,3.851-6.337,6.031-8.462c2.181-2.125,4.468-3.188,6.863-3.188c1.541,0,2.947,0.43,4.219,1.288
						c1.272,0.859,2.356,2.003,3.252,3.434c0.895,1.431,1.585,3.104,2.068,5.017c0.483,1.915,0.726,3.908,0.726,5.983
						c0,1.717-0.251,3.53-0.753,5.438c-0.502,1.909-1.182,3.854-2.042,5.833s-1.872,3.984-3.036,6.016
						c-1.164,2.032-2.391,4.046-3.68,6.042c0.323-0.118,0.861-0.141,1.614-0.069c0.752,0.073,1.621,0.124,2.606,0.152
						c0.984,0.028,2.049,0.057,3.196,0.085c1.146,0.029,2.256,0.062,3.33,0.097c1.074,0.036,2.076,0.072,3.008,0.107
						c0.931,0.036,1.7,0.072,2.31,0.107c0.716,0.04,1.235,0.439,1.558,1.196c0.322,0.757,0.483,1.714,0.483,2.87
						c0,1.337-0.359,2.427-1.076,3.268c-0.717,0.841-1.506,1.261-2.366,1.261h-20.647c-1.043,1.433-2.096,2.838-3.156,4.216
						c-1.061,1.379-2.041,2.623-2.94,3.732c-0.144,2.221-0.269,4.404-0.376,6.553c-0.036,0.932-0.072,1.89-0.107,2.874
						c-0.036,0.985-0.072,1.96-0.107,2.927c-0.036,0.967-0.063,1.898-0.081,2.793c-0.019,0.896-0.027,1.719-0.027,2.471
						c0,1.934,0.18,3.564,0.539,4.889c0.359,1.324,0.881,2.408,1.564,3.249c0.683,0.842,1.518,1.45,2.507,1.826
						s2.094,0.563,3.317,0.563c0.752,0,1.692-0.178,2.822-0.537c1.128-0.357,2.365-0.85,3.709-1.477
						c1.344-0.626,2.76-1.369,4.247-2.229c1.487-0.859,2.957-1.8,4.409-2.82c1.452-1.021,2.841-2.095,4.167-3.223
						c1.326-1.128,2.527-2.283,3.603-3.465V320.502z M444.208,252.487c0-0.392-0.028-0.828-0.082-1.31s-0.17-0.936-0.35-1.364
						c-0.18-0.428-0.458-0.785-0.836-1.07c-0.378-0.286-0.908-0.428-1.59-0.428c-0.935,0-1.879,0.818-2.832,2.453
						c-0.953,1.635-1.869,3.724-2.75,6.265c-0.881,2.542-1.708,5.342-2.48,8.399c-0.773,3.057-1.483,6.025-2.13,8.904
						c0.539,0.054,1.079,0.1,1.617,0.14c0.539,0.04,1.096,0.086,1.672,0.139c1.079-1.804,2.202-3.759,3.37-5.864
						c1.168-2.105,2.219-4.174,3.154-6.208c0.935-2.035,1.708-3.936,2.319-5.705C443.902,255.069,444.208,253.619,444.208,252.487z"
						/>
					<path d="M475.28,332.533c-3.343,0-6.269-0.619-8.777-1.858c-2.507-1.239-4.597-2.906-6.269-5.002
						c-1.671-2.095-2.925-4.519-3.761-7.271s-1.254-5.641-1.254-8.666c0-1.979,0.374-4.338,1.122-7.076
						c0.748-2.74,1.522-5.17,2.324-7.29c0.801-2.12,1.807-4.144,3.018-6.069c1.211-1.926,2.627-3.623,4.247-5.089
						c1.621-1.467,3.437-2.633,5.449-3.499c2.013-0.866,4.248-1.299,6.705-1.299c2.008,0,3.872,0.322,5.592,0.966
						c1.721,0.644,3.218,1.547,4.49,2.709c1.272,1.163,2.268,2.566,2.984,4.211c0.716,1.646,1.076,3.487,1.076,5.524
						c0,2.172-0.727,4.605-2.18,7.301s-3.149,5.007-5.087,6.932c-1.938,1.926-4.243,3.643-6.916,5.147
						c-2.674,1.505-5.571,2.679-8.693,3.519c0.539,0.946,1.069,1.734,1.59,2.364c0.521,0.63,1.051,1.12,1.59,1.471
						c0.539,0.35,1.105,0.595,1.698,0.735c0.593,0.14,1.231,0.209,1.915,0.209c2.148,0,4.413-0.419,6.794-1.26
						c2.381-0.84,4.7-1.891,6.956-3.151s4.386-2.635,6.392-4.122c2.005-1.488,3.706-2.897,5.103-4.229l6.929,7.037
						c-3.151,3.357-6.499,6.325-10.044,8.906c-1.54,1.106-3.196,2.195-4.968,3.264c-1.772,1.07-3.635,2.02-5.586,2.849
						c-1.952,0.829-3.975,1.493-6.069,1.991S477.43,332.533,475.28,332.533z M468.11,306.952c1.294,0,2.705-0.323,4.232-0.972
						c1.527-0.646,2.946-1.479,4.259-2.494c1.312-1.016,2.597-2.381,3.855-4.097c1.258-1.716,1.887-3.134,1.887-4.254
						c0-1.575-0.297-2.871-0.89-3.886c-0.593-1.016-1.321-1.523-2.184-1.523c-1.546,0-2.867,0.279-3.963,0.84
						s-2.013,1.287-2.75,2.18c-0.737,0.894-1.33,1.908-1.779,3.046c-0.45,1.138-0.971,2.548-1.563,4.228
						c-0.594,1.681-0.926,3.064-0.998,4.148C468.145,305.254,468.11,306.182,468.11,306.952z"/>
					<path d="M496.211,312.262c2.005-1.736,3.634-3.185,4.888-4.343c1.253-1.158,2.506-2.506,3.76-4.044
						c1.253-1.539,2.247-2.797,2.981-3.774c0.734-0.977,1.602-2.135,2.605-3.474c1.002-1.34,2.22-2.978,3.652-4.914
						c1.432-1.937,3.294-4.353,5.586-7.249c0.465-0.651,0.984-1.284,1.558-1.9c0.573-0.615,1.208-1.167,1.907-1.656
						s1.468-0.886,2.31-1.194c0.841-0.307,1.781-0.461,2.82-0.461c1.721,0,3.046,0.19,3.978,0.571
						c0.931,0.38,1.611,0.842,2.041,1.384c0.43,0.543,0.68,1.113,0.752,1.71c0.071,0.598,0.107,1.113,0.107,1.547
						c0,0.869-0.341,1.828-1.021,2.877c-0.681,1.05-1.433,2.063-2.256,3.041c-0.824,0.977-1.603,1.873-2.337,2.688
						s-1.155,1.421-1.265,1.818c0,1.123,0.082,2.145,0.246,3.068c0.165,0.922,0.383,1.827,0.658,2.713
						c0.274,0.888,0.558,1.828,0.85,2.824c0.292,0.995,0.572,2.145,0.841,3.447s0.304,3.095,0.107,5.375
						c-0.197,2.281-0.295,4.579-0.295,6.896c1.289-0.868,2.676-1.656,4.163-2.362c1.485-0.705,3.035-1.438,4.646-2.198
						s3.267-1.601,4.968-2.524c1.7-0.924,3.411-2.036,5.129-3.34l0.054,12.162c-2.221,1.657-4.79,3.211-7.708,4.662
						c-2.919,1.449-5.987,2.729-9.207,3.832c-3.219,1.104-6.466,1.977-9.743,2.615s-6.383,0.959-9.319,0.959
						c-2.113,0-4.082-0.189-5.908-0.565s-3.429-0.968-4.807-1.772c-1.379-0.805-2.498-1.857-3.357-3.16
						c-0.859-1.301-1.379-2.875-1.558-4.725c-0.501,0.108-0.994,0.181-1.477,0.217c-0.483,0.037-0.958,0.055-1.423,0.055
						c-0.573,0-1.11-0.018-1.611-0.054c-0.501-0.036-0.931-0.173-1.289-0.407c-0.358-0.234-0.645-0.615-0.859-1.141
						c-0.215-0.524-0.322-1.275-0.322-2.253c0-0.868,0.215-1.675,0.645-2.417c0.43-0.741,0.931-1.402,1.504-1.98
						c0.573-0.58,1.146-1.086,1.719-1.52C495.495,312.859,495.925,312.516,496.211,312.262z M502.915,319.211
						c0.43,0,0.904,0.271,1.423,0.814c0.519,0.543,1.119,1.141,1.799,1.792c0.68,0.651,1.468,1.249,2.363,1.792
						c0.895,0.543,1.915,0.814,3.062,0.814c1.396,0,2.551-0.235,3.464-0.706c0.913-0.47,1.638-1.095,2.175-1.874
						c0.537-0.777,0.913-1.682,1.128-2.713s0.322-2.109,0.322-3.231c0-0.978-0.063-1.972-0.188-2.985
						c-0.126-1.014-0.107-2.271,0.054-3.773c0.161-1.503,0.125-2.661-0.107-3.475c-0.233-0.814-0.439-1.512-0.618-2.091
						L502.915,319.211z"/>
				</g>
				<g>
					<g>
						<path fill="#FFFFFF" d="M104.3,338.846c-5.336,0-10.143-1.082-14.421-3.246c-4.279-2.166-7.922-5.19-10.93-9.076
							c-3.008-3.885-5.317-8.516-6.929-13.892s-2.417-11.274-2.417-17.698c0-3.459,0.25-7.009,0.752-10.648
							c0.501-3.639,1.262-7.27,2.283-10.891c1.021-3.622,2.291-7.17,3.813-10.648c1.521-3.477,3.294-6.765,5.317-9.864
							c2.022-3.099,4.288-5.955,6.794-8.567c2.506-2.612,5.272-4.865,8.298-6.757c3.025-1.892,6.284-3.369,9.775-4.432
							c3.491-1.062,7.242-1.595,11.252-1.595c5.371,0,10.178,0.973,14.421,2.917c4.243,1.943,7.823,4.662,10.742,8.154
							c2.918,3.492,5.156,7.659,6.714,12.501c1.558,4.842,2.336,10.179,2.336,16.011c0,4.784-0.475,9.772-1.423,14.965
							c-0.949,5.194-2.336,10.297-4.163,15.313s-4.101,9.79-6.821,14.324c-2.722,4.533-5.854,8.513-9.399,11.939
							c-3.545,3.426-7.493,6.148-11.843,8.166C114.103,337.838,109.384,338.846,104.3,338.846z M105.589,326.385
							c2.864,0,5.532-0.559,8.003-1.678c2.471-1.118,4.735-2.652,6.794-4.602c2.059-1.948,3.938-4.23,5.64-6.848
							c1.7-2.617,3.213-5.422,4.539-8.418c1.324-2.996,2.479-6.1,3.464-9.312c0.984-3.212,1.799-6.388,2.444-9.527
							c0.645-3.14,1.119-6.163,1.423-9.068c0.304-2.906,0.457-5.549,0.457-7.931c0-3.464-0.376-6.721-1.128-9.771
							s-1.889-5.702-3.411-7.958c-1.522-2.256-3.438-4.033-5.747-5.333s-5.004-1.949-8.083-1.949c-3.295,0-6.481,0.803-9.561,2.41
							c-3.08,1.606-5.98,3.771-8.701,6.496c-2.722,2.725-5.21,5.883-7.466,9.474c-2.256,3.591-4.189,7.372-5.801,11.341
							s-2.865,8.012-3.76,12.126c-0.896,4.114-1.343,8.047-1.343,11.8c0,4.079,0.51,7.878,1.531,11.396
							c1.021,3.519,2.488,6.559,4.404,9.121c1.915,2.563,4.243,4.575,6.982,6.037S102.116,326.385,105.589,326.385z"/>
						<path fill="#FFFFFF" d="M174.848,328.533c-3.317,0-6.228-0.607-8.732-1.826c-2.505-1.217-4.605-2.846-6.298-4.887
							c-1.694-2.041-2.974-4.404-3.839-7.09c-0.865-2.686-1.297-5.479-1.297-8.379c0-2.076,0.359-4.566,1.079-7.467
							c0.72-2.9,1.503-5.433,2.349-7.6c0.846-2.166,1.889-4.234,3.131-6.204c1.242-1.969,2.681-3.697,4.319-5.183
							c1.638-1.485,3.465-2.667,5.481-3.545c2.016-0.877,4.229-1.316,6.641-1.316c2.171,0,4.181,0.314,6.029,0.94
							c1.848,0.627,3.429,1.496,4.744,2.605c1.314,1.11,2.342,2.426,3.086,3.948c0.743,1.522,1.114,3.161,1.114,4.915
							c0,1.217-0.175,2.417-0.523,3.598c-0.35,1.182-1.027,2.57-2.035,4.163c-1.007,1.594-1.985,2.677-2.935,3.249
							c-0.949,0.574-2.024,0.859-3.225,0.859c-1.811,0-2.981-0.447-3.509-1.342c-0.868-1.396-1.142-2.633-0.821-3.707
							c0.106-0.572,0.427-1.896,0.962-3.975c0.071-0.285,0.089-0.93,0.054-1.934c0-0.859-0.09-1.575-0.268-2.148
							c-0.178-0.572-0.57-0.859-1.176-0.859c-1.462,0-2.71,0.349-3.744,1.047c-1.034,0.698-1.917,1.611-2.647,2.739
							c-0.731,1.128-1.453,2.722-2.166,4.78c-0.713,2.06-1.221,3.786-1.524,5.183c-0.303,1.396-0.49,2.731-0.562,4.002
							c-0.071,1.271-0.106,2.336-0.106,3.195c0,1.289,0.116,2.633,0.348,4.029c0.231,1.396,0.695,2.677,1.39,3.84
							c0.695,1.164,1.595,2.131,2.701,2.9c1.105,0.771,2.531,1.154,4.278,1.154c1.719,0,3.616-0.527,5.693-1.584
							c2.076-1.056,4.163-2.391,6.257-4.002s4.09-3.383,5.989-5.316c1.897-1.934,3.526-3.76,4.888-5.479l3.706,6.23
							c-2.686,3.832-5.586,7.25-8.701,10.258c-1.325,1.289-2.766,2.543-4.324,3.76c-1.558,1.219-3.188,2.302-4.888,3.25
							c-1.701,0.949-3.474,1.719-5.317,2.31C178.606,328.238,176.739,328.533,174.848,328.533z"/>
						<path fill="#FFFFFF" d="M243.25,316.502c-3.442,2.006-6.508,3.76-9.197,5.264c-2.689,1.504-5.083,2.758-7.18,3.76
							c-2.098,1.004-3.962,1.756-5.594,2.256c-1.631,0.502-3.111,0.752-4.437,0.752c-2.708,0-5.093-0.822-7.159-2.471
							c-2.066-1.646-3.793-4.019-5.182-7.116c-1.389-3.097-2.431-6.849-3.125-11.253c-0.695-4.404-1.042-9.363-1.042-14.877
							c0-2.148,0.088-4.439,0.266-6.875c0.177-2.435,0.425-4.852,0.745-7.251c-1.082-0.16-1.92-0.309-2.514-0.448
							c-0.595-0.139-1.226-0.279-1.893-0.418c-0.667-0.14-1.514-0.289-2.541-0.448c-1.027-0.16-2.515-0.358-4.461-0.599
							c-0.864-0.119-1.531-0.347-2-0.687c-0.467-0.339-0.81-0.737-1.027-1.196c-0.216-0.458-0.341-0.937-0.378-1.435
							c-0.035-0.499-0.054-0.926-0.054-1.286c0-0.565,0.352-0.996,1.052-1.292c0.703-0.297,1.602-0.52,2.7-0.669
							c1.098-0.148,2.303-0.231,3.617-0.25c1.314-0.018,2.574-0.008,3.78,0.027c1.205,0.036,2.285,0.063,3.239,0.081
							c0.953,0.019,1.61-0.008,1.971-0.08c0.965-4.821,2.188-9.489,3.672-14.006c1.484-4.517,3.146-8.534,4.987-12.051
							c1.84-3.517,3.851-6.337,6.031-8.462c2.181-2.125,4.468-3.188,6.863-3.188c1.541,0,2.947,0.43,4.219,1.288
							c1.272,0.859,2.356,2.003,3.252,3.434c0.895,1.431,1.585,3.104,2.068,5.017c0.483,1.915,0.726,3.908,0.726,5.983
							c0,1.717-0.251,3.53-0.753,5.438c-0.502,1.909-1.182,3.854-2.042,5.833s-1.872,3.984-3.036,6.016
							c-1.164,2.032-2.391,4.046-3.68,6.042c0.323-0.118,0.861-0.141,1.614-0.069c0.752,0.073,1.621,0.124,2.606,0.152
							c0.984,0.028,2.049,0.057,3.196,0.085c1.146,0.029,2.256,0.062,3.33,0.097c1.074,0.036,2.076,0.072,3.008,0.107
							c0.931,0.036,1.7,0.072,2.31,0.107c0.716,0.04,1.235,0.439,1.558,1.196c0.322,0.757,0.483,1.714,0.483,2.87
							c0,1.337-0.359,2.427-1.076,3.268c-0.717,0.841-1.506,1.261-2.366,1.261h-20.647c-1.043,1.433-2.096,2.838-3.156,4.216
							c-1.061,1.379-2.041,2.624-2.94,3.732c-0.144,2.221-0.269,4.404-0.376,6.553c-0.036,0.932-0.072,1.89-0.107,2.874
							c-0.036,0.985-0.072,1.96-0.107,2.927c-0.036,0.967-0.063,1.898-0.081,2.793c-0.019,0.896-0.027,1.719-0.027,2.471
							c0,1.934,0.18,3.564,0.539,4.889c0.359,1.324,0.881,2.408,1.564,3.249c0.683,0.842,1.518,1.45,2.507,1.826
							s2.094,0.563,3.317,0.563c0.752,0,1.692-0.178,2.822-0.537c1.128-0.357,2.365-0.85,3.709-1.477
							c1.344-0.626,2.76-1.369,4.247-2.229c1.487-0.859,2.957-1.8,4.409-2.82c1.452-1.021,2.841-2.095,4.167-3.223
							c1.326-1.128,2.527-2.283,3.603-3.465V316.502z M226.063,248.487c0-0.392-0.028-0.828-0.082-1.31s-0.17-0.936-0.35-1.364
							c-0.18-0.428-0.458-0.785-0.836-1.07c-0.378-0.286-0.908-0.428-1.59-0.428c-0.935,0-1.879,0.818-2.832,2.453
							c-0.953,1.635-1.869,3.724-2.75,6.265c-0.881,2.542-1.708,5.342-2.48,8.399c-0.773,3.057-1.483,6.025-2.13,8.904
							c0.539,0.054,1.079,0.1,1.617,0.14c0.539,0.04,1.096,0.086,1.672,0.139c1.079-1.804,2.202-3.759,3.37-5.864
							c1.168-2.105,2.219-4.174,3.154-6.208c0.935-2.035,1.708-3.936,2.319-5.705C225.757,251.069,226.063,249.619,226.063,248.487z
							"/>
						<path fill="#FFFFFF" d="M272.093,287.123c1.038,2.077,1.817,4.27,2.336,6.58c0.519,2.31,0.779,4.915,0.779,7.815
							c0,2.113-0.233,4.242-0.698,6.391c-0.466,2.148-1.137,4.227-2.014,6.23c-0.878,2.006-1.952,3.887-3.223,5.641
							c-1.271,1.754-2.722,3.275-4.351,4.564c-1.63,1.289-3.411,2.311-5.344,3.062s-3.993,1.127-6.177,1.127
							c-3.151,0-5.846-0.688-8.083-2.067c-2.238-1.378-4.074-3.177-5.505-5.397c-1.433-2.221-2.48-4.727-3.142-7.52
							c-0.663-2.793-0.994-5.621-0.994-8.486c0-4.727,0.591-8.8,1.772-12.22c1.182-3.419,2.874-6.392,5.076-8.916
							s4.896-4.512,8.083-5.962c3.187-1.45,6.768-2.175,10.742-2.175c3.401,0,6.588,0.529,9.561,1.584
							c2.972,1.057,5.755,2.471,8.352,4.243c2.596,1.772,5.013,4.001,7.251,6.688c2.237,2.686,4.324,5.246,6.257,7.68l-1.021,7.574
							c-0.967-1.289-2.274-2.686-3.921-4.189c-1.647-1.504-3.393-3.17-5.237-4.996c-1.845-1.826-3.662-3.374-5.452-4.646
							c-1.791-1.271-3.33-2.336-4.619-3.196L272.093,287.123z M255.497,318.221c1.217,0,2.398-0.617,3.545-1.853
							c1.146-1.235,2.148-2.793,3.008-4.673s1.548-4.153,2.068-6.821c0.519-2.667,0.779-5.04,0.779-7.116
							c0-1.646-0.126-3.178-0.376-4.593c-0.251-1.414-0.627-2.64-1.128-3.679c-0.502-1.039-1.146-1.862-1.934-2.471
							c-0.788-0.608-1.737-0.913-2.847-0.913c-1.469,0-2.865,0.627-4.189,1.88c-1.325,1.254-2.489,2.856-3.491,4.807
							c-1.003,1.952-1.791,4.109-2.363,6.473c-0.573,2.363-0.859,5.031-0.859,8.002c0,1.504,0.143,2.92,0.43,4.244
							c0.286,1.324,0.733,2.479,1.343,3.464c0.608,0.985,1.414,1.772,2.417,2.363C252.9,317.926,254.1,318.221,255.497,318.221z"/>
						<path fill="#FFFFFF" d="M283.373,257.036c-2.328,4.247-4.404,7.431-6.23,9.554c-1.826,2.124-3.312,3.184-4.458,3.184
							c-1.575,0-2.363-1.808-2.363-5.425c0-3.509,0.502-6.66,1.504-9.453c1.003-2.793,2.409-5.272,4.216-7.439
							c1.809-2.166,3.956-4.01,6.445-5.532c2.488-1.521,5.21-2.774,8.164-3.76c2.954-0.984,6.078-1.709,9.373-2.175
							c3.294-0.465,6.678-0.698,10.151-0.698c4.046,0,8.11,0.295,12.192,0.885c4.082,0.589,8.003,1.42,11.763,2.492
							c3.76,1.071,7.269,2.366,10.527,3.884c3.258,1.518,6.096,3.197,8.513,5.037c2.417,1.839,4.314,3.831,5.693,5.975
							c1.378,2.143,2.068,4.375,2.068,6.697c0,2.765-0.6,5.494-1.799,8.186c-1.2,2.692-3.08,5.125-5.64,7.296
							c-2.561,2.172-5.837,3.958-9.829,5.358c-3.993,1.4-8.782,2.154-14.368,2.262c3.545,0,6.642,0.577,9.292,1.729
							c2.649,1.153,4.869,2.708,6.66,4.666c1.79,1.958,3.133,4.301,4.028,7.025c0.895,2.727,1.343,5.498,1.343,8.316
							c0,2.219-0.305,4.475-0.913,6.764c-0.609,2.291-1.522,4.493-2.739,6.606c-1.218,2.114-2.739,4.095-4.565,5.944
							s-3.966,3.463-6.418,4.836c-2.453,1.374-5.219,2.457-8.298,3.251c-3.08,0.792-6.464,1.188-10.151,1.188
							c-2.328,0-4.78-0.141-7.358-0.421c-2.578-0.281-5.183-0.661-7.815-1.141s-5.219-1.05-7.761-1.71
							c-2.543-0.662-4.941-1.373-7.197-2.132c-1.003-0.231-1.889-0.578-2.659-1.042c-0.771-0.462-1.155-1.289-1.155-2.479
							c0-6.018,0.152-12.18,0.457-18.486c0.304-6.309,0.921-12.552,1.853-18.732c0.931-6.18,2.184-11.555,3.76-16.122
							c1.575-4.567,3.813-9.008,6.714-13.322c2.542-1.761,4.852-2.642,6.929-2.642c2.613,0,4.798,1.474,6.553,4.421
							c-1.647,2.25-3.053,4.755-4.216,7.514c-1.164,2.759-2.05,5.209-2.659,7.351c-0.609,2.142-1.155,4.792-1.638,7.949
							c-0.483,3.158-0.869,6.243-1.155,9.255c-0.18,1.707-0.332,3.604-0.457,5.69c-0.126,2.087-0.242,4.129-0.349,6.126
							c-0.107,1.996-0.188,3.983-0.242,5.961c-0.054,1.979-0.081,3.875-0.081,5.689c0,0.293,0,0.695,0,1.208
							s0.044,1.043,0.134,1.592c0.089,0.549,0.206,1.052,0.349,1.51c0.143,0.458,0.357,0.796,0.645,1.015
							c2.184,0.732,4.529,1.355,7.036,1.867c2.506,0.512,5.013,0.768,7.52,0.768c3.043,0,5.997-0.375,8.862-1.125
							c2.864-0.75,5.406-1.939,7.627-3.567c2.22-1.628,4.001-3.714,5.344-6.257s2.014-5.791,2.014-9.744
							c0-2.121-0.395-3.887-1.182-5.297c-0.788-1.408-1.818-2.588-3.088-3.539c-1.271-0.952-2.722-1.711-4.351-2.279
							c-1.63-0.566-3.295-1.078-4.995-1.536c-1.701-0.458-3.366-0.903-4.995-1.341c-1.63-0.436-3.08-0.99-4.351-1.662
							c-1.271-0.672-2.301-1.508-3.088-2.507c-0.788-1-1.182-2.299-1.182-3.898c0-0.752,0.044-1.405,0.134-1.96
							c0.089-0.555,0.304-1.011,0.645-1.37c0.34-0.357,0.841-0.626,1.504-0.806c0.662-0.179,1.566-0.269,2.712-0.269
							c1.539,0,2.945,0.063,4.216,0.188c1.271,0.126,2.64,0.188,4.109,0.188c3.438,0,6.543-0.422,9.319-1.267
							c2.774-0.844,5.138-1.985,7.09-3.423c1.951-1.438,3.455-3.118,4.512-5.042c1.056-1.923,1.584-3.98,1.584-6.173
							c0-1.437-0.412-2.758-1.235-3.962c-0.824-1.204-1.979-2.282-3.464-3.234c-1.486-0.953-3.232-1.789-5.237-2.507
							c-2.006-0.718-4.189-1.321-6.553-1.806s-4.853-0.845-7.466-1.079c-2.614-0.233-5.264-0.351-7.949-0.351
							c-4.333,0-7.699,0.145-10.098,0.432c-3.295,0.36-6.365,0.927-9.211,1.7c-2.847,0.774-5.371,1.772-7.573,2.996
							S284.518,255.488,283.373,257.036z"/>
						<path fill="#FFFFFF" d="M381.664,329.445l1.182-6.492c-1.934,1.701-3.948,3.074-6.042,4.12s-4.127,1.567-6.096,1.567
							c-1.719,0-3.393-0.349-5.022-1.047c-1.63-0.698-3.071-1.7-4.324-3.008c-1.254-1.307-2.256-2.9-3.008-4.78
							s-1.128-4.001-1.128-6.364c0-3.115,0.214-5.971,0.644-8.566c0.429-2.596,0.958-5.801,1.588-9.613
							c0.629-3.814,1.373-6.822,2.232-9.024s1.844-4.431,2.953-6.688c0.823-1.611,2.004-2.837,3.543-3.679
							c1.539-0.841,3.042-1.262,4.51-1.262c1.252,0,2.327,0.314,3.221,0.941s1.343,1.603,1.343,2.929
							c0,0.395-0.044,0.824-0.132,1.29c-0.088,0.466-0.237,0.967-0.448,1.504c-0.633,1.648-1.167,3.608-1.601,5.878
							c-0.435,2.271-1.015,5.298-1.74,9.081s-1.3,6.783-1.726,9.001c-0.425,2.218-0.638,4.194-0.638,5.932
							c0,0.905,0.062,1.782,0.188,2.633c0.125,0.851,0.349,1.61,0.671,2.28s0.752,1.212,1.289,1.628
							c0.537,0.417,1.217,0.624,2.041,0.624c1.324,0,2.524-0.576,3.599-1.73c1.074-1.153,2.005-2.541,2.793-4.164
							c0.787-1.623,1.423-3.301,1.907-5.031s0.796-3.173,0.94-4.328l4.304-20.086c0.251-1.182,0.752-2.256,1.506-3.223
							c0.717-0.932,1.56-1.728,2.529-2.391c0.968-0.662,1.972-1.155,3.013-1.477c1.04-0.322,2.026-0.483,2.959-0.483
							c1.111,0,2.043,0.243,2.797,0.726c0.752,0.484,1.129,1.246,1.129,2.285c0,0.323-0.054,0.7-0.161,1.129
							c-0.168,0.954-0.392,2.233-0.672,3.84c-0.281,1.606-0.601,3.433-0.958,5.481c-0.358,2.047-0.858,4.92-1.5,8.615
							c-0.643,3.694-1.164,6.666-1.565,8.916c-0.907,5.314-1.832,11.025-2.774,17.131c1.087-0.607,2.261-1.357,3.519-2.253
							c1.258-0.895,2.657-2.093,4.197-3.595c1.539-1.502,3.258-3.391,5.156-5.662c1.897-2.271,4.028-5.107,6.392-8.506l2.578,11.953
							c-0.645,1.103-1.469,2.223-2.471,3.361c-1.074,1.209-2.221,2.383-3.438,3.521c-1.791,1.637-3.08,2.738-3.867,3.307
							c-0.251,0.178-1.558,1.206-3.921,3.084c-0.717,0.609-3.087,2.256-7.112,4.94c-0.98,0.645-1.651,1.817-2.013,3.517
							c-0.363,1.701-0.78,4.859-1.251,9.477c-0.206,1.318-0.334,2.332-0.385,3.045c-0.218,1.709-0.424,3.34-0.62,4.889
							c-0.196,1.549-0.544,3.318-1.044,5.307c-0.5,1.986-1.09,3.812-1.769,5.48c-0.68,1.664-1.573,3.322-2.681,4.969
							c-1.108,1.648-2.332,3.055-3.671,4.219c-1.34,1.164-2.958,2.104-4.852,2.82c-1.895,0.717-3.967,1.074-6.218,1.074
							c-1.823,0-3.511-0.205-5.065-0.617c-1.554-0.41-2.975-1.045-4.262-1.904s-2.34-2.029-3.162-3.514
							c-0.823-1.484-1.305-3.229-1.448-5.232c-0.287-3.791,0.752-7.797,3.115-12.018c1.324-2.361,2.256-3.998,2.793-4.91
							s1.378-2.225,2.524-3.943c1.146-1.682,2.345-3.201,3.599-4.56c2.506-2.827,4.574-5.098,6.204-6.813
							C377.465,333.254,379.408,331.413,381.664,329.445z M381.853,342.395c-2.512,1.79-4.987,4.654-7.426,8.594
							c-2.439,3.938-4.376,7.947-5.812,12.029c-1.184,3.436-0.594,5.154,1.769,5.154c0.859,0,1.629-0.107,2.31-0.322
							c0.68-0.215,1.307-0.6,1.88-1.154c0.572-0.555,1.074-1.164,1.504-1.826s0.886-1.594,1.37-2.793s0.913-2.381,1.289-3.545
							s0.85-2.713,1.423-4.646c0.322-1.039,0.562-2.195,0.718-3.469c0.156-1.275,0.342-2.807,0.56-4.596
							C381.653,344.031,381.793,342.89,381.853,342.395z"/>
						<path fill="#FFFFFF" d="M457.396,316.502c-3.442,2.006-6.508,3.76-9.197,5.264c-2.689,1.504-5.083,2.758-7.18,3.76
							c-2.098,1.004-3.962,1.756-5.594,2.256c-1.631,0.502-3.111,0.752-4.437,0.752c-2.708,0-5.093-0.822-7.159-2.471
							c-2.066-1.646-3.793-4.019-5.182-7.116c-1.389-3.097-2.431-6.849-3.125-11.253c-0.695-4.404-1.042-9.363-1.042-14.877
							c0-2.148,0.088-4.439,0.266-6.875c0.177-2.435,0.425-4.852,0.745-7.251c-1.082-0.16-1.92-0.309-2.514-0.448
							c-0.595-0.139-1.226-0.279-1.893-0.418c-0.667-0.14-1.514-0.289-2.541-0.448c-1.027-0.16-2.515-0.358-4.461-0.599
							c-0.864-0.119-1.531-0.347-2-0.687c-0.467-0.339-0.81-0.737-1.027-1.196c-0.216-0.458-0.341-0.937-0.378-1.435
							c-0.035-0.499-0.054-0.926-0.054-1.286c0-0.565,0.352-0.996,1.052-1.292c0.703-0.297,1.602-0.52,2.7-0.669
							c1.098-0.148,2.303-0.231,3.617-0.25c1.314-0.018,2.574-0.008,3.78,0.027c1.205,0.036,2.285,0.063,3.239,0.081
							c0.953,0.019,1.61-0.008,1.971-0.08c0.965-4.821,2.188-9.489,3.672-14.006c1.484-4.517,3.146-8.534,4.987-12.051
							c1.84-3.517,3.851-6.337,6.031-8.462c2.181-2.125,4.468-3.188,6.863-3.188c1.541,0,2.947,0.43,4.219,1.288
							c1.272,0.859,2.356,2.003,3.252,3.434c0.895,1.431,1.585,3.104,2.068,5.017c0.483,1.915,0.726,3.908,0.726,5.983
							c0,1.717-0.251,3.53-0.753,5.438c-0.502,1.909-1.182,3.854-2.042,5.833s-1.872,3.984-3.036,6.016
							c-1.164,2.032-2.391,4.046-3.68,6.042c0.323-0.118,0.861-0.141,1.614-0.069c0.752,0.073,1.621,0.124,2.606,0.152
							c0.984,0.028,2.049,0.057,3.196,0.085c1.146,0.029,2.256,0.062,3.33,0.097c1.074,0.036,2.076,0.072,3.008,0.107
							c0.931,0.036,1.7,0.072,2.31,0.107c0.716,0.04,1.235,0.439,1.558,1.196c0.322,0.757,0.483,1.714,0.483,2.87
							c0,1.337-0.359,2.427-1.076,3.268c-0.717,0.841-1.506,1.261-2.366,1.261h-20.647c-1.043,1.433-2.096,2.838-3.156,4.216
							c-1.061,1.379-2.041,2.624-2.94,3.732c-0.144,2.221-0.269,4.404-0.376,6.553c-0.036,0.932-0.072,1.89-0.107,2.874
							c-0.036,0.985-0.072,1.96-0.107,2.927c-0.036,0.967-0.063,1.898-0.081,2.793c-0.019,0.896-0.027,1.719-0.027,2.471
							c0,1.934,0.18,3.564,0.539,4.889c0.359,1.324,0.881,2.408,1.564,3.249c0.683,0.842,1.518,1.45,2.507,1.826
							s2.094,0.563,3.317,0.563c0.752,0,1.692-0.178,2.822-0.537c1.128-0.357,2.365-0.85,3.709-1.477
							c1.344-0.626,2.76-1.369,4.247-2.229c1.487-0.859,2.957-1.8,4.409-2.82c1.452-1.021,2.841-2.095,4.167-3.223
							c1.326-1.128,2.527-2.283,3.603-3.465V316.502z M440.208,248.487c0-0.392-0.028-0.828-0.082-1.31s-0.17-0.936-0.35-1.364
							c-0.18-0.428-0.458-0.785-0.836-1.07c-0.378-0.286-0.908-0.428-1.59-0.428c-0.935,0-1.879,0.818-2.832,2.453
							c-0.953,1.635-1.869,3.724-2.75,6.265c-0.881,2.542-1.708,5.342-2.48,8.399c-0.773,3.057-1.483,6.025-2.13,8.904
							c0.539,0.054,1.079,0.1,1.617,0.14c0.539,0.04,1.096,0.086,1.672,0.139c1.079-1.804,2.202-3.759,3.37-5.864
							c1.168-2.105,2.219-4.174,3.154-6.208c0.935-2.035,1.708-3.936,2.319-5.705C439.902,251.069,440.208,249.619,440.208,248.487z
							"/>
						<path fill="#FFFFFF" d="M471.28,328.533c-3.343,0-6.269-0.619-8.777-1.858c-2.507-1.239-4.597-2.906-6.269-5.002
							c-1.671-2.095-2.925-4.519-3.761-7.271s-1.254-5.641-1.254-8.666c0-1.979,0.374-4.338,1.122-7.076
							c0.748-2.74,1.522-5.17,2.324-7.29c0.801-2.12,1.807-4.144,3.018-6.069c1.211-1.926,2.627-3.623,4.247-5.089
							c1.621-1.467,3.437-2.633,5.449-3.499c2.013-0.866,4.248-1.299,6.705-1.299c2.008,0,3.872,0.322,5.592,0.966
							c1.721,0.644,3.218,1.547,4.49,2.709c1.272,1.163,2.268,2.566,2.984,4.211c0.716,1.645,1.076,3.487,1.076,5.524
							c0,2.172-0.727,4.605-2.18,7.301s-3.149,5.007-5.087,6.932c-1.938,1.926-4.243,3.643-6.916,5.147
							c-2.674,1.505-5.571,2.679-8.693,3.519c0.539,0.946,1.069,1.734,1.59,2.364c0.521,0.63,1.051,1.12,1.59,1.471
							c0.539,0.35,1.105,0.595,1.698,0.735c0.593,0.14,1.231,0.209,1.915,0.209c2.148,0,4.413-0.419,6.794-1.26
							c2.381-0.84,4.7-1.891,6.956-3.151s4.386-2.635,6.392-4.122c2.005-1.488,3.706-2.897,5.103-4.229l6.929,7.037
							c-3.151,3.357-6.499,6.325-10.044,8.906c-1.54,1.106-3.196,2.195-4.968,3.264c-1.772,1.07-3.635,2.02-5.586,2.849
							c-1.952,0.829-3.975,1.493-6.069,1.991S473.43,328.533,471.28,328.533z M464.11,302.952c1.294,0,2.705-0.323,4.232-0.972
							c1.527-0.646,2.946-1.479,4.259-2.494c1.312-1.016,2.597-2.381,3.855-4.097c1.258-1.716,1.887-3.134,1.887-4.254
							c0-1.575-0.297-2.871-0.89-3.886c-0.593-1.016-1.321-1.523-2.184-1.523c-1.546,0-2.867,0.28-3.963,0.841
							s-2.013,1.287-2.75,2.179c-0.737,0.894-1.33,1.908-1.779,3.046c-0.45,1.138-0.971,2.548-1.563,4.228
							c-0.594,1.681-0.926,3.064-0.998,4.148C464.145,301.254,464.11,302.182,464.11,302.952z"/>
						<path fill="#FFFFFF" d="M492.211,308.262c2.005-1.736,3.634-3.185,4.888-4.343c1.253-1.158,2.506-2.506,3.76-4.044
							c1.253-1.539,2.247-2.797,2.981-3.774c0.734-0.977,1.602-2.135,2.605-3.474c1.002-1.34,2.22-2.978,3.652-4.915
							c1.432-1.936,3.294-4.352,5.586-7.249c0.465-0.651,0.984-1.284,1.558-1.9c0.573-0.615,1.208-1.167,1.907-1.656
							s1.468-0.886,2.31-1.194c0.841-0.307,1.781-0.461,2.82-0.461c1.721,0,3.046,0.19,3.978,0.571
							c0.931,0.38,1.611,0.842,2.041,1.384c0.43,0.543,0.68,1.113,0.752,1.71c0.071,0.598,0.107,1.113,0.107,1.547
							c0,0.869-0.341,1.828-1.021,2.877c-0.681,1.05-1.433,2.063-2.256,3.041c-0.824,0.978-1.603,1.874-2.337,2.688
							s-1.155,1.421-1.265,1.818c0,1.123,0.082,2.145,0.246,3.068c0.165,0.922,0.383,1.827,0.658,2.713
							c0.274,0.888,0.558,1.828,0.85,2.824c0.292,0.995,0.572,2.145,0.841,3.447s0.304,3.095,0.107,5.375
							c-0.197,2.281-0.295,4.579-0.295,6.896c1.289-0.868,2.676-1.656,4.163-2.362c1.485-0.705,3.035-1.438,4.646-2.198
							s3.267-1.601,4.968-2.524c1.7-0.924,3.411-2.036,5.129-3.34l0.054,12.162c-2.221,1.657-4.79,3.211-7.708,4.662
							c-2.919,1.449-5.987,2.729-9.207,3.832c-3.219,1.104-6.466,1.977-9.743,2.615s-6.383,0.959-9.319,0.959
							c-2.113,0-4.082-0.189-5.908-0.565s-3.429-0.968-4.807-1.772c-1.379-0.805-2.498-1.857-3.357-3.16
							c-0.859-1.301-1.379-2.875-1.558-4.725c-0.501,0.108-0.994,0.181-1.477,0.217c-0.483,0.037-0.958,0.055-1.423,0.055
							c-0.573,0-1.11-0.018-1.611-0.054c-0.501-0.036-0.931-0.173-1.289-0.407c-0.358-0.234-0.645-0.615-0.859-1.141
							c-0.215-0.524-0.322-1.275-0.322-2.253c0-0.868,0.215-1.675,0.645-2.417c0.43-0.741,0.931-1.402,1.504-1.98
							c0.573-0.58,1.146-1.086,1.719-1.52C491.495,308.859,491.925,308.516,492.211,308.262z M498.915,315.211
							c0.43,0,0.904,0.271,1.423,0.814c0.519,0.543,1.119,1.141,1.799,1.792c0.68,0.651,1.468,1.249,2.363,1.792
							c0.895,0.543,1.915,0.814,3.062,0.814c1.396,0,2.551-0.235,3.464-0.706c0.913-0.47,1.638-1.095,2.175-1.874
							c0.537-0.777,0.913-1.682,1.128-2.713s0.322-2.109,0.322-3.231c0-0.978-0.063-1.972-0.188-2.985
							c-0.126-1.014-0.107-2.271,0.054-3.773c0.161-1.503,0.125-2.661-0.107-3.475c-0.233-0.814-0.439-1.512-0.618-2.091
							L498.915,315.211z"/>
					</g>
				</g>
			</g>
		</g>
	</g>
</g>
</svg>
